<svg id="Layer_1" data-name="Layer 1" xmlns="http://www.w3.org/2000/svg" viewBox="0 0 827.07 575.3"><defs><style>.cls-1{fill:#cbcbcb;stroke:#fff;stroke-width:8px;}.cls-1,.cls-5,.cls-6,.cls-9{stroke-miterlimit:10;}.cls-2{fill:#8b8b8b;}.cls-3,.cls-4,.cls-6{fill:#fff;}.cls-3,.cls-5,.cls-6{stroke:#000;}.cls-3{stroke-linecap:round;stroke-linejoin:round;stroke-width:3px;}.cls-7{fill:#231f20;}.cls-8{fill:#ee2c3e;}.cls-9{fill:none;stroke:red;stroke-width:10px;}</style></defs><circle class="cls-1" cx="177" cy="177" r="173"/><rect class="cls-2" x="103.03" y="159.58" width="143.23" height="44.94" rx="22.47"/><path class="cls-3" d="M98,258.29c-3.93-51,37.68-94.67,88-94.66,50,0,91.39,43.1,88,93.77Z" transform="translate(-9.2 -7.17)"/><ellipse class="cls-2" cx="175.12" cy="161.15" rx="56.11" ry="43.5"/><circle class="cls-4" cx="174.52" cy="120.53" r="74.28"/><path d="M183.72,55.93a71.78,71.78,0,1,1-71.78,71.78,71.86,71.86,0,0,1,71.78-71.78m0-5a76.78,76.78,0,1,0,76.78,76.78,76.77,76.77,0,0,0-76.78-76.78Z" transform="translate(-9.2 -7.17)"/><path class="cls-5" d="M117.63,101.51c-8.88,27.45-2.59,57,16.58,76.42,22.26,22.51,51.84,21.11,55,20.91,4.82-.31,28.06-2.29,45.9-20.91,18.94-19.77,24.16-50.37,13.94-78.58a24.67,24.67,0,0,0-5.53-6.73c-13.13-11-29.14.85-59.12,1.44-30.79.61-47.23-11.26-61,.48A26.82,26.82,0,0,0,117.63,101.51Z" transform="translate(-9.2 -7.17)"/><circle class="cls-6" cx="127.06" cy="105.27" r="8.05"/><circle class="cls-6" cx="133.07" cy="122.1" r="3.24"/><path class="cls-6" d="M142.38,180.1s26.13,21.72,59.6,13.69c17.43-4.18,42.06-23.15,46.62-44.21,0,0-16.87,30.58-67.28,34.6C168.36,185.22,142.38,180.1,142.38,180.1Z" transform="translate(-9.2 -7.17)"/><g id="Layer_2" data-name="Layer 2"><g id="Layer_1-2" data-name="Layer 1-2"><path class="cls-7" d="M219.92,221.21h-.85v5.21h.5V224h.35a.81.81,0,0,0,.92-.94v-.86a1,1,0,0,0-.22-.71A.94.94,0,0,0,219.92,221.21Zm.43.94V223a.48.48,0,0,1-.11.34.41.41,0,0,1-.32.11h-.35V221.7h.34a.41.41,0,0,1,.34.1.55.55,0,0,1,.1.35Z" transform="translate(-9.2 -7.17)"/><path class="cls-7" d="M237.12,224.38a1,1,0,0,0-.19-.34,5.66,5.66,0,0,0-.42-.43,4.15,4.15,0,0,1-.4-.43A.51.51,0,0,1,236,223a.65.65,0,0,1,0-.24V222c0-.25.11-.37.34-.37a.28.28,0,0,1,.27.12.6.6,0,0,1,.07.32V223h.46v-1a1,1,0,0,0-.18-.65.8.8,0,0,0-.63-.21c-.56,0-.83.29-.83.86v.78a2.42,2.42,0,0,0,0,.38.57.57,0,0,0,.15.3c.07.09.15.17.22.25l.22.21.2.2.19.21a.76.76,0,0,1,.08.11.37.37,0,0,1,0,.11.31.31,0,0,1,0,.13c0,.06,0,.12,0,.2h0v.74a.6.6,0,0,1-.08.29.34.34,0,0,1-.28.09.27.27,0,0,1-.27-.12.64.64,0,0,1-.07-.33v-1.05h-.48v1.11a1,1,0,0,0,.2.64.83.83,0,0,0,.64.22.8.8,0,0,0,.64-.22.93.93,0,0,0,.19-.64v-.75A2,2,0,0,0,237.12,224.38Z" transform="translate(-9.2 -7.17)"/><path class="cls-7" d="M218.23,224c-.13-.15-.27-.29-.41-.43a2.72,2.72,0,0,1-.4-.43.39.39,0,0,1-.1-.16,1,1,0,0,1,0-.24V222c0-.25.11-.37.34-.37a.27.27,0,0,1,.27.12.6.6,0,0,1,.07.32V223h.46v-1a1,1,0,0,0-.18-.65.8.8,0,0,0-.63-.21.75.75,0,0,0-.83.86v.78a2.42,2.42,0,0,0,0,.38.57.57,0,0,0,.15.3l.22.25.22.21.2.2.19.21a.76.76,0,0,1,.08.11.37.37,0,0,1,.05.11.31.31,0,0,1,0,.13c0,.06,0,.12,0,.2v.74a.52.52,0,0,1-.09.29.35.35,0,0,1-.27.1.3.3,0,0,1-.27-.13.64.64,0,0,1-.07-.33v-1.05h-.47v1.11a.88.88,0,0,0,.2.64.79.79,0,0,0,.63.22.8.8,0,0,0,.64-.22.93.93,0,0,0,.19-.64v-.75a2,2,0,0,0,0-.49A.88.88,0,0,0,218.23,224Z" transform="translate(-9.2 -7.17)"/><path class="cls-7" d="M234.16,221.21h-.84v5.21h.5V224h.35a.81.81,0,0,0,.92-.94v-.86a.94.94,0,0,0-.23-.71A.91.91,0,0,0,234.16,221.21Zm.43.94V223a.52.52,0,0,1-.1.34.44.44,0,0,1-.33.11h-.34V221.7h.34a.4.4,0,0,1,.33.1.55.55,0,0,1,.1.35Z" transform="translate(-9.2 -7.17)"/><path class="cls-7" d="M231.88,221.21H231v5.21h.5V224h.35a.81.81,0,0,0,.92-.94v-.86a1,1,0,0,0-.22-.71A.94.94,0,0,0,231.88,221.21Zm.43,1.81a.47.47,0,0,1-.11.34.42.42,0,0,1-.32.11h-.35V221.7h.34a.42.42,0,0,1,.34.1.54.54,0,0,1,.09.35h0Z" transform="translate(-9.2 -7.17)"/><path class="cls-7" d="M229.25,221.21l-.74,5.21H229l.12-.87h.81l.12.87h.5l-.7-5.21Zm-.08,3.89.18-1.33.18-1.34c.05.45.1.89.16,1.34s.12.89.17,1.33Z" transform="translate(-9.2 -7.17)"/><path class="cls-7" d="M221.7,221.21l-.75,5.21h.49l.12-.87h.81l.11.87h.5l-.69-5.21Zm.61,3.89h-.69l.18-1.33.18-1.34c.05.45.1.89.16,1.34S222.26,224.66,222.31,225.1Z" transform="translate(-9.2 -7.17)"/><polygon class="cls-7" points="216.91 216.83 217.57 216.83 217.57 216.35 216.91 216.35 216.91 214.52 217.85 214.52 217.85 214.03 216.42 214.03 216.42 219.25 216.42 219.25 217.88 219.25 217.88 218.77 216.91 218.77 216.91 216.83"/><path class="cls-7" d="M224.24,221.15c-.57,0-.86.3-.86.9v3.55a.77.77,0,0,0,.86.88.72.72,0,0,0,.6-.22,1,1,0,0,0,.19-.67v-1.08h-.45v1.09a.5.5,0,0,1-.08.31.31.31,0,0,1-.26.1c-.24,0-.36-.14-.36-.41V222c0-.27.12-.4.36-.4a.28.28,0,0,1,.26.1.54.54,0,0,1,.08.3V223H225V222C225,221.45,224.77,221.15,224.24,221.15Z" transform="translate(-9.2 -7.17)"/><path class="cls-7" d="M234,218.51a1.57,1.57,0,1,1,1.63-1.57A1.6,1.6,0,0,1,234,218.51Zm0-2.9a1.33,1.33,0,1,0,1.38,1.33A1.35,1.35,0,0,0,234,215.61Z" transform="translate(-9.2 -7.17)"/><path class="cls-7" d="M235,216a.12.12,0,0,1-.12-.12.11.11,0,0,1,0-.08l1.4-1.35a.13.13,0,0,1,.18,0,.11.11,0,0,1,0,.17l-1.4,1.35A.14.14,0,0,1,235,216Z" transform="translate(-9.2 -7.17)"/><path class="cls-7" d="M233.82,215.61a.12.12,0,0,1-.12-.12.11.11,0,0,1,0-.07l1.25-1.51a.14.14,0,0,1,.18,0,.12.12,0,0,1,0,.17l-1.25,1.51A.13.13,0,0,1,233.82,215.61Z" transform="translate(-9.2 -7.17)"/><path class="cls-7" d="M233,215.93H233a.13.13,0,0,1-.06-.16h0l1.57-3.27a.13.13,0,0,1,.17-.06h0a.12.12,0,0,1,.06.16l-1.57,3.27A.12.12,0,0,1,233,215.93Z" transform="translate(-9.2 -7.17)"/><path class="cls-7" d="M235.47,217.2a.13.13,0,0,1-.13-.12.11.11,0,0,1,0-.09l1.56-1.21a.13.13,0,0,1,.18,0,.12.12,0,0,1,0,.16l-1.57,1.2A.11.11,0,0,1,235.47,217.2Z" transform="translate(-9.2 -7.17)"/><path class="cls-7" d="M235.13,218a.12.12,0,0,1-.12-.12.14.14,0,0,1,.07-.11l3.4-1.51a.13.13,0,0,1,.15.09.13.13,0,0,1,0,.13L235.19,218Z" transform="translate(-9.2 -7.17)"/><path class="cls-7" d="M216.93,219.33a0,0,0,0,1,0,0h.22a0,0,0,0,1,0,0v1.14a0,0,0,0,1,0,0H217s0,0,0,0Z" transform="translate(-9.2 -7.17)"/><path class="cls-7" d="M218,219.31a0,0,0,0,1,0,0h0l.71.66h0v-.61a0,0,0,0,1,0,0h.21a0,0,0,0,1,0,0v1.16a0,0,0,0,1,0,0H219l-.71-.68h0v.64s0,0,0,0h-.21a0,0,0,0,1,0,0Z" transform="translate(-9.2 -7.17)"/><path class="cls-7" d="M220.11,219.55h-.25s0,0,0,0h0v-.19a0,0,0,0,1,0,0h.79a0,0,0,0,1,0,0v.19a0,0,0,0,1,0,0h-.25v.92s0,0,0,0h-.21s0,0,0,0Z" transform="translate(-9.2 -7.17)"/><path class="cls-7" d="M221.39,219.33a0,0,0,0,1,0,0h.73a0,0,0,0,1,0,0v.19a0,0,0,0,1,0,0h-.49v.22h.4s0,0,0,0V220s0,0,0,0h-.4v.23h.49a0,0,0,0,1,0,0h0v.19s0,0,0,0h-.73s0,0,0,0h0Z" transform="translate(-9.2 -7.17)"/><path class="cls-7" d="M223,219.33a0,0,0,0,1,0,0h.53a.38.38,0,0,1,.4.35.39.39,0,0,1-.27.37l.24.43s0,0,0,0h-.26l0,0-.23-.45h-.12v.43s0,0,0,0H223s0,0,0,0Zm.54.48a.13.13,0,0,0,0-.26h-.26v.26Z" transform="translate(-9.2 -7.17)"/><path class="cls-7" d="M224.69,219.31a0,0,0,0,1,0,0h.05l.71.66h0v-.61s0,0,0,0h.22a0,0,0,0,1,0,0v1.16a0,0,0,0,1,0,0h0l-.7-.68h0v.64s0,0,0,0h-.21a0,0,0,0,1,0,0Z" transform="translate(-9.2 -7.17)"/><path class="cls-7" d="M226.44,220.46l.55-1.16,0,0h0l0,0,.56,1.16a0,0,0,0,1,0,0h-.21a.07.07,0,0,1-.07,0l-.06-.14h-.48l-.06.14a.08.08,0,0,1-.07,0h-.19s0,0,0,0Zm.73-.37-.14-.28h0l-.13.28Z" transform="translate(-9.2 -7.17)"/><path class="cls-7" d="M228.4,219.55h-.25s0,0,0,0h0v-.19a0,0,0,0,1,0,0h.79a0,0,0,0,1,0,0v.19a0,0,0,0,1,0,0h-.26v.92a0,0,0,0,1,0,0h-.22a0,0,0,0,1,0,0Z" transform="translate(-9.2 -7.17)"/><path class="cls-7" d="M229.68,219.33a0,0,0,0,1,0,0h.22a0,0,0,0,1,0,0v1.14a0,0,0,0,1,0,0h-.22a0,0,0,0,1,0,0Z" transform="translate(-9.2 -7.17)"/><path class="cls-7" d="M231.35,219.28a.63.63,0,0,1,.64.62.63.63,0,0,1-.64.62.63.63,0,0,1-.64-.62h0a.63.63,0,0,1,.63-.62Zm0,1a.35.35,0,0,0,.35-.34.34.34,0,0,0-.35-.35.35.35,0,0,0-.36.34h0a.35.35,0,0,0,.36.33Z" transform="translate(-9.2 -7.17)"/><path class="cls-7" d="M232.73,219.31a0,0,0,0,1,0,0h0l.71.66h0v-.61a0,0,0,0,1,0,0h.21a0,0,0,0,1,0,0v1.16a0,0,0,0,1,0,0h-.05l-.71-.68h0v.64s0,0,0,0h-.21a0,0,0,0,1,0,0Z" transform="translate(-9.2 -7.17)"/><path class="cls-7" d="M234.48,220.46l.56-1.16s0,0,0,0h0l0,0,.55,1.16s0,0,0,0h-.22s0,0-.06,0l-.06-.14h-.48l-.07.14a.07.07,0,0,1-.06,0h-.2s0,0,0,0Zm.73-.37-.13-.28h0l-.13.28Z" transform="translate(-9.2 -7.17)"/><path class="cls-7" d="M236.35,219.33a0,0,0,0,1,0,0h.21a0,0,0,0,1,0,0v.92h.43a0,0,0,0,1,0,0h0v.19a0,0,0,0,1,0,0h-.67a0,0,0,0,1,0,0Z" transform="translate(-9.2 -7.17)"/><path class="cls-7" d="M217.67,227.05a1,1,0,0,1,.69.26.05.05,0,0,1,0,.08h0l-.22.23a0,0,0,0,1-.07,0,.63.63,0,0,0-.39-.15.58.58,0,0,0-.59.57.57.57,0,0,0,.59.57.68.68,0,0,0,.39-.13,0,0,0,0,1,.07,0l.22.23a0,0,0,0,1,0,.07,1,1,0,0,1-.7.27,1,1,0,1,1,0-2Z" transform="translate(-9.2 -7.17)"/><path class="cls-7" d="M219.23,227.13a.06.06,0,0,1,.06,0h.34a.06.06,0,0,1,.06,0h0v.69h.82v-.7a0,0,0,0,1,.05,0h.35a0,0,0,0,1,.05,0V229a.06.06,0,0,1-.05.06h-.34a.06.06,0,0,1-.06-.06v-.73h-.82V229a.06.06,0,0,1-.06.06h-.34a.06.06,0,0,1-.06-.06Z" transform="translate(-9.2 -7.17)"/><path class="cls-7" d="M221.72,229l.91-1.88a.06.06,0,0,1,.05,0h0a.06.06,0,0,1,.05,0l.91,1.88a0,0,0,0,1,0,.06h-.34a.09.09,0,0,1-.1-.07l-.11-.22h-.78l-.11.22a.11.11,0,0,1-.1.07h-.32a0,0,0,0,1-.05-.05Zm1.19-.59-.22-.46h0l-.23.46Z" transform="translate(-9.2 -7.17)"/><path class="cls-7" d="M224.41,227.13a.06.06,0,0,1,.06,0h.34a.06.06,0,0,1,.06,0v1.49h.68a.06.06,0,0,1,.06,0V229a.06.06,0,0,1-.06.05h-1.08a.06.06,0,0,1-.06-.05Z" transform="translate(-9.2 -7.17)"/><path class="cls-7" d="M226.41,227.13a.05.05,0,0,1,.05,0h.35a.05.05,0,0,1,.05,0v1.49h.69a0,0,0,0,1,0,0V229a0,0,0,0,1,0,.05h-1.09a0,0,0,0,1-.05-.05Z" transform="translate(-9.2 -7.17)"/><path class="cls-7" d="M228.4,227.13a.06.06,0,0,1,.06,0h1.19a.06.06,0,0,1,.06,0h0v.31a.06.06,0,0,1-.06.05h-.8v.34h.66a.06.06,0,0,1,.06.06v.3a.06.06,0,0,1-.06.05h-.66v.38h.8a.06.06,0,0,1,.06,0v.3a.06.06,0,0,1-.06.06h-1.19a.06.06,0,0,1-.06-.06Z" transform="translate(-9.2 -7.17)"/><path class="cls-7" d="M230.62,227.1a.05.05,0,0,1,0,0h.07l1.16,1.08h0v-1a.06.06,0,0,1,0-.06h.35a.06.06,0,0,1,0,.06V229a0,0,0,0,1,0,.05h-.09l-1.14-1.11h0v1a0,0,0,0,1,0,.05h-.35a0,0,0,0,1,0-.05Z" transform="translate(-9.2 -7.17)"/><path class="cls-7" d="M234.26,227.06a1.1,1.1,0,0,1,.7.26,0,0,0,0,1,0,.07h0l-.22.24h-.08a.57.57,0,0,0-.37-.14.58.58,0,0,0-.56.59.57.57,0,0,0,.56.53.56.56,0,0,0,.25-.05v-.16h-.18a0,0,0,0,1-.05,0h0v-.27s0-.05.05-.05H235a0,0,0,0,1,.05.05v.75a.08.08,0,0,1,0,0,1.51,1.51,0,0,1-.72.18,1,1,0,1,1-.07-2h.07Z" transform="translate(-9.2 -7.17)"/><path class="cls-7" d="M235.91,227.13a.06.06,0,0,1,.06,0h1.2a0,0,0,0,1,.05,0h0v.31a0,0,0,0,1-.05.05h-.8v.34H237a.06.06,0,0,1,.05.06v.3a0,0,0,0,1-.05.05h-.66v.38h.8a0,0,0,0,1,.05,0v.3a.06.06,0,0,1-.05.06H236a.06.06,0,0,1-.06-.06Z" transform="translate(-9.2 -7.17)"/><path class="cls-8" d="M224.17,216.26a0,0,0,0,1,0,0h.05l.8.74h0v-.69s0,0,0,0h.24s0,0,0,0v1.3a0,0,0,0,1,0,0h-.06l-.79-.77h0v.72s0,0,0,0h-.23s0,0,0,0Z" transform="translate(-9.2 -7.17)"/><path class="cls-8" d="M225.73,217.55l.63-1.3,0,0h0l0,0,.63,1.3a0,0,0,0,1,0,0h-.24s0,0-.07,0l-.07-.15h-.55l-.07.15a.08.08,0,0,1-.07,0h-.22s0,0,0,0A0,0,0,0,1,225.73,217.55Zm.82-.42-.15-.32h0l-.15.32Z" transform="translate(-9.2 -7.17)"/><path class="cls-8" d="M227.36,217.41l.09-.16a.06.06,0,0,1,.07,0,.57.57,0,0,0,.28.11.12.12,0,0,0,.14-.11h0c0-.09-.07-.15-.21-.2a.49.49,0,0,1-.38-.43c0-.19.15-.38.46-.38a.76.76,0,0,1,.43.14.06.06,0,0,1,0,.07l-.1.14a.06.06,0,0,1-.07,0,.74.74,0,0,0-.29-.12.12.12,0,0,0-.12.1h0c0,.07.06.13.22.19s.39.17.39.44a.44.44,0,0,1-.47.4.74.74,0,0,1-.45-.15S227.34,217.44,227.36,217.41Z" transform="translate(-9.2 -7.17)"/><path class="cls-8" d="M228.55,217.55l.63-1.3,0,0h0a.05.05,0,0,1,0,0l.62,1.3a0,0,0,0,1,0,0h-.24s-.06,0-.07,0l-.08-.15H229l-.07.15a.08.08,0,0,1-.07,0h-.23s0,0,0,0Zm.82-.42-.15-.32h0l-.15.32Z" transform="translate(-9.2 -7.17)"/><path class="cls-7" d="M227,233.8a10.49,10.49,0,0,1-8-3.68.12.12,0,0,1,0-.17.14.14,0,0,1,.18,0,10.31,10.31,0,0,0,14.14,1.43,8.21,8.21,0,0,0,.77-.67,8.86,8.86,0,0,0,.73-.77.12.12,0,1,1,.19.15h0a9.22,9.22,0,0,1-.74.79A10.46,10.46,0,0,1,227,233.8Z" transform="translate(-9.2 -7.17)"/><path class="cls-7" d="M218.78,218.18l-.07,0a.12.12,0,0,1,0-.17h0A10.56,10.56,0,0,1,233,215.8a.12.12,0,0,1,0,.17.12.12,0,0,1-.17,0,10.31,10.31,0,0,0-14,2.13A.12.12,0,0,1,218.78,218.18Z" transform="translate(-9.2 -7.17)"/></g></g><path d="M106.84,304.23v-35h25v5h5v5h5v15h-5v5h-5v5Zm10-5h10v-5h5v-15h-5v-5h-10Z" transform="translate(-9.2 -7.17)"/><path d="M151.84,304.23v-5h-5v-5h5v-5h20v-5h-20v-5h25v5h5v20Zm5-5h15v-5h-15Z" transform="translate(-9.2 -7.17)"/><path d="M186.84,304.23v-25h30v5h5v20h-10v-20h-15v20Z" transform="translate(-9.2 -7.17)"/><path d="M231.84,304.23v-5h-5v-5h5v-5h20v-5h-20v-5h25v5h5v20Zm5-5h15v-5h-15Z" transform="translate(-9.2 -7.17)"/><circle class="cls-1" cx="650.07" cy="182.24" r="173"/><rect class="cls-2" x="576.59" y="164.32" width="143.23" height="44.94" rx="22.47"/><path class="cls-3" d="M571.54,263c-3.93-51,37.67-94.68,88-94.66,50,0,91.4,43.09,88,93.77Z" transform="translate(-9.2 -7.17)"/><ellipse class="cls-2" cx="648.69" cy="165.88" rx="56.11" ry="43.5"/><circle class="cls-4" cx="657.29" cy="132.44" r="74.28" transform="translate(412.07 752.85) rotate(-80.78)"/><path d="M657.29,60.66a71.78,71.78,0,1,1-71.79,71.78,71.86,71.86,0,0,1,71.79-71.78m0-5a76.78,76.78,0,1,0,76.78,76.78,76.79,76.79,0,0,0-76.78-76.78Z" transform="translate(-9.2 -7.17)"/><path class="cls-5" d="M591.2,106.25c-8.88,27.45-2.59,57,16.58,76.42,22.26,22.5,51.84,21.11,55,20.91,4.83-.31,28.07-2.29,45.9-20.91,18.94-19.78,24.17-50.37,13.94-78.59a24.14,24.14,0,0,0-5.53-6.72C704,86.34,688,98.21,658,98.8c-30.79.6-47.23-11.26-61,.48A26.66,26.66,0,0,0,591.2,106.25Z" transform="translate(-9.2 -7.17)"/><circle class="cls-6" cx="600.62" cy="110.01" r="8.05"/><circle class="cls-6" cx="606.63" cy="126.83" r="3.24"/><path class="cls-6" d="M616,184.83s26.13,21.73,59.6,13.7c17.43-4.18,42.06-23.15,46.62-44.22,0,0-16.87,30.59-67.29,34.61C641.92,190,616,184.83,616,184.83Z" transform="translate(-9.2 -7.17)"/><g id="Layer_2-2" data-name="Layer 2"><g id="Layer_1-2-2" data-name="Layer 1-2"><path class="cls-7" d="M693.48,225.94h-.84v5.22h.5v-2.48h.35a1,1,0,0,0,.7-.22,1,1,0,0,0,.22-.72v-.85a1,1,0,0,0-.23-.72A1,1,0,0,0,693.48,225.94Zm.43.95v.86a.44.44,0,0,1-.1.35.48.48,0,0,1-.32.11h-.35v-1.78h.34a.44.44,0,0,1,.33.11.47.47,0,0,1,.1.34Z" transform="translate(-9.2 -7.17)"/><path class="cls-7" d="M710.68,229.12a.8.8,0,0,0-.19-.35,3.25,3.25,0,0,0-.41-.42,5.36,5.36,0,0,1-.4-.43.56.56,0,0,1-.09-.17,1,1,0,0,1,0-.24v-.76c0-.25.12-.38.35-.38a.3.3,0,0,1,.27.12.72.72,0,0,1,.07.33v.88h.46v-.95a1,1,0,0,0-.18-.65.8.8,0,0,0-.63-.22.76.76,0,0,0-.84.87v.78a2.31,2.31,0,0,0,0,.37.54.54,0,0,0,.15.3c.07.09.15.17.22.25l.21.22.21.19c.06.07.13.14.19.22l.08.1a.54.54,0,0,1,.05.11l0,.14v.19h0v.74a.43.43,0,0,1-.08.29.34.34,0,0,1-.27.1.29.29,0,0,1-.27-.13.62.62,0,0,1-.07-.33v-1h-.48v1.1a.88.88,0,0,0,.2.64.79.79,0,0,0,.63.23.83.83,0,0,0,.65-.23,1,1,0,0,0,.19-.64v-.75A2,2,0,0,0,710.68,229.12Z" transform="translate(-9.2 -7.17)"/><path class="cls-7" d="M691.8,228.77a4.16,4.16,0,0,0-.42-.42,5.36,5.36,0,0,1-.4-.43.56.56,0,0,1-.09-.17,1,1,0,0,1,0-.24v-.76c0-.25.12-.38.35-.38a.3.3,0,0,1,.27.12.72.72,0,0,1,.07.33v.88H692v-.95a1,1,0,0,0-.18-.65.8.8,0,0,0-.63-.22.76.76,0,0,0-.84.87v.78a2.31,2.31,0,0,0,0,.37.54.54,0,0,0,.15.3c.07.09.15.17.22.25l.21.22.2.19.2.22a1,1,0,0,1,.08.11l0,.1,0,.14v.93a.41.41,0,0,1-.08.29.34.34,0,0,1-.27.1.29.29,0,0,1-.27-.13.62.62,0,0,1-.07-.33v-1h-.48v1.1a1,1,0,0,0,.2.64.82.82,0,0,0,.64.23.8.8,0,0,0,.64-.23.92.92,0,0,0,.19-.64v-.75a2.7,2.7,0,0,0,0-.49A1,1,0,0,0,691.8,228.77Z" transform="translate(-9.2 -7.17)"/><path class="cls-7" d="M707.73,225.94h-.85v5.22h.5v-2.48h.36a1,1,0,0,0,.7-.22,1,1,0,0,0,.22-.72v-.85a1,1,0,0,0-.23-.72A1,1,0,0,0,707.73,225.94Zm.43.95v.86a.49.49,0,0,1-.11.35.46.46,0,0,1-.32.11h-.35v-1.78h.34a.47.47,0,0,1,.34.11.52.52,0,0,1,.1.34Z" transform="translate(-9.2 -7.17)"/><path class="cls-7" d="M705.45,225.94h-.85v5.22h.5v-2.48h.35a1,1,0,0,0,.7-.22,1,1,0,0,0,.22-.72v-.85a1,1,0,0,0-.22-.72A1,1,0,0,0,705.45,225.94Zm.43,1.81a.49.49,0,0,1-.11.35.48.48,0,0,1-.32.11h-.35v-1.78h.34a.44.44,0,0,1,.33.11.47.47,0,0,1,.1.34h0Z" transform="translate(-9.2 -7.17)"/><path class="cls-7" d="M702.82,225.94l-.75,5.22h.49l.12-.88h.81l.11.88h.5l-.69-5.22Zm-.08,3.9.18-1.33c.06-.45.12-.89.17-1.34.06.44.11.89.17,1.34s.11.89.17,1.33Z" transform="translate(-9.2 -7.17)"/><path class="cls-7" d="M695.27,225.94l-.75,5.22H695l.11-.88h.81l.12.88h.5l-.7-5.22Zm.61,3.9h-.69l.18-1.33c.06-.45.12-.89.17-1.34.05.44.11.89.17,1.34S695.82,229.4,695.88,229.84Z" transform="translate(-9.2 -7.17)"/><polygon class="cls-7" points="690.48 221.57 691.14 221.57 691.14 221.08 690.48 221.08 690.48 219.26 691.41 219.26 691.41 218.77 689.98 218.77 689.98 223.98 689.98 223.98 691.45 223.98 691.45 223.51 690.48 223.51 690.48 221.57"/><path class="cls-7" d="M697.81,225.89c-.58,0-.86.3-.86.9v3.54a.77.77,0,0,0,.86.88.78.78,0,0,0,.6-.21,1,1,0,0,0,.19-.68v-1.07h-.46v1.08a.55.55,0,0,1-.07.31.31.31,0,0,1-.27.1c-.23,0-.35-.13-.35-.41v-3.55c0-.27.12-.41.35-.41a.34.34,0,0,1,.27.1.48.48,0,0,1,.07.31v.92h.46v-.93C698.6,226.18,698.33,225.89,697.81,225.89Z" transform="translate(-9.2 -7.17)"/><path class="cls-7" d="M707.53,223.24a1.57,1.57,0,1,1,1.63-1.57A1.6,1.6,0,0,1,707.53,223.24Zm0-2.9a1.33,1.33,0,1,0,1.38,1.33A1.36,1.36,0,0,0,707.53,220.34Z" transform="translate(-9.2 -7.17)"/><path class="cls-7" d="M708.6,220.77a.13.13,0,0,1-.13-.13.12.12,0,0,1,0-.08l1.4-1.35a.13.13,0,0,1,.18,0,.12.12,0,0,1,0,.17l-1.4,1.35A.18.18,0,0,1,708.6,220.77Z" transform="translate(-9.2 -7.17)"/><path class="cls-7" d="M707.39,220.35a.13.13,0,0,1-.13-.12.11.11,0,0,1,0-.08l1.26-1.51a.12.12,0,0,1,.17,0,.12.12,0,0,1,0,.17l-1.26,1.51A.12.12,0,0,1,707.39,220.35Z" transform="translate(-9.2 -7.17)"/><path class="cls-7" d="M706.58,220.67h-.05a.12.12,0,0,1-.06-.16h0l1.57-3.28a.13.13,0,0,1,.16-.06h0a.12.12,0,0,1,.06.17l-1.56,3.27A.14.14,0,0,1,706.58,220.67Z" transform="translate(-9.2 -7.17)"/><path class="cls-7" d="M709,221.93a.12.12,0,0,1-.12-.12.15.15,0,0,1,0-.09l1.57-1.21a.14.14,0,0,1,.18,0,.14.14,0,0,1,0,.16l-1.57,1.21Z" transform="translate(-9.2 -7.17)"/><path class="cls-7" d="M708.7,222.71a.12.12,0,0,1-.12-.12.12.12,0,0,1,.07-.11L712,221a.11.11,0,0,1,.15.09.1.1,0,0,1,0,.12l-3.4,1.51Z" transform="translate(-9.2 -7.17)"/><path class="cls-7" d="M690.49,224.07s0,0,0,0h.21s0,0,0,0v1.13s0,0,0,0h-.22s0,0,0,0Z" transform="translate(-9.2 -7.17)"/><path class="cls-7" d="M691.61,224.05a0,0,0,0,1,0,0h.05l.71.66h0v-.61a0,0,0,0,1,0,0h.21s0,0,0,0v1.15s0,0,0,0h0l-.7-.68h0v.65a0,0,0,0,1,0,0h-.21a0,0,0,0,1,0,0Z" transform="translate(-9.2 -7.17)"/><path class="cls-7" d="M693.68,224.29h-.26a0,0,0,0,1,0,0h0v-.18a0,0,0,0,1,0,0h.79s0,0,0,0v.18a0,0,0,0,1,0,0H694v.91a.08.08,0,0,1,0,0h-.22s0,0,0,0Z" transform="translate(-9.2 -7.17)"/><path class="cls-7" d="M695,224.07a0,0,0,0,1,0,0h.74a0,0,0,0,1,0,0v.18s0,0,0,0h-.49v.21h.4s0,0,0,0v.18a0,0,0,0,1,0,0h-.4V225h.49a0,0,0,0,1,0,0h0v.18s0,0,0,0H695a0,0,0,0,1,0,0h0Z" transform="translate(-9.2 -7.17)"/><path class="cls-7" d="M696.53,224.07s0,0,0,0h.53a.36.36,0,0,1,.39.35.35.35,0,0,1-.27.36l.25.43a0,0,0,0,1,0,0h-.28l-.24-.46h-.12v.44a0,0,0,0,1,0,0h-.21s0,0,0,0Zm.54.48a.15.15,0,0,0,.14-.14.13.13,0,0,0-.14-.13h-.26v.27Z" transform="translate(-9.2 -7.17)"/><path class="cls-7" d="M698.25,224.05s0,0,0,0h0l.71.66h0v-.61a0,0,0,0,1,0,0h.23a0,0,0,0,1,0,0v1.15a0,0,0,0,1,0,0h-.06l-.7-.68h0v.65a0,0,0,0,1,0,0h-.21a0,0,0,0,1,0,0Z" transform="translate(-9.2 -7.17)"/><path class="cls-7" d="M700,225.19l.56-1.15s0,0,0,0h0l0,0,.55,1.15s0,0,0,0H701s0,0-.06-.05l-.06-.13h-.48l-.06.13a.08.08,0,0,1-.07.05H700a0,0,0,0,1,0,0Zm.73-.37-.13-.28h0l-.14.28Z" transform="translate(-9.2 -7.17)"/><path class="cls-7" d="M702,224.29h-.26a0,0,0,0,1,0,0h0v-.18a0,0,0,0,1,0,0h.79s0,0,0,0v.18a0,0,0,0,1,0,0h-.25v.91s0,0,0,0H702s0,0,0,0Z" transform="translate(-9.2 -7.17)"/><path class="cls-7" d="M703.25,224.07a0,0,0,0,1,0,0h.21s0,0,0,0v1.13s0,0,0,0h-.21s0,0,0,0Z" transform="translate(-9.2 -7.17)"/><path class="cls-7" d="M704.91,224a.62.62,0,1,1,0,1.23.62.62,0,0,1-.64-.61h0a.62.62,0,0,1,.63-.62Zm0,1a.34.34,0,1,0-.35-.34h0a.35.35,0,0,0,.35.34Z" transform="translate(-9.2 -7.17)"/><path class="cls-7" d="M706.3,224.05a0,0,0,0,1,0,0h0l.71.66h0v-.61a0,0,0,0,1,0,0h.22a0,0,0,0,1,0,0v1.15a0,0,0,0,1,0,0h-.06l-.7-.68h0v.65a0,0,0,0,1,0,0h-.21a0,0,0,0,1,0,0Z" transform="translate(-9.2 -7.17)"/><path class="cls-7" d="M708.05,225.19l.55-1.15,0,0h0l0,0,.56,1.15s0,0,0,0H709a.06.06,0,0,1-.06-.05l-.07-.13h-.48l-.06.13a.08.08,0,0,1-.07.05h-.19s0,0,0,0S708,225.2,708.05,225.19Zm.73-.37-.14-.28h0l-.13.28Z" transform="translate(-9.2 -7.17)"/><path class="cls-7" d="M709.92,224.07a0,0,0,0,1,0,0h.21s0,0,0,0V225h.42a0,0,0,0,1,0,0h0v.18a0,0,0,0,1,0,0H710a0,0,0,0,1,0,0Z" transform="translate(-9.2 -7.17)"/><path class="cls-7" d="M691.23,231.79a1,1,0,0,1,.7.26,0,0,0,0,1,0,.07h0l-.22.22a0,0,0,0,1-.07,0,.62.62,0,0,0-.39-.14.57.57,0,0,0-.59.57.58.58,0,0,0,.59.57.59.59,0,0,0,.38-.14.06.06,0,0,1,.08,0l.22.23a.06.06,0,0,1,0,.08,1.06,1.06,0,0,1-.7.27,1,1,0,1,1,0-2Z" transform="translate(-9.2 -7.17)"/><path class="cls-7" d="M692.8,231.87a.05.05,0,0,1,.05-.05h.35a0,0,0,0,1,0,.05h0v.7h.83v-.7a.06.06,0,0,1,0-.06h.35a.06.06,0,0,1,0,.06v1.84a0,0,0,0,1,0,0h-.35a0,0,0,0,1,0,0V233h-.83v.73a0,0,0,0,1,0,0h-.35a0,0,0,0,1-.05,0Z" transform="translate(-9.2 -7.17)"/><path class="cls-7" d="M695.29,233.69l.9-1.87a.05.05,0,0,1,0,0h0a.05.05,0,0,1,.05,0l.9,1.87a0,0,0,0,1,0,.07h-.35c-.05,0-.07,0-.1-.07l-.1-.22h-.79l-.1.23a.11.11,0,0,1-.1.06h-.32s-.05,0-.06,0A0,0,0,0,1,695.29,233.69Zm1.19-.59-.23-.46h0l-.22.46Z" transform="translate(-9.2 -7.17)"/><path class="cls-7" d="M698,231.87a0,0,0,0,1,0-.05h.35a0,0,0,0,1,0,.05v1.49h.69a.06.06,0,0,1,.06,0v.3a.06.06,0,0,1-.06,0H698a0,0,0,0,1,0,0Z" transform="translate(-9.2 -7.17)"/><path class="cls-7" d="M700,231.87a.06.06,0,0,1,.06-.05h.34a.06.06,0,0,1,.06.05v1.49h.69a0,0,0,0,1,0,0v.3a0,0,0,0,1,0,0H700a.06.06,0,0,1-.06,0Z" transform="translate(-9.2 -7.17)"/><path class="cls-7" d="M702,231.87a0,0,0,0,1,0-.05h1.2a.06.06,0,0,1,.06.05h0v.3a.06.06,0,0,1-.06.06h-.8v.34h.66a0,0,0,0,1,0,.05v.3a.06.06,0,0,1,0,.06h-.66v.37h.8a.06.06,0,0,1,.06.06v.3a.06.06,0,0,1-.06,0H702a0,0,0,0,1,0,0Z" transform="translate(-9.2 -7.17)"/><path class="cls-7" d="M704.18,231.84a.06.06,0,0,1,.06-.05h.07l1.15,1.07h0v-1a.06.06,0,0,1,.06-.05h.34a.06.06,0,0,1,.06.05v1.87a.06.06,0,0,1-.06,0h-.08l-1.14-1.11h0v1a.06.06,0,0,1-.06.06h-.34s-.06,0-.06-.06Z" transform="translate(-9.2 -7.17)"/><path class="cls-7" d="M707.83,231.79a1.18,1.18,0,0,1,.7.26,0,0,0,0,1,0,.07h0l-.22.23a.06.06,0,0,1-.08,0,.52.52,0,0,0-.38-.13.56.56,0,0,0,0,1.11.57.57,0,0,0,.26,0v-.16h-.18a.06.06,0,0,1-.06,0h0v-.28a0,0,0,0,1,0-.05h.59a.06.06,0,0,1,.06.05v.75s0,0,0,.05a1.47,1.47,0,0,1-.71.18,1,1,0,1,1-.07-2Z" transform="translate(-9.2 -7.17)"/><path class="cls-7" d="M709.48,231.87a0,0,0,0,1,0-.05h1.2a.06.06,0,0,1,.06.05h0v.3a.06.06,0,0,1-.06.06h-.79v.34h.65a.06.06,0,0,1,.06.05v.3a.06.06,0,0,1,0,.06h-.66v.37h.79a.06.06,0,0,1,.06.06v.3s0,0-.06,0h-1.19s-.06,0-.06,0Z" transform="translate(-9.2 -7.17)"/><path class="cls-8" d="M697.73,221a0,0,0,0,1,0,0h.05l.8.74h0V221a0,0,0,0,1,0,0h.24s0,0,0,0v1.3a0,0,0,0,1,0,0h-.06l-.79-.76h0v.71a0,0,0,0,1,0,0h-.24s0,0,0,0Z" transform="translate(-9.2 -7.17)"/><path class="cls-8" d="M699.3,222.28l.62-1.3,0,0h0l0,0,.63,1.3a0,0,0,0,1,0,.05h-.25s0,0-.07-.05l-.07-.15h-.54l-.07.15a.08.08,0,0,1-.07.05h-.23a.05.05,0,0,1,0,0A0,0,0,0,1,699.3,222.28Zm.82-.42-.15-.32h0l-.15.32Z" transform="translate(-9.2 -7.17)"/><path class="cls-8" d="M700.92,222.15l.1-.16a0,0,0,0,1,.07,0,.56.56,0,0,0,.28.1.12.12,0,0,0,.14-.11h0c0-.08-.07-.14-.21-.19s-.39-.2-.39-.43a.42.42,0,0,1,.47-.39.79.79,0,0,1,.42.15,0,0,0,0,1,0,.06l-.1.15s-.05,0-.07,0a.57.57,0,0,0-.28-.11.11.11,0,0,0-.13.09h0c0,.07.06.12.22.18s.4.18.4.44a.44.44,0,0,1-.47.4.6.6,0,0,1-.45-.15S700.91,222.17,700.92,222.15Z" transform="translate(-9.2 -7.17)"/><path class="cls-8" d="M702.12,222.28l.62-1.3,0,0h0l0,0,.63,1.3a0,0,0,0,1,0,.05h-.25s-.05,0-.07-.05l-.07-.15h-.54l-.08.15a.08.08,0,0,1-.07.05h-.22s0,0,0,0S702.12,222.29,702.12,222.28Zm.82-.41-.15-.32h0l-.15.32Z" transform="translate(-9.2 -7.17)"/><path class="cls-7" d="M700.55,238.54a10.5,10.5,0,0,1-8-3.69.12.12,0,1,1,.19-.15,10.32,10.32,0,0,0,14.15,1.43c.27-.21.52-.44.77-.67a10.55,10.55,0,0,0,.72-.78.13.13,0,0,1,.18,0,.12.12,0,0,1,0,.17h0c-.24.27-.48.54-.74.79A10.5,10.5,0,0,1,700.55,238.54Z" transform="translate(-9.2 -7.17)"/><path class="cls-7" d="M692.35,222.91l-.07,0a.12.12,0,0,1,0-.17h0a10.55,10.55,0,0,1,14.3-2.18.12.12,0,0,1,0,.17.14.14,0,0,1-.18,0,10.3,10.3,0,0,0-13.95,2.13A.1.1,0,0,1,692.35,222.91Z" transform="translate(-9.2 -7.17)"/></g></g><path d="M587.4,312V277h30v5h5v15h-5v5h-20v10Zm10-15h15V282h-15Z" transform="translate(-9.2 -7.17)"/><path d="M632.4,312v-5h-5v-5h5v-5h20v-5h-20v-5h25v5h5v20Zm5-5h15v-5h-15Z" transform="translate(-9.2 -7.17)"/><path d="M682.4,312V292h-10v-5h10V277h10v10h10v5h-10v20Z" transform="translate(-9.2 -7.17)"/><path d="M712.4,312v-5h10V292h-5v-5h15v20h10v5Zm10-30v-5h10v5Z" transform="translate(-9.2 -7.17)"/><line class="cls-9" x1="116.3" y1="102.33" x2="162.8" y2="148.83"/><line class="cls-9" x1="162.75" y1="102" x2="116.25" y2="148.5"/><line class="cls-9" x1="190.84" y1="102.65" x2="237.34" y2="149.15"/><line class="cls-9" x1="237.29" y1="102.32" x2="190.79" y2="148.82"/><line class="cls-9" x1="588.03" y1="103.71" x2="634.53" y2="150.21"/><line class="cls-9" x1="634.48" y1="103.38" x2="587.98" y2="149.88"/><line class="cls-9" x1="662.57" y1="104.03" x2="709.07" y2="150.53"/><line class="cls-9" x1="709.02" y1="103.71" x2="662.52" y2="150.21"/><circle class="cls-1" cx="409.7" cy="398.3" r="173"/><rect class="cls-2" x="336.23" y="380.39" width="143.23" height="44.94" rx="22.47"/><path class="cls-3" d="M331.17,479.09c-3.92-51,37.68-94.67,88-94.65,50,0,91.39,43.09,88,93.76Z" transform="translate(-9.2 -7.17)"/><ellipse class="cls-2" cx="408.32" cy="381.95" rx="56.11" ry="43.5"/><circle class="cls-4" cx="416.92" cy="348.51" r="74.28" transform="translate(-110.83 178.9) rotate(-22.5)"/><path d="M416.92,276.73a71.78,71.78,0,1,1-71.78,71.78,71.86,71.86,0,0,1,71.78-71.78m0-5a76.78,76.78,0,1,0,76.78,76.78,76.77,76.77,0,0,0-76.78-76.78Z" transform="translate(-9.2 -7.17)"/><path class="cls-5" d="M350.83,322.31c-8.88,27.45-2.59,57,16.58,76.43,22.26,22.5,51.84,21.11,55,20.9,4.82-.3,28.06-2.28,45.9-20.9,18.94-19.78,24.17-50.37,13.94-78.59a24.67,24.67,0,0,0-5.53-6.73c-13.13-11-29.14.85-59.12,1.44-30.79.61-47.23-11.25-61,.49A26.64,26.64,0,0,0,350.83,322.31Z" transform="translate(-9.2 -7.17)"/><circle class="cls-6" cx="360.26" cy="326.07" r="8.05"/><circle class="cls-6" cx="366.27" cy="342.9" r="3.24"/><path class="cls-6" d="M375.59,400.9s26.12,21.73,59.59,13.7c17.43-4.18,42.06-23.16,46.63-44.22,0,0-16.88,30.58-67.29,34.6C401.56,406,375.59,400.9,375.59,400.9Z" transform="translate(-9.2 -7.17)"/><g id="Layer_2-3" data-name="Layer 2"><g id="Layer_1-2-3" data-name="Layer 1-2"><path class="cls-7" d="M453.12,442h-.85v5.21h.5v-2.47h.35a.8.8,0,0,0,.92-.94V443a1,1,0,0,0-.22-.71A.93.93,0,0,0,453.12,442Zm.43.94v.87a.51.51,0,0,1-.11.35.44.44,0,0,1-.32.1h-.35V442.5h.35a.4.4,0,0,1,.33.1.55.55,0,0,1,.1.35Z" transform="translate(-9.2 -7.17)"/><path class="cls-7" d="M470.32,445.18a1,1,0,0,0-.19-.34,5.66,5.66,0,0,0-.42-.43,4.15,4.15,0,0,1-.4-.43.42.42,0,0,1-.09-.16.65.65,0,0,1,0-.24v-.77c0-.24.11-.37.34-.37a.28.28,0,0,1,.27.12.6.6,0,0,1,.07.32v.88h.46v-.95a1,1,0,0,0-.18-.64.76.76,0,0,0-.63-.22.75.75,0,0,0-.83.86v.78a2.36,2.36,0,0,0,0,.38.57.57,0,0,0,.15.3l.23.25.21.22.2.19a2,2,0,0,1,.19.22.39.39,0,0,1,.08.1.54.54,0,0,1,.05.11.32.32,0,0,1,0,.14c0,.05,0,.11,0,.19h0v.74a.51.51,0,0,1-.08.29.39.39,0,0,1-.28.1.3.3,0,0,1-.27-.13.75.75,0,0,1-.07-.33v-1h-.47v1.1a.92.92,0,0,0,.19.64.83.83,0,0,0,.64.22.8.8,0,0,0,.64-.22.92.92,0,0,0,.19-.64v-.75A2,2,0,0,0,470.32,445.18Z" transform="translate(-9.2 -7.17)"/><path class="cls-7" d="M451.43,444.84c-.13-.15-.27-.29-.41-.43a2.72,2.72,0,0,1-.4-.43.34.34,0,0,1-.1-.16,1,1,0,0,1,0-.24v-.77c0-.24.11-.37.34-.37a.27.27,0,0,1,.27.12.6.6,0,0,1,.07.32v.88h.46v-.95a1,1,0,0,0-.18-.64.76.76,0,0,0-.63-.22.75.75,0,0,0-.83.86v.78a2.36,2.36,0,0,0,0,.38.57.57,0,0,0,.15.3l.23.25.21.22.2.19a2,2,0,0,1,.19.22.39.39,0,0,1,.08.1.54.54,0,0,1,.05.11.32.32,0,0,1,0,.14c0,.05,0,.11,0,.19v.74a.51.51,0,0,1-.08.29.34.34,0,0,1-.27.1.31.31,0,0,1-.28-.13.62.62,0,0,1-.07-.33v-1H450v1.1a.88.88,0,0,0,.2.64.79.79,0,0,0,.63.22.8.8,0,0,0,.64-.22.92.92,0,0,0,.19-.64v-.75a2,2,0,0,0,0-.49A1,1,0,0,0,451.43,444.84Z" transform="translate(-9.2 -7.17)"/><path class="cls-7" d="M467.36,442h-.84v5.21h.5v-2.47h.35a.8.8,0,0,0,.92-.94V443a.94.94,0,0,0-.23-.71A.91.91,0,0,0,467.36,442Zm.43.94v.87a.55.55,0,0,1-.1.35.48.48,0,0,1-.33.1H467V442.5h.34a.4.4,0,0,1,.33.1.55.55,0,0,1,.1.35Z" transform="translate(-9.2 -7.17)"/><path class="cls-7" d="M465.08,442h-.84v5.21h.5v-2.47h.35a1,1,0,0,0,.7-.22,1,1,0,0,0,.22-.72V443a1,1,0,0,0-.22-.71A.94.94,0,0,0,465.08,442Zm.43,1.81a.51.51,0,0,1-.11.35.46.46,0,0,1-.32.1h-.35V442.5h.34a.42.42,0,0,1,.34.1.54.54,0,0,1,.09.35h0Z" transform="translate(-9.2 -7.17)"/><path class="cls-7" d="M462.45,442l-.74,5.21h.48l.12-.87h.81l.12.87h.5L463,442Zm-.08,3.9c.07-.45.13-.9.18-1.34l.18-1.34c0,.45.1.9.16,1.34s.12.89.17,1.34Z" transform="translate(-9.2 -7.17)"/><path class="cls-7" d="M454.9,442l-.75,5.21h.49l.12-.87h.81l.11.87h.5l-.69-5.21Zm.61,3.9h-.69l.18-1.34.18-1.34c.05.45.1.9.16,1.34S455.46,445.46,455.51,445.91Z" transform="translate(-9.2 -7.17)"/><polygon class="cls-7" points="450.12 437.64 450.77 437.64 450.77 437.15 450.12 437.15 450.12 435.32 451.05 435.32 451.05 434.84 449.62 434.84 449.62 440.05 449.62 440.05 451.08 440.05 451.08 439.57 450.12 439.57 450.12 437.64"/><path class="cls-7" d="M457.44,442c-.57,0-.86.3-.86.9v3.55a.77.77,0,0,0,.86.88.75.75,0,0,0,.6-.21,1,1,0,0,0,.19-.68v-1.07h-.45v1.08a.48.48,0,0,1-.08.31.31.31,0,0,1-.26.1c-.24,0-.36-.14-.36-.41v-3.55c0-.27.12-.41.36-.41a.31.31,0,0,1,.26.1.48.48,0,0,1,.08.31v.91h.45v-.92C458.23,442.25,458,442,457.44,442Z" transform="translate(-9.2 -7.17)"/><path class="cls-7" d="M467.17,439.31a1.57,1.57,0,1,1,1.63-1.57A1.6,1.6,0,0,1,467.17,439.31Zm0-2.9a1.33,1.33,0,1,0,1.38,1.33A1.35,1.35,0,0,0,467.17,436.41Z" transform="translate(-9.2 -7.17)"/><path class="cls-7" d="M468.23,436.83a.12.12,0,0,1-.12-.12.11.11,0,0,1,0-.08l1.4-1.35a.13.13,0,0,1,.18,0,.11.11,0,0,1,0,.17l-1.4,1.35A.12.12,0,0,1,468.23,436.83Z" transform="translate(-9.2 -7.17)"/><path class="cls-7" d="M467,436.42a.13.13,0,0,1-.12-.13.11.11,0,0,1,0-.07l1.25-1.51a.14.14,0,0,1,.18,0,.12.12,0,0,1,0,.17l-1.26,1.51A.14.14,0,0,1,467,436.42Z" transform="translate(-9.2 -7.17)"/><path class="cls-7" d="M466.22,436.73h-.05a.13.13,0,0,1-.07-.16h0l1.57-3.27a.13.13,0,0,1,.17-.06h0a.12.12,0,0,1,.06.16l-1.57,3.27A.11.11,0,0,1,466.22,436.73Z" transform="translate(-9.2 -7.17)"/><path class="cls-7" d="M468.67,438a.12.12,0,0,1-.13-.12.11.11,0,0,1,0-.09l1.56-1.21a.13.13,0,0,1,.18,0,.11.11,0,0,1,0,.16l-1.57,1.2A.11.11,0,0,1,468.67,438Z" transform="translate(-9.2 -7.17)"/><path class="cls-7" d="M468.34,438.78a.14.14,0,0,1-.13-.13.12.12,0,0,1,.07-.1l3.4-1.51a.12.12,0,0,1,.15.09.12.12,0,0,1-.05.12l-3.39,1.51Z" transform="translate(-9.2 -7.17)"/><path class="cls-7" d="M450.13,440.14s0,0,0,0h.22s0,0,0,0v1.13a0,0,0,0,1,0,0h-.22s0,0,0,0Z" transform="translate(-9.2 -7.17)"/><path class="cls-7" d="M451.24,440.12s0,0,0,0h0l.71.65h0v-.6a0,0,0,0,1,0,0h.21s0,0,0,0v1.15a0,0,0,0,1,0,0h0l-.71-.68h0v.64s0,0,0,0h-.21s0,0,0,0Z" transform="translate(-9.2 -7.17)"/><path class="cls-7" d="M453.31,440.36h-.25s0,0,0,0h0v-.18s0,0,0,0h.79s0,0,0,0v.18s0,0,0,0h-.25v.91s0,0,0,0h-.21s0,0,0,0Z" transform="translate(-9.2 -7.17)"/><path class="cls-7" d="M454.59,440.14a0,0,0,0,1,0,0h.73a0,0,0,0,1,0,0v.18s0,0,0,0h-.49v.21h.4s0,0,0,0v.19s0,0,0,0h-.4v.23h.49a0,0,0,0,1,0,0h0v.18s0,0,0,0h-.73s0,0,0,0h0Z" transform="translate(-9.2 -7.17)"/><path class="cls-7" d="M456.17,440.14s0,0,0,0h.53a.37.37,0,0,1,.13.72l.24.43s0,0,0,0h-.26l0,0-.23-.45h-.12v.44a0,0,0,0,1,0,0h-.21a0,0,0,0,1,0,0Zm.54.48a.15.15,0,0,0,.13-.14.13.13,0,0,0-.13-.13h-.26v.27Z" transform="translate(-9.2 -7.17)"/><path class="cls-7" d="M457.89,440.12a0,0,0,0,1,0,0H458l.71.65h0v-.6s0,0,0,0h.22s0,0,0,0v1.15a0,0,0,0,1,0,0h-.05l-.7-.68h0v.64a0,0,0,0,1,0,0h-.21s0,0,0,0Z" transform="translate(-9.2 -7.17)"/><path class="cls-7" d="M459.64,441.26l.55-1.16h.08l.56,1.16a0,0,0,0,1,0,0h-.21a.07.07,0,0,1-.07,0l-.06-.14H460l-.06.14a.06.06,0,0,1-.06,0h-.2s0,0,0,0Zm.73-.37-.14-.28h0l-.13.28Z" transform="translate(-9.2 -7.17)"/><path class="cls-7" d="M461.6,440.36h-.25a0,0,0,0,1,0,0h0v-.18a0,0,0,0,1,0,0h.79s0,0,0,0v.18s0,0,0,0h-.26v.91a0,0,0,0,1,0,0h-.21s0,0,0,0Z" transform="translate(-9.2 -7.17)"/><path class="cls-7" d="M462.88,440.14a0,0,0,0,1,0,0h.22s0,0,0,0v1.13a0,0,0,0,1,0,0h-.22a0,0,0,0,1,0,0Z" transform="translate(-9.2 -7.17)"/><path class="cls-7" d="M464.55,440.09a.62.62,0,0,1,.64.61.64.64,0,0,1-1.28,0h0a.62.62,0,0,1,.64-.61Zm0,1a.35.35,0,0,0,.35-.34.34.34,0,0,0-.35-.35.36.36,0,0,0-.36.35h0a.37.37,0,0,0,.36.34Z" transform="translate(-9.2 -7.17)"/><path class="cls-7" d="M465.93,440.12s0,0,0,0h0l.71.65h0v-.6a0,0,0,0,1,0,0H467s0,0,0,0v1.15a0,0,0,0,1,0,0h-.05l-.7-.68h0v.64a0,0,0,0,1,0,0H466s0,0,0,0Z" transform="translate(-9.2 -7.17)"/><path class="cls-7" d="M467.68,441.26l.56-1.16s0,0,0,0h.05l.55,1.16s0,0,0,0h-.22s0,0-.06,0l-.06-.14H468l-.07.14a.05.05,0,0,1-.06,0h-.2s0,0,0,0Zm.73-.37-.13-.28h0l-.13.28Z" transform="translate(-9.2 -7.17)"/><path class="cls-7" d="M469.55,440.14a0,0,0,0,1,0,0h.21s0,0,0,0v.91h.43a0,0,0,0,1,0,0h0v.19a0,0,0,0,1,0,0h-.67a0,0,0,0,1,0,0Z" transform="translate(-9.2 -7.17)"/><path class="cls-7" d="M450.87,447.86a1,1,0,0,1,.69.25.05.05,0,0,1,0,.08h0l-.22.23a0,0,0,0,1-.07,0,.62.62,0,0,0-.39-.14.57.57,0,1,0,0,1.13.68.68,0,0,0,.39-.13,0,0,0,0,1,.07,0l.22.23a0,0,0,0,1,0,.07,1,1,0,0,1-.7.27,1,1,0,1,1,0-2Z" transform="translate(-9.2 -7.17)"/><path class="cls-7" d="M452.43,447.94a.06.06,0,0,1,.06-.05h.34a.05.05,0,0,1,.06.05h0v.69h.82v-.7a0,0,0,0,1,.05-.05h.35a0,0,0,0,1,.05.05v1.85a.05.05,0,0,1-.05.05h-.34a.06.06,0,0,1-.06-.05V449h-.82v.74a.06.06,0,0,1-.06.05h-.34a.06.06,0,0,1-.06-.05Z" transform="translate(-9.2 -7.17)"/><path class="cls-7" d="M454.92,449.76l.91-1.87a.05.05,0,0,1,.05,0h0a0,0,0,0,1,.05,0l.91,1.87a.06.06,0,0,1,0,.07h-.34a.09.09,0,0,1-.1-.07l-.11-.22h-.78l-.11.22a.1.1,0,0,1-.1.07H455a0,0,0,0,1-.05,0Zm1.19-.59-.22-.46h0l-.23.46Z" transform="translate(-9.2 -7.17)"/><path class="cls-7" d="M457.61,447.94a.06.06,0,0,1,.06-.06H458a.06.06,0,0,1,.06.06v1.48h.68a.06.06,0,0,1,.06.06v.3a.06.06,0,0,1-.06.05h-1.08a.06.06,0,0,1-.06-.05Z" transform="translate(-9.2 -7.17)"/><path class="cls-7" d="M459.61,447.94a.06.06,0,0,1,.05-.06H460a.06.06,0,0,1,.05.06v1.48h.69a.06.06,0,0,1,.05.06v.3a0,0,0,0,1-.05.05h-1.09a0,0,0,0,1-.05-.05Z" transform="translate(-9.2 -7.17)"/><path class="cls-7" d="M461.6,447.94a.06.06,0,0,1,.06-.06h1.19a.06.06,0,0,1,.06.06h0v.3s0,.05-.06.05h-.8v.34h.66s.06,0,.06.06v.3a.06.06,0,0,1-.06.05h-.66v.38h.8s.06,0,.06.05v.31a.06.06,0,0,1-.06.05h-1.19a.06.06,0,0,1-.06-.05Z" transform="translate(-9.2 -7.17)"/><path class="cls-7" d="M463.82,447.91a0,0,0,0,1,.05-.05h.07l1.16,1.07h0v-1a0,0,0,0,1,0-.05h.35a0,0,0,0,1,.05.05v1.87a0,0,0,0,1-.05.05h-.09l-1.14-1.11h0v1a0,0,0,0,1,0,.05h-.35a0,0,0,0,1-.05-.05Z" transform="translate(-9.2 -7.17)"/><path class="cls-7" d="M467.46,447.86a1.1,1.1,0,0,1,.7.26,0,0,0,0,1,0,.07h0l-.22.23a.06.06,0,0,1-.08,0,.5.5,0,0,0-.37-.13.56.56,0,1,0,0,1.11.73.73,0,0,0,.25,0v-.17h-.18a0,0,0,0,1-.05,0h0v-.27s0-.05.05-.05h.59a0,0,0,0,1,.05.05v.75a.05.05,0,0,1,0,0,1.51,1.51,0,0,1-.72.18,1,1,0,1,1-.07-2Z" transform="translate(-9.2 -7.17)"/><path class="cls-7" d="M469.11,447.94a.06.06,0,0,1,.06-.06h1.2a.06.06,0,0,1,.05.06h0v.3a0,0,0,0,1-.05.05h-.8v.34h.66a.06.06,0,0,1,0,.06v.3a0,0,0,0,1,0,.05h-.66v.38h.8a0,0,0,0,1,.05.05v.31a0,0,0,0,1-.05.05h-1.2a.06.06,0,0,1-.06-.05Z" transform="translate(-9.2 -7.17)"/><path class="cls-8" d="M457.37,437.06s0,0,0,0h0l.79.74h0v-.68a0,0,0,0,1,0,0h.24a0,0,0,0,1,0,0v1.29a0,0,0,0,1,0,0h-.06l-.79-.77h0v.72s0,0,0,0h-.24s0,0,0,0Z" transform="translate(-9.2 -7.17)"/><path class="cls-8" d="M458.93,438.35l.63-1.3,0,0h0s0,0,0,0l.63,1.3a0,0,0,0,1,0,0H460s0,0-.07,0l-.07-.15h-.55l-.07.15a.08.08,0,0,1-.07,0H459s0,0,0,0Zm.83-.42-.16-.32h0l-.15.32Z" transform="translate(-9.2 -7.17)"/><path class="cls-8" d="M460.56,438.21l.09-.15a.05.05,0,0,1,.07,0,.57.57,0,0,0,.28.11.12.12,0,0,0,.14-.11h0c0-.08-.07-.14-.21-.2s-.38-.19-.38-.42A.41.41,0,0,1,461,437a.86.86,0,0,1,.43.15s0,0,0,.06l-.1.15a.07.07,0,0,1-.07,0,.57.57,0,0,0-.29-.11.1.1,0,0,0-.12.09h0c0,.08.06.13.22.19s.39.18.39.44a.44.44,0,0,1-.47.4.68.68,0,0,1-.45-.15S460.54,438.24,460.56,438.21Z" transform="translate(-9.2 -7.17)"/><path class="cls-8" d="M461.75,438.35l.63-1.3,0,0h0l0,0,.62,1.3a0,0,0,0,1,0,0h-.24s-.06,0-.07,0l-.08-.15h-.54l-.07.15a.08.08,0,0,1-.07,0h-.23s0,0,0,0Zm.82-.41-.15-.33h0l-.15.33Z" transform="translate(-9.2 -7.17)"/><path class="cls-7" d="M460.18,454.6a10.49,10.49,0,0,1-8-3.68.12.12,0,0,1,0-.17.13.13,0,0,1,.18,0,10.32,10.32,0,0,0,14.14,1.42,8.21,8.21,0,0,0,.77-.67,8.86,8.86,0,0,0,.73-.77.12.12,0,0,1,.19.15h0a9.22,9.22,0,0,1-.74.79A10.46,10.46,0,0,1,460.18,454.6Z" transform="translate(-9.2 -7.17)"/><path class="cls-7" d="M452,439l-.07,0a.12.12,0,0,1,0-.17h0a10.57,10.57,0,0,1,14.31-2.19.12.12,0,0,1,0,.17.12.12,0,0,1-.17,0,10.31,10.31,0,0,0-14,2.13A.12.12,0,0,1,452,439Z" transform="translate(-9.2 -7.17)"/></g></g><path d="M377,533V518h-5v-5h-5V498h10v15h10V498h10v15h-5v5h-5v15Z" transform="translate(-9.2 -7.17)"/><path d="M407,533v-5h-5V503h5v-5h25v5h5v25h-5v5Zm5-5h15V503H412Z" transform="translate(-9.2 -7.17)"/><path d="M447,533v-5h-5V498h10v30h15V498h10v30h-5v5Z" transform="translate(-9.2 -7.17)"/><line class="cls-9" x1="349.2" y1="323.05" x2="395.7" y2="369.55"/><line class="cls-9" x1="395.65" y1="322.73" x2="349.15" y2="369.23"/><line class="cls-9" x1="423.75" y1="323.38" x2="470.25" y2="369.88"/><line class="cls-9" x1="470.2" y1="323.05" x2="423.7" y2="369.55"/></svg>