<svg xmlns="http://www.w3.org/2000/svg" viewBox="0 0 827.07 575.3"><defs><style>.cls-1{fill:#cbcbcb;stroke:#fff;stroke-width:8px;}.cls-1,.cls-10,.cls-5,.cls-6{stroke-miterlimit:10;}.cls-2{fill:#8b8b8b;}.cls-3,.cls-4,.cls-6{fill:#fff;}.cls-3,.cls-5,.cls-6{stroke:#000;}.cls-3{stroke-linecap:round;stroke-linejoin:round;stroke-width:3px;}.cls-7{fill:#231f20;}.cls-8{fill:#ee2c3e;}.cls-9{font-size:40px;font-family:PressStart2P-Regular, "Press Start 2P";}.cls-10{fill:none;stroke:red;stroke-width:10px;}</style></defs><g id="Layer_2" data-name="Layer 2"><g id="Layer_1-2" data-name="Layer 1"><circle class="cls-1" cx="177" cy="177" r="173"/><rect class="cls-2" x="103.03" y="159.58" width="143.23" height="44.94" rx="22.47"/><path class="cls-3" d="M88.77,251.12c-3.92-51,37.68-94.68,88-94.66,50,0,91.39,43.1,88,93.77Z"/><ellipse class="cls-2" cx="175.12" cy="161.15" rx="56.11" ry="43.5"/><circle class="cls-4" cx="174.52" cy="120.53" r="74.28"/><path d="M174.52,48.75a71.78,71.78,0,1,1-71.78,71.78,71.86,71.86,0,0,1,71.78-71.78m0-5a76.78,76.78,0,1,0,76.78,76.78,76.79,76.79,0,0,0-76.78-76.78Z"/><path class="cls-5" d="M108.43,94.34c-8.87,27.45-2.59,57,16.59,76.42,22.25,22.51,51.83,21.11,55,20.91,4.82-.31,28.06-2.29,45.9-20.91,18.94-19.78,24.17-50.37,13.94-78.58a24.2,24.2,0,0,0-5.53-6.73c-13.13-11-29.14.85-59.12,1.44-30.79.61-47.22-11.26-61,.48A26.66,26.66,0,0,0,108.43,94.34Z"/><circle class="cls-6" cx="127.06" cy="105.27" r="8.05"/><circle class="cls-6" cx="133.07" cy="122.1" r="3.24"/><path class="cls-6" d="M133.19,172.92s26.12,21.73,59.59,13.7c17.43-4.18,42.06-23.15,46.63-44.22,0,0-16.87,30.59-67.29,34.61C159.16,178,133.19,172.92,133.19,172.92Z"/><g id="Layer_2-2" data-name="Layer 2"><g id="Layer_1-2-2" data-name="Layer 1-2"><path class="cls-7" d="M210.72,214h-.84v5.22h.49v-2.48h.35a1,1,0,0,0,.7-.22,1,1,0,0,0,.23-.72V215a1,1,0,0,0-.23-.72A1,1,0,0,0,210.72,214Zm.43.95v.86a.49.49,0,0,1-.11.35.41.41,0,0,1-.32.11h-.35v-1.78h.35a.44.44,0,0,1,.33.11.52.52,0,0,1,.1.34Z"/><path class="cls-7" d="M227.92,217.21a.81.81,0,0,0-.19-.34,4.22,4.22,0,0,0-.41-.43,4,4,0,0,1-.4-.43.42.42,0,0,1-.1-.17.93.93,0,0,1,0-.24v-.76c0-.25.11-.38.34-.38a.28.28,0,0,1,.27.13.52.52,0,0,1,.07.32v.88H228v-.95a1,1,0,0,0-.19-.65.8.8,0,0,0-.63-.21c-.55,0-.83.28-.83.86v.78a2.48,2.48,0,0,0,0,.38.61.61,0,0,0,.15.3l.23.25.21.21.2.2a1.9,1.9,0,0,1,.19.21.44.44,0,0,1,.08.11.53.53,0,0,1,.06.1.68.68,0,0,1,0,.14s0,.12,0,.19h0v.74a.47.47,0,0,1-.08.29.34.34,0,0,1-.27.1.28.28,0,0,1-.27-.13.62.62,0,0,1-.08-.33v-1h-.47v1.1a1,1,0,0,0,.19.65.87.87,0,0,0,.64.22.84.84,0,0,0,.64-.22,1,1,0,0,0,.19-.65v-.75A2,2,0,0,0,227.92,217.21Z"/><path class="cls-7" d="M209,216.87a4.22,4.22,0,0,0-.41-.43,4,4,0,0,1-.4-.43.59.59,0,0,1-.1-.17.93.93,0,0,1,0-.24v-.76c0-.25.11-.38.34-.38a.28.28,0,0,1,.27.13.52.52,0,0,1,.07.32v.88h.47v-.95a1,1,0,0,0-.19-.65.8.8,0,0,0-.63-.21c-.55,0-.83.28-.83.86v.78c0,.12,0,.25,0,.38a.61.61,0,0,0,.15.3l.23.25.21.21.2.2a1.9,1.9,0,0,1,.19.21.44.44,0,0,1,.08.11.47.47,0,0,1,0,.1.35.35,0,0,1,0,.14s0,.12,0,.19v.74a.47.47,0,0,1-.08.29.34.34,0,0,1-.27.1.28.28,0,0,1-.27-.13.61.61,0,0,1-.08-.32v-1h-.47v1.1a.92.92,0,0,0,.2.65.83.83,0,0,0,.63.22.84.84,0,0,0,.64-.22,1,1,0,0,0,.2-.65v-.75a2.61,2.61,0,0,0-.05-.48A.81.81,0,0,0,209,216.87Z"/><path class="cls-7" d="M225,214h-.84v5.22h.5v-2.48H225a1,1,0,0,0,.7-.22,1,1,0,0,0,.22-.72V215A.81.81,0,0,0,225,214Zm.43.95v.86a.48.48,0,0,1-.1.35.44.44,0,0,1-.33.11h-.34v-1.78H225a.44.44,0,0,1,.33.11.47.47,0,0,1,.1.34Z"/><path class="cls-7" d="M222.68,214h-.84v5.22h.5v-2.48h.35a1,1,0,0,0,.7-.22,1,1,0,0,0,.22-.72V215a.81.81,0,0,0-.93-.95Zm.43,1.81a.49.49,0,0,1-.11.35.41.41,0,0,1-.32.11h-.35v-1.78h.34a.45.45,0,0,1,.34.11.52.52,0,0,1,.1.34h0Z"/><path class="cls-7" d="M220.05,214l-.74,5.22h.48l.12-.88h.81l.12.88h.5l-.7-5.22Zm-.08,3.9c.07-.45.13-.89.18-1.33l.18-1.34c0,.44.11.89.16,1.34s.12.89.17,1.33Z"/><path class="cls-7" d="M212.5,214l-.74,5.22h.48l.12-.88h.81l.11.88h.5l-.69-5.22Zm.61,3.9h-.69l.18-1.33.18-1.34c.05.44.1.89.16,1.34S213.06,217.49,213.11,217.93Z"/><polygon class="cls-7" points="216.91 216.83 217.57 216.83 217.57 216.35 216.91 216.35 216.91 214.52 217.85 214.52 217.85 214.03 216.42 214.03 216.42 219.25 216.42 219.25 217.88 219.25 217.88 218.77 216.91 218.77 216.91 216.83"/><path class="cls-7" d="M215,214c-.57,0-.86.3-.86.9v3.54c0,.59.29.89.86.88a.75.75,0,0,0,.6-.21,1,1,0,0,0,.19-.67v-1.08h-.45v1.08a.48.48,0,0,1-.08.31.28.28,0,0,1-.26.1c-.24,0-.36-.13-.36-.41v-3.55c0-.27.12-.41.36-.41a.31.31,0,0,1,.26.1.5.5,0,0,1,.08.31v.92h.45v-.93C215.83,214.27,215.57,214,215,214Z"/><path class="cls-7" d="M224.77,211.33a1.57,1.57,0,1,1,1.63-1.57A1.6,1.6,0,0,1,224.77,211.33Zm0-2.9a1.33,1.33,0,1,0,1.38,1.33A1.36,1.36,0,0,0,224.77,208.43Z"/><path class="cls-7" d="M225.83,208.86a.13.13,0,0,1-.09-.21l1.41-1.35a.12.12,0,1,1,.17.17l-1.4,1.35A.1.1,0,0,1,225.83,208.86Z"/><path class="cls-7" d="M224.62,208.44a.12.12,0,0,1-.12-.12.11.11,0,0,1,0-.08l1.25-1.51a.14.14,0,0,1,.18,0,.13.13,0,0,1,0,.17l-1.26,1.51A.12.12,0,0,1,224.62,208.44Z"/><path class="cls-7" d="M223.82,208.76h0a.13.13,0,0,1-.07-.16h0l1.56-3.27a.12.12,0,0,1,.17-.06h0a.12.12,0,0,1,.06.16l-1.57,3.27A.12.12,0,0,1,223.82,208.76Z"/><path class="cls-7" d="M226.27,210a.13.13,0,0,1-.13-.13.12.12,0,0,1,.05-.09l1.57-1.21a.13.13,0,0,1,.17,0,.11.11,0,0,1,0,.16L226.35,210A.13.13,0,0,1,226.27,210Z"/><path class="cls-7" d="M225.94,210.8a.13.13,0,0,1-.13-.12.12.12,0,0,1,.07-.11l3.4-1.51a.12.12,0,0,1,.15.09.11.11,0,0,1-.05.12L226,210.78Z"/><path class="cls-7" d="M207.73,212.16a0,0,0,0,1,0,0H208a0,0,0,0,1,0,0v1.13s0,0,0,0h-.22a0,0,0,0,1,0,0Z"/><path class="cls-7" d="M208.84,212.14s0,0,0,0h0l.71.66h0v-.61s0,0,0,0h.21a0,0,0,0,1,0,0v1.15a0,0,0,0,1,0,0h0l-.7-.69h0v.65a0,0,0,0,1,0,0h-.21a0,0,0,0,1,0,0Z"/><path class="cls-7" d="M210.91,212.38h-.25a0,0,0,0,1,0,0h0v-.19a0,0,0,0,1,0,0h.79a0,0,0,0,1,0,0v.19a0,0,0,0,1,0,0h-.25v.91a0,0,0,0,1,0,0H211a0,0,0,0,1,0,0Z"/><path class="cls-7" d="M212.19,212.16s0,0,0,0H213s0,0,0,0v.19a0,0,0,0,1,0,0h-.49v.21h.41a0,0,0,0,1,0,0v.18a0,0,0,0,1,0,0h-.41v.23H213s0,0,0,0h0v.19a0,0,0,0,1,0,0h-.73a0,0,0,0,1,0,0h0Z"/><path class="cls-7" d="M213.77,212.16a0,0,0,0,1,0,0h.53a.38.38,0,0,1,.4.35.39.39,0,0,1-.27.37l.24.42s0,0,0,0h-.28l-.24-.46h-.12v.44s0,0,0,0h-.21a0,0,0,0,1,0,0Zm.54.48a.13.13,0,0,0,.13-.14.13.13,0,0,0-.13-.13h-.26v.27Z"/><path class="cls-7" d="M215.49,212.14a0,0,0,0,1,0,0h0l.71.66h0v-.61a0,0,0,0,1,0,0h.22a0,0,0,0,1,0,0v1.15a0,0,0,0,1,0,0h-.05l-.7-.69h0v.65s0,0,0,0h-.21a0,0,0,0,1,0,0Z"/><path class="cls-7" d="M217.24,213.28l.55-1.15,0,0h0l0,0,.56,1.15s0,0,0,0a0,0,0,0,1,0,0h-.2s0,0-.07-.05l-.06-.13h-.48l-.06.13a.07.07,0,0,1-.06.05h-.2a0,0,0,0,1,0,0S217.23,213.29,217.24,213.28Zm.73-.36-.14-.29h0l-.13.28Z"/><path class="cls-7" d="M219.2,212.38H219a0,0,0,0,1,0,0h0v-.19s0,0,0,0h.79a0,0,0,0,1,0,0v.19a0,0,0,0,1,0,0h-.26v.91s0,0,0,0h-.21a0,0,0,0,1,0,0Z"/><path class="cls-7" d="M220.48,212.16s0,0,0,0h.21a0,0,0,0,1,0,0v1.13s0,0,0,0h-.21a0,0,0,0,1,0,0Z"/><path class="cls-7" d="M222.15,212.11a.63.63,0,0,1,.64.62.64.64,0,0,1-1.28,0h0a.63.63,0,0,1,.64-.62Zm0,1a.34.34,0,1,0-.35-.34h0a.35.35,0,0,0,.35.34Z"/><path class="cls-7" d="M223.54,212.14a0,0,0,0,1,0,0h0l.71.66h0v-.61s0,0,0,0h.21a0,0,0,0,1,0,0v1.15a0,0,0,0,1,0,0h0l-.7-.69h0v.65a0,0,0,0,1,0,0h-.21a0,0,0,0,1,0,0Z"/><path class="cls-7" d="M225.28,213.28l.56-1.15,0,0h0l0,0,.55,1.15s0,0,0,0h-.22s0,0-.06-.05l-.06-.13h-.48l-.07.13a.06.06,0,0,1-.06.05h-.2a0,0,0,0,1,0,0Zm.73-.36-.13-.29h0l-.13.29Z"/><path class="cls-7" d="M227.15,212.16s0,0,0,0h.21a0,0,0,0,1,0,0v.92h.43s0,0,0,0h0v.18s0,0,0,0h-.67s0,0,0,0Z"/><path class="cls-7" d="M208.47,219.88a1,1,0,0,1,.7.26,0,0,0,0,1,0,.07h0l-.23.22a0,0,0,0,1-.07,0,.6.6,0,0,0-.39-.14.57.57,0,1,0,0,1.14.62.62,0,0,0,.39-.14,0,0,0,0,1,.07,0l.22.23a0,0,0,0,1,0,.08,1,1,0,1,1-.7-1.74Z"/><path class="cls-7" d="M210,220a.06.06,0,0,1,.06-.05h.34a.06.06,0,0,1,.06.05h0v.7h.82V220a.06.06,0,0,1,.06-.05h.34a0,0,0,0,1,0,.05v1.84a0,0,0,0,1,0,0h-.34a.06.06,0,0,1-.06,0v-.73h-.82v.73a.06.06,0,0,1-.06,0h-.34a.06.06,0,0,1-.06,0Z"/><path class="cls-7" d="M212.52,221.78l.91-1.87a.05.05,0,0,1,0,0h0s0,0,0,0l.91,1.87a.06.06,0,0,1,0,.07h-.35a.1.1,0,0,1-.1-.07l-.11-.22h-.78l-.11.22a.1.1,0,0,1-.1.07h-.32a0,0,0,0,1,0-.05Zm1.19-.59-.22-.46h0l-.22.46Z"/><path class="cls-7" d="M215.21,220a.06.06,0,0,1,.06-.05h.34a.06.06,0,0,1,.06.05v1.49h.69a0,0,0,0,1,0,.05v.3a.06.06,0,0,1,0,.06h-1.09a.06.06,0,0,1-.06-.06Z"/><path class="cls-7" d="M217.21,220a0,0,0,0,1,0-.05h.35a0,0,0,0,1,0,.05v1.49h.69a.06.06,0,0,1,.06.05v.3a.06.06,0,0,1-.06.06h-1.08a.06.06,0,0,1-.06-.06Z"/><path class="cls-7" d="M219.21,220a0,0,0,0,1,0-.05h1.2a0,0,0,0,1,0,.05h0v.3a.06.06,0,0,1,0,.06h-.8v.34h.65a.06.06,0,0,1,.06.05V221a.06.06,0,0,1-.06,0h-.65v.37h.8a.06.06,0,0,1,0,.06v.3a0,0,0,0,1,0,0h-1.2a0,0,0,0,1,0,0Z"/><path class="cls-7" d="M221.42,219.93a0,0,0,0,1,.05-.05h.07L222.7,221h0v-1a0,0,0,0,1,.05-.05h.35a0,0,0,0,1,.05.05v1.88a.05.05,0,0,1-.05,0h0l0,0-1.14-1.1h0v1a.06.06,0,0,1-.05.06h-.35a.06.06,0,0,1-.05-.06Z"/><path class="cls-7" d="M225.06,219.88a1.21,1.21,0,0,1,.71.26,0,0,0,0,1,0,.07h0l-.23.23a0,0,0,0,1-.07,0,.53.53,0,0,0-.38-.13.57.57,0,0,0-.56.58.59.59,0,0,0,.56.54.74.74,0,0,0,.25-.05v-.16h-.18a0,0,0,0,1,0,0h0v-.28a.05.05,0,0,1,0-.05h.59a.05.05,0,0,1,.05.05v.75a.08.08,0,0,1,0,0,1.51,1.51,0,0,1-.72.18,1,1,0,0,1-1.07-1,1,1,0,0,1,1-1Z"/><path class="cls-7" d="M226.71,220a.06.06,0,0,1,.06-.05H228a.06.06,0,0,1,.06.05h0v.3a.06.06,0,0,1-.06.06h-.8v.34h.66a0,0,0,0,1,0,.05V221a.05.05,0,0,1,0,0h-.66v.37h.8a.06.06,0,0,1,.06.06v.3a.06.06,0,0,1-.06,0h-1.2a.06.06,0,0,1-.06,0Z"/><path class="cls-8" d="M215,209.09a0,0,0,0,1,0,0h.05l.79.74h0v-.68a0,0,0,0,1,0,0h.24a0,0,0,0,1,0,0v1.3s0,0,0,0h-.06l-.79-.76h0v.71s0,0,0,0H215a0,0,0,0,1,0,0Z"/><path class="cls-8" d="M216.53,210.37l.63-1.29a0,0,0,0,1,0,0h0s0,0,0,0l.62,1.29s0,0,0,0h-.24s-.05,0-.07,0l-.07-.15h-.55l-.07.16a.08.08,0,0,1-.07,0h-.22a0,0,0,0,1,0,0Zm.83-.41-.15-.33h0l-.16.33Z"/><path class="cls-8" d="M218.16,210.24l.09-.16a0,0,0,0,1,.07,0,.56.56,0,0,0,.28.1.12.12,0,0,0,.14-.1h0c0-.08-.07-.14-.2-.19s-.39-.2-.39-.43.15-.38.46-.38a.76.76,0,0,1,.43.14,0,0,0,0,1,0,.06l-.1.15s0,0-.07,0a.69.69,0,0,0-.29-.12.1.1,0,0,0-.12.09h0c0,.07.06.12.22.19s.4.17.4.43a.44.44,0,0,1-.48.4.63.63,0,0,1-.45-.15S218.14,210.27,218.16,210.24Z"/><path class="cls-8" d="M219.35,210.37l.63-1.29,0,0h0s0,0,0,0l.62,1.29s0,0,0,0h-.24s-.05,0-.07,0l-.08-.15h-.54l-.07.16a.08.08,0,0,1-.07,0h-.22s0,0,0,0Zm.82-.41-.15-.32h0l-.15.32Z"/><path class="cls-7" d="M217.78,226.63a10.47,10.47,0,0,1-8-3.69.12.12,0,0,1,0-.17.14.14,0,0,1,.18,0,10.31,10.31,0,0,0,14.14,1.43,10,10,0,0,0,.77-.67,10.57,10.57,0,0,0,.73-.77.12.12,0,0,1,.19.15h0c-.23.27-.48.54-.74.79A10.5,10.5,0,0,1,217.78,226.63Z"/><path class="cls-7" d="M209.58,211a.1.1,0,0,1-.07,0,.12.12,0,0,1,0-.17h0a10.56,10.56,0,0,1,14.31-2.18.12.12,0,0,1,0,.17.14.14,0,0,1-.18,0,10.3,10.3,0,0,0-14,2.14A.12.12,0,0,1,209.58,211Z"/></g></g><text class="cls-9" transform="translate(97.64 302.05)">Dana</text><circle class="cls-1" cx="650.07" cy="182.24" r="173"/><rect class="cls-2" x="576.59" y="164.32" width="143.23" height="44.94" rx="22.47"/><path class="cls-3" d="M562.34,255.85c-3.93-51,37.67-94.67,88-94.65,50,0,91.39,43.09,88,93.76Z"/><ellipse class="cls-2" cx="648.69" cy="165.88" rx="56.11" ry="43.5"/><circle class="cls-4" cx="648.09" cy="125.27" r="74.28" transform="translate(420.63 744.92) rotate(-80.78)"/><path d="M648.09,53.49a71.78,71.78,0,1,1-71.78,71.78,71.86,71.86,0,0,1,71.78-71.78m0-5a76.78,76.78,0,1,0,76.78,76.78,76.77,76.77,0,0,0-76.78-76.78Z"/><path class="cls-5" d="M582,99.07c-8.88,27.45-2.59,57,16.58,76.42,22.26,22.51,51.84,21.11,55,20.91,4.83-.31,28.07-2.29,45.9-20.91,18.94-19.77,24.17-50.37,13.94-78.58a24.42,24.42,0,0,0-5.52-6.73c-13.14-11-29.14.85-59.12,1.44-30.79.61-47.23-11.26-61,.48A26.82,26.82,0,0,0,582,99.07Z"/><circle class="cls-6" cx="600.62" cy="110.01" r="8.05"/><circle class="cls-6" cx="606.63" cy="126.83" r="3.24"/><path class="cls-6" d="M606.75,177.66s26.13,21.72,59.6,13.69c17.43-4.18,42.06-23.15,46.62-44.21,0,0-16.87,30.58-67.29,34.6C632.72,182.78,606.75,177.66,606.75,177.66Z"/><g id="Layer_2-3" data-name="Layer 2"><g id="Layer_1-2-3" data-name="Layer 1-2"><path class="cls-7" d="M684.28,218.77h-.84V224h.5v-2.47h.35a.81.81,0,0,0,.92-.94v-.86A.94.94,0,0,0,685,219,.91.91,0,0,0,684.28,218.77Zm.44.94v.87a.47.47,0,0,1-.11.34.42.42,0,0,1-.32.11h-.35v-1.77h.34a.42.42,0,0,1,.34.1.54.54,0,0,1,.09.35Z"/><path class="cls-7" d="M701.48,221.94a.93.93,0,0,0-.18-.34,5.66,5.66,0,0,0-.42-.43,3.28,3.28,0,0,1-.4-.43.51.51,0,0,1-.09-.16,1,1,0,0,1,0-.24v-.77c0-.25.12-.37.35-.37a.28.28,0,0,1,.27.12.6.6,0,0,1,.07.32v.88h.46v-1a1,1,0,0,0-.18-.65.8.8,0,0,0-.63-.21.75.75,0,0,0-.84.86v.78a2.43,2.43,0,0,0,0,.38.57.57,0,0,0,.15.3c.07.09.15.17.22.25l.21.21.21.2.19.21.08.11a.37.37,0,0,1,0,.11.61.61,0,0,1,0,.13v.2h0v.74a.44.44,0,0,1-.08.29.33.33,0,0,1-.27.09.26.26,0,0,1-.27-.12.64.64,0,0,1-.07-.33v-1.05h-.48v1.11a1,1,0,0,0,.2.64,1,1,0,0,0,1.28,0,.93.93,0,0,0,.19-.64v-.75A2,2,0,0,0,701.48,221.94Z"/><path class="cls-7" d="M682.6,221.6a5.66,5.66,0,0,0-.42-.43,3.28,3.28,0,0,1-.4-.43.51.51,0,0,1-.09-.16.65.65,0,0,1,0-.24v-.77c0-.25.11-.37.34-.37a.28.28,0,0,1,.27.12.6.6,0,0,1,.07.32v.88h.46v-1a1,1,0,0,0-.18-.65.8.8,0,0,0-.63-.21c-.56,0-.83.29-.83.86v.78a1.62,1.62,0,0,0,0,.38.57.57,0,0,0,.15.3c.07.09.15.17.22.25l.21.21.21.2.19.21.08.11a.54.54,0,0,1,0,.11.61.61,0,0,1,0,.13v.94a.44.44,0,0,1-.08.29.34.34,0,0,1-.27.1.29.29,0,0,1-.27-.13.64.64,0,0,1-.07-.33v-1.05h-.47v1.11a.92.92,0,0,0,.19.64.83.83,0,0,0,.64.22.8.8,0,0,0,.64-.22.93.93,0,0,0,.19-.64v-.75a2,2,0,0,0,0-.49A.88.88,0,0,0,682.6,221.6Z"/><path class="cls-7" d="M698.53,218.77h-.85V224h.5v-2.47h.36a1,1,0,0,0,.7-.23.94.94,0,0,0,.22-.71v-.86a1,1,0,0,0-.23-.71A.91.91,0,0,0,698.53,218.77Zm.43.94v.87a.47.47,0,0,1-.11.34.41.41,0,0,1-.32.11h-.35v-1.77h.34a.41.41,0,0,1,.34.1.55.55,0,0,1,.1.35Z"/><path class="cls-7" d="M696.25,218.77h-.84V224h.49v-2.47h.35a.82.82,0,0,0,.93-.94v-.86A1,1,0,0,0,697,219,.9.9,0,0,0,696.25,218.77Zm.43,1.81a.47.47,0,0,1-.11.34.42.42,0,0,1-.32.11h-.35v-1.77h.34a.4.4,0,0,1,.33.1.5.5,0,0,1,.1.35h0Z"/><path class="cls-7" d="M693.62,218.77l-.75,5.21h.49l.12-.87h.81l.11.87h.5l-.69-5.21Zm-.08,3.89.18-1.33.18-1.34c.05.45.1.9.16,1.34s.11.89.17,1.33Z"/><path class="cls-7" d="M686.07,218.77l-.75,5.21h.49l.12-.87h.8l.12.87h.5l-.7-5.21Zm.61,3.89H686l.18-1.33c.06-.44.12-.89.17-1.34.06.45.11.9.17,1.34S686.62,222.22,686.68,222.66Z"/><polygon class="cls-7" points="690.48 221.57 691.14 221.57 691.14 221.08 690.48 221.08 690.48 219.26 691.41 219.26 691.41 218.77 689.98 218.77 689.98 223.98 689.98 223.98 691.45 223.98 691.45 223.51 690.48 223.51 690.48 221.57"/><path class="cls-7" d="M688.61,218.71c-.57,0-.86.3-.86.9v3.55a.77.77,0,0,0,.86.88.74.74,0,0,0,.6-.22,1,1,0,0,0,.19-.67v-1.08h-.46v1.09a.48.48,0,0,1-.07.31.32.32,0,0,1-.26.1c-.24,0-.36-.14-.36-.41V219.6c0-.27.12-.4.36-.4a.28.28,0,0,1,.26.1.46.46,0,0,1,.07.3v.92h.46v-.92C689.4,219,689.13,218.71,688.61,218.71Z"/><path class="cls-7" d="M698.33,216.07A1.57,1.57,0,1,1,700,214.5,1.6,1.6,0,0,1,698.33,216.07Zm0-2.9a1.33,1.33,0,1,0,1.38,1.33A1.35,1.35,0,0,0,698.33,213.17Z"/><path class="cls-7" d="M699.4,213.59a.12.12,0,0,1-.13-.12.2.2,0,0,1,0-.08l1.4-1.35a.13.13,0,0,1,.18,0,.11.11,0,0,1,0,.17l-1.4,1.35A.16.16,0,0,1,699.4,213.59Z"/><path class="cls-7" d="M698.19,213.17a.12.12,0,0,1-.13-.12.11.11,0,0,1,0-.07l1.26-1.51a.12.12,0,0,1,.17,0,.11.11,0,0,1,0,.17l-1.25,1.51A.13.13,0,0,1,698.19,213.17Z"/><path class="cls-7" d="M697.38,213.49h0a.12.12,0,0,1-.06-.16h0l1.57-3.27A.12.12,0,0,1,699,210h0a.13.13,0,0,1,.07.16l-1.57,3.27A.12.12,0,0,1,697.38,213.49Z"/><path class="cls-7" d="M699.83,214.76a.12.12,0,0,1-.12-.12.13.13,0,0,1,0-.09l1.57-1.21a.13.13,0,0,1,.18,0,.14.14,0,0,1,0,.16l-1.57,1.2A.11.11,0,0,1,699.83,214.76Z"/><path class="cls-7" d="M699.5,215.53a.12.12,0,0,1-.12-.12.14.14,0,0,1,.07-.11l3.4-1.51a.14.14,0,0,1,.15.09.13.13,0,0,1,0,.13l-3.4,1.51Z"/><path class="cls-7" d="M681.29,216.89a0,0,0,0,1,0,0h.22l0,0V218a0,0,0,0,1,0,0h-.23a0,0,0,0,1,0,0Z"/><path class="cls-7" d="M682.41,216.88a0,0,0,0,1,0,0h0l.71.66h0v-.61a0,0,0,0,1,0,0h.22l0,0v1.16l0,0h-.06l-.7-.68h0V218a0,0,0,0,1,0,0h-.21s0,0,0,0Z"/><path class="cls-7" d="M684.48,217.11h-.25s0,0,0,0h0v-.19l0,0h.8l0,0v.19a0,0,0,0,1,0,0h-.25V218s0,0,0,0h-.22a0,0,0,0,1,0,0Z"/><path class="cls-7" d="M685.76,216.89a0,0,0,0,1,0,0h.74a0,0,0,0,1,0,0v.19a0,0,0,0,1,0,0H686v.22h.4s0,0,0,0v.19s0,0,0,0H686v.23h.49a0,0,0,0,1,0,0h0V218a0,0,0,0,1,0,0h-.74a0,0,0,0,1,0,0h0Z"/><path class="cls-7" d="M687.33,216.89a0,0,0,0,1,0,0h.53a.37.37,0,0,1,.12.72l.25.43s0,0,0,0H688l0,0-.23-.45h-.13V218s0,0,0,0h-.21a0,0,0,0,1,0,0Zm.55.48a.13.13,0,0,0,0-.26h-.27v.26Z"/><path class="cls-7" d="M689.06,216.88s0,0,0,0h0l.71.66h0v-.61a0,0,0,0,1,0,0h.22a0,0,0,0,1,0,0v1.16a0,0,0,0,1,0,0h-.05l-.71-.68h0V218a0,0,0,0,1,0,0h-.21s0,0,0,0Z"/><path class="cls-7" d="M690.8,218l.56-1.16s0,0,0,0h0l0,0L692,218s0,0,0,0h-.22s0,0-.06,0l-.06-.14h-.48l-.06.14a.07.07,0,0,1-.07,0h-.2a0,0,0,0,1,0,0Zm.73-.37-.13-.28h0l-.13.28Z"/><path class="cls-7" d="M692.77,217.11h-.25s0,0,0,0h0v-.19l0,0h.79a0,0,0,0,1,0,0v.19s0,0,0,0h-.25V218a0,0,0,0,1,0,0h-.22a0,0,0,0,1,0,0Z"/><path class="cls-7" d="M694.05,216.89a0,0,0,0,1,0,0h.22l0,0V218a0,0,0,0,1,0,0h-.22a0,0,0,0,1,0,0Z"/><path class="cls-7" d="M695.72,216.84a.62.62,0,1,1-.64.62h0a.63.63,0,0,1,.63-.62Zm0,1a.35.35,0,0,0,.35-.34.35.35,0,0,0-.35-.35.35.35,0,0,0-.36.34h0a.35.35,0,0,0,.36.33Z"/><path class="cls-7" d="M697.1,216.88a0,0,0,0,1,0,0h0l.71.66h0v-.61a0,0,0,0,1,0,0h.22a0,0,0,0,1,0,0v1.16l0,0h-.06l-.7-.68h0V218a0,0,0,0,1,0,0h-.21s0,0,0,0Z"/><path class="cls-7" d="M698.85,218l.56-1.16s0,0,0,0h0s0,0,0,0L700,218s0,0,0,0h-.22a.05.05,0,0,1-.06,0l-.07-.14h-.48l-.06.14a.06.06,0,0,1-.06,0h-.2s0,0,0,0A0,0,0,0,1,698.85,218Zm.73-.37-.13-.28h0l-.13.28Z"/><path class="cls-7" d="M700.72,216.89a0,0,0,0,1,0,0H701a0,0,0,0,1,0,0v.92h.43a0,0,0,0,1,0,0h0V218a0,0,0,0,1,0,0h-.67s0,0,0,0Z"/><path class="cls-7" d="M682,224.61a1,1,0,0,1,.7.26.06.06,0,0,1,0,.08h0l-.22.23a0,0,0,0,1-.07,0,.63.63,0,0,0-.39-.15.58.58,0,0,0-.59.57.57.57,0,0,0,.59.57.62.62,0,0,0,.38-.13.06.06,0,0,1,.08,0l.22.23a0,0,0,0,1,0,.07,1,1,0,0,1-.7.27,1,1,0,1,1,0-2Z"/><path class="cls-7" d="M683.6,224.7a.06.06,0,0,1,.06-.06H684a.06.06,0,0,1,0,.06h0v.69h.83v-.7a0,0,0,0,1,0-.05h.35a0,0,0,0,1,.05.05v1.84a.06.06,0,0,1-.05.06h-.34a.06.06,0,0,1-.06-.06v-.73h-.83v.73a.06.06,0,0,1,0,.06h-.34a.06.06,0,0,1-.06-.06Z"/><path class="cls-7" d="M686.09,226.52l.9-1.88a.09.09,0,0,1,0,0h0l0,0,.91,1.88a0,0,0,0,1,0,.06h-.35s-.07,0-.1-.07l-.1-.22h-.79l-.1.22a.12.12,0,0,1-.1.07h-.32a.06.06,0,0,1-.06-.05Zm1.19-.59-.23-.46h0l-.22.46Z"/><path class="cls-7" d="M688.78,224.7a.06.06,0,0,1,.06-.06h.34a.06.06,0,0,1,.05.06v1.48h.69a.06.06,0,0,1,.06,0v.31a.06.06,0,0,1-.06.05h-1.08a.06.06,0,0,1-.06-.05Z"/><path class="cls-7" d="M690.78,224.7a.06.06,0,0,1,.05-.06h.34a.06.06,0,0,1,.06.06v1.48h.69a0,0,0,0,1,.05,0v.31a0,0,0,0,1-.05.05h-1.09a0,0,0,0,1-.05-.05Z"/><path class="cls-7" d="M692.77,224.7a.06.06,0,0,1,.06-.06H694a.06.06,0,0,1,.06.06h0v.3a.06.06,0,0,1-.06.05h-.8v.34h.66s0,0,.06.06v.3a.06.06,0,0,1-.06.05h-.66v.38h.8a.06.06,0,0,1,.06,0v.3a.06.06,0,0,1-.06.06h-1.19a.06.06,0,0,1-.06-.06Z"/><path class="cls-7" d="M695,224.66s0,0,.06,0h.07l1.15,1.08h0v-1a.06.06,0,0,1,.06-.06h.35a.06.06,0,0,1,.05.06v1.87a.05.05,0,0,1-.05.05h-.09l-1.14-1.11h0v1a.06.06,0,0,1-.06.05H695a0,0,0,0,1,0-.05Z"/><path class="cls-7" d="M698.63,224.62a1.1,1.1,0,0,1,.7.26,0,0,0,0,1,0,.07h0l-.22.24a.06.06,0,0,1-.08,0,.56.56,0,0,0-.93.45.56.56,0,0,0,.55.53.75.75,0,0,0,.26,0V226h-.18s-.06,0-.06,0h0v-.27a0,0,0,0,1,.05,0h.6a.05.05,0,0,1,0,0v.75a.05.05,0,0,1,0,0,1.44,1.44,0,0,1-.71.18,1,1,0,1,1-.07-2h.07Z"/><path class="cls-7" d="M700.28,224.7a.06.06,0,0,1,.06-.06h1.2a.05.05,0,0,1,.05.05h0v.3a0,0,0,0,1-.05.05h-.8v.34h.66a.06.06,0,0,1,.05.06v.3a0,0,0,0,1-.05.05h-.66v.38h.8a0,0,0,0,1,.05,0v.3a.06.06,0,0,1-.05.06h-1.2a.06.06,0,0,1-.06-.06Z"/><path class="cls-8" d="M688.53,213.82s0,0,0,0h0l.8.74h0v-.69s0,0,0,0h.24s0,0,0,0v1.3s0,0,0,0h-.06l-.79-.77h0v.72s0,0,0,0h-.24a0,0,0,0,1,0,0Z"/><path class="cls-8" d="M690.1,215.11l.62-1.3a.05.05,0,0,1,0,0h0l0,0,.63,1.3s0,0,0,0h-.25s0,0-.07,0L691,215h-.54l-.07.15a.08.08,0,0,1-.07,0h-.22a.05.05,0,0,1,0,0S690.09,215.11,690.1,215.11Zm.82-.42-.15-.32h0l-.15.32Z"/><path class="cls-8" d="M691.72,215l.1-.16s0,0,.07,0a.57.57,0,0,0,.28.11.12.12,0,0,0,.14-.11h0c0-.08-.07-.15-.21-.2s-.39-.19-.39-.43.16-.38.47-.38a.71.71,0,0,1,.42.14.07.07,0,0,1,0,.07l-.11.14s0,0-.06,0a.81.81,0,0,0-.29-.12.11.11,0,0,0-.12.1h0c0,.07.06.13.23.19s.39.17.39.44a.44.44,0,0,1-.47.4.72.72,0,0,1-.45-.15S691.71,215,691.72,215Z"/><path class="cls-8" d="M692.92,215.11l.63-1.3,0,0h0l0,0,.63,1.3s0,0,0,0H694s0,0-.07,0l-.07-.15h-.54l-.07.15a.09.09,0,0,1-.08,0H693s0,0,0,0Zm.82-.42-.15-.32h0l-.15.32Z"/><path class="cls-7" d="M691.35,231.36a10.49,10.49,0,0,1-8-3.68.12.12,0,0,1,0-.17.13.13,0,0,1,.18,0A10.32,10.32,0,0,0,697.68,229a8.21,8.21,0,0,0,.77-.67,7.46,7.46,0,0,0,.72-.77.14.14,0,0,1,.18,0,.12.12,0,0,1,0,.17h0a9.22,9.22,0,0,1-.74.79A10.46,10.46,0,0,1,691.35,231.36Z"/><path class="cls-7" d="M683.15,215.74l-.07,0a.12.12,0,0,1,0-.17h0a10.55,10.55,0,0,1,14.31-2.19.12.12,0,0,1,0,.17.12.12,0,0,1-.17,0,10.31,10.31,0,0,0-14,2.13A.12.12,0,0,1,683.15,215.74Z"/></g></g><text class="cls-9" transform="translate(578.2 309.79)">Pati</text><line class="cls-10" x1="116.3" y1="102.33" x2="162.8" y2="148.83"/><line class="cls-10" x1="162.75" y1="102" x2="116.25" y2="148.5"/><line class="cls-10" x1="190.84" y1="102.65" x2="237.34" y2="149.15"/><line class="cls-10" x1="237.29" y1="102.32" x2="190.79" y2="148.82"/><line class="cls-10" x1="588.03" y1="103.71" x2="634.53" y2="150.21"/><line class="cls-10" x1="634.48" y1="103.38" x2="587.98" y2="149.88"/><line class="cls-10" x1="662.57" y1="104.03" x2="709.07" y2="150.53"/><line class="cls-10" x1="709.02" y1="103.71" x2="662.52" y2="150.21"/><circle class="cls-1" cx="409.7" cy="398.3" r="173"/><rect class="cls-2" x="336.23" y="380.39" width="143.23" height="44.94" rx="22.47"/><path class="cls-3" d="M322,471.92c-3.92-51,37.68-94.68,88-94.66,50,0,91.39,43.1,88,93.77Z"/><ellipse class="cls-2" cx="408.32" cy="381.95" rx="56.11" ry="43.5"/><circle class="cls-4" cx="407.72" cy="341.33" r="74.28" transform="translate(-67.52 102.81) rotate(-13.28)"/><path d="M407.72,269.55a71.79,71.79,0,1,1-71.78,71.78,71.86,71.86,0,0,1,71.78-71.78m0-5a76.79,76.79,0,1,0,76.78,76.78,76.79,76.79,0,0,0-76.78-76.78Z"/><path class="cls-5" d="M341.63,315.14c-8.87,27.45-2.59,57,16.59,76.42,22.25,22.51,51.83,21.11,55,20.91,4.82-.31,28.07-2.29,45.9-20.91,18.94-19.77,24.17-50.37,13.94-78.58a24.2,24.2,0,0,0-5.53-6.73c-13.13-11-29.14.85-59.12,1.44-30.79.61-47.22-11.26-61,.48A26.66,26.66,0,0,0,341.63,315.14Z"/><circle class="cls-6" cx="360.26" cy="326.07" r="8.05"/><circle class="cls-6" cx="366.27" cy="342.9" r="3.24"/><path class="cls-6" d="M366.39,393.72s26.12,21.73,59.6,13.7c17.42-4.18,42.05-23.15,46.62-44.22,0,0-16.87,30.59-67.29,34.61C392.36,398.84,366.39,393.72,366.39,393.72Z"/><g id="Layer_2-4" data-name="Layer 2"><g id="Layer_1-2-4" data-name="Layer 1-2"><path class="cls-7" d="M443.92,434.84h-.84v5.21h.49v-2.48h.35a1,1,0,0,0,.7-.22,1,1,0,0,0,.23-.71v-.86a1,1,0,0,0-.23-.72A1,1,0,0,0,443.92,434.84Zm.43.94v.86a.49.49,0,0,1-.11.35.41.41,0,0,1-.32.11h-.35v-1.78h.35a.44.44,0,0,1,.33.11.53.53,0,0,1,.1.35Z"/><path class="cls-7" d="M461.12,438a.88.88,0,0,0-.19-.34,5.6,5.6,0,0,0-.41-.43,3.24,3.24,0,0,1-.4-.43.39.39,0,0,1-.1-.16,1,1,0,0,1,0-.24v-.77c0-.25.11-.37.34-.37a.26.26,0,0,1,.27.12.52.52,0,0,1,.07.32v.88h.47v-.95A.94.94,0,0,0,461,435a.8.8,0,0,0-.63-.21c-.55,0-.83.28-.83.86v.78a2.42,2.42,0,0,0,0,.38.61.61,0,0,0,.15.3l.23.25.21.21.2.2a1.9,1.9,0,0,1,.19.21.76.76,0,0,1,.08.11.53.53,0,0,1,.06.1.68.68,0,0,1,0,.14c0,.05,0,.12,0,.19h0v.75a.4.4,0,0,1-.08.28.34.34,0,0,1-.27.1.29.29,0,0,1-.27-.12.67.67,0,0,1-.08-.33v-1.05h-.47v1.1a.92.92,0,0,0,.2.65.83.83,0,0,0,.63.22.84.84,0,0,0,.64-.22,1,1,0,0,0,.19-.65v-.74A2,2,0,0,0,461.12,438Z"/><path class="cls-7" d="M442.23,437.67a5.6,5.6,0,0,0-.41-.43,3.24,3.24,0,0,1-.4-.43.54.54,0,0,1-.1-.16,1,1,0,0,1,0-.24v-.77c0-.25.12-.37.35-.37a.27.27,0,0,1,.27.12.59.59,0,0,1,.06.32v.88h.47v-.95a.94.94,0,0,0-.19-.65.8.8,0,0,0-.63-.21c-.55,0-.83.28-.83.86v.78c0,.13,0,.25,0,.38a.61.61,0,0,0,.15.3l.23.25.21.21.2.2c.07.06.13.14.2.21l.07.11a.39.39,0,0,1,.06.11.59.59,0,0,1,0,.13c0,.06,0,.12,0,.2v.74a.51.51,0,0,1-.08.29.33.33,0,0,1-.27.09.29.29,0,0,1-.27-.12.67.67,0,0,1-.08-.33v-1.05h-.47v1.1a.92.92,0,0,0,.2.65,1,1,0,0,0,1.27,0,1,1,0,0,0,.2-.65v-.74a2,2,0,0,0-.05-.49A.88.88,0,0,0,442.23,437.67Z"/><path class="cls-7" d="M458.16,434.84h-.84v5.21h.5v-2.48h.35a1,1,0,0,0,.7-.22,1,1,0,0,0,.22-.71v-.86a.8.8,0,0,0-.93-.94Zm.43.94v.86a.48.48,0,0,1-.1.35.43.43,0,0,1-.32.11h-.35v-1.78h.34a.44.44,0,0,1,.33.11.48.48,0,0,1,.1.35Z"/><path class="cls-7" d="M455.88,434.84H455v5.21h.5v-2.48h.35a1,1,0,0,0,.7-.22,1,1,0,0,0,.22-.71v-.86a1,1,0,0,0-.22-.72A1,1,0,0,0,455.88,434.84Zm.43,1.8a.49.49,0,0,1-.11.35.41.41,0,0,1-.32.11h-.35v-1.78h.34a.45.45,0,0,1,.34.11.53.53,0,0,1,.1.35h0Z"/><path class="cls-7" d="M453.25,434.84l-.74,5.21H453l.12-.87h.81l.12.87h.5l-.7-5.21Zm-.07,3.89.18-1.33c.05-.44.11-.89.17-1.34.05.45.11.89.16,1.34s.12.89.17,1.33Z"/><path class="cls-7" d="M445.7,434.84l-.74,5.21h.48l.12-.87h.81l.12.87H447l-.69-5.21Zm.61,3.89h-.69l.18-1.33.18-1.34c0,.45.1.89.16,1.34S446.26,438.29,446.31,438.73Z"/><polygon class="cls-7" points="450.12 437.64 450.77 437.64 450.77 437.15 450.12 437.15 450.12 435.32 451.05 435.32 451.05 434.84 449.62 434.84 449.62 440.05 449.62 440.05 451.08 440.05 451.08 439.57 450.12 439.57 450.12 437.64"/><path class="cls-7" d="M448.24,434.78c-.57,0-.86.3-.86.9v3.55a.77.77,0,0,0,.86.88.76.76,0,0,0,.6-.22,1,1,0,0,0,.19-.67v-1.08h-.45v1.09a.52.52,0,0,1-.08.31.31.31,0,0,1-.26.1c-.24,0-.36-.14-.36-.41v-3.56c0-.27.12-.4.36-.4a.3.3,0,0,1,.27.09.57.57,0,0,1,.07.31v.92H449v-.92C449,435.07,448.77,434.78,448.24,434.78Z"/><path class="cls-7" d="M458,432.14a1.58,1.58,0,1,1,1.63-1.57A1.61,1.61,0,0,1,458,432.14Zm0-2.91a1.34,1.34,0,1,0,1.38,1.34A1.36,1.36,0,0,0,458,429.23Z"/><path class="cls-7" d="M459,429.66a.12.12,0,0,1-.12-.12.16.16,0,0,1,0-.09l1.41-1.35a.14.14,0,0,1,.17,0,.11.11,0,0,1,0,.17l-1.4,1.35A.1.1,0,0,1,459,429.66Z"/><path class="cls-7" d="M457.82,429.24a.12.12,0,0,1-.12-.12.13.13,0,0,1,0-.08l1.25-1.51a.13.13,0,0,1,.18,0,.11.11,0,0,1,0,.16l-1.26,1.52A.15.15,0,0,1,457.82,429.24Z"/><path class="cls-7" d="M457,429.56h0a.11.11,0,0,1-.06-.16h0l1.56-3.27a.13.13,0,0,1,.17-.06h0a.12.12,0,0,1,.06.16l-1.57,3.27A.12.12,0,0,1,457,429.56Z"/><path class="cls-7" d="M459.47,430.83a.13.13,0,0,1-.13-.12.14.14,0,0,1,.05-.1L461,429.4a.14.14,0,0,1,.17,0,.11.11,0,0,1,0,.16l-1.56,1.21A.13.13,0,0,1,459.47,430.83Z"/><path class="cls-7" d="M459.14,431.6a.12.12,0,0,1-.06-.23l3.4-1.51a.13.13,0,0,1,.15.09.11.11,0,0,1-.05.12l-3.39,1.51Z"/><path class="cls-7" d="M440.93,433a0,0,0,0,1,0,0h.22a0,0,0,0,1,0,0v1.14a0,0,0,0,1,0,0H441a0,0,0,0,1,0,0Z"/><path class="cls-7" d="M442.05,432.94a0,0,0,0,1,0,0h0l.71.66h0V433s0,0,0,0h.21a0,0,0,0,1,0,0v1.15s0,0,0,0H443l-.7-.68h0v.64s0,0,0,0h-.21a0,0,0,0,1,0,0Z"/><path class="cls-7" d="M444.11,433.18h-.25a0,0,0,0,1,0,0h0V433a0,0,0,0,1,0,0h.79a0,0,0,0,1,0,0v.19a0,0,0,0,1,0,0h-.25v.92a0,0,0,0,1,0,0h-.22a0,0,0,0,1,0,0Z"/><path class="cls-7" d="M445.39,433s0,0,0,0h.73s0,0,0,0v.19s0,0,0,0h-.49v.22h.41a0,0,0,0,1,0,0v.18a0,0,0,0,1,0,0h-.41v.23h.49s0,0,0,0h0v.19s0,0,0,0h-.73s0,0,0,0h0Z"/><path class="cls-7" d="M447,433a0,0,0,0,1,0,0h.53a.38.38,0,0,1,.4.35.39.39,0,0,1-.27.37l.24.42s0,0,0,.05h-.26l0,0-.24-.45h-.12v.43s0,0,0,0H447s0,0,0,0Zm.54.48a.13.13,0,0,0,.13-.14.13.13,0,0,0-.13-.13h-.26v.27Z"/><path class="cls-7" d="M448.69,432.94a0,0,0,0,1,0,0h0l.71.66h0V433a0,0,0,0,1,0,0h.22a0,0,0,0,1,0,0v1.15s0,0,0,0h-.05l-.7-.68h0v.64s0,0,0,0h-.21a0,0,0,0,1,0,0Z"/><path class="cls-7" d="M450.44,434.08l.55-1.15,0,0h0l0,0,.56,1.15a0,0,0,0,1,0,.05h-.21a.05.05,0,0,1-.06,0l-.07-.14h-.48l-.06.14a.07.07,0,0,1-.06,0h-.2s0,0,0,0S450.44,434.09,450.44,434.08Zm.73-.36-.14-.29h0l-.13.29Z"/><path class="cls-7" d="M452.4,433.18h-.25a0,0,0,0,1,0,0h0V433a0,0,0,0,1,0,0h.79a0,0,0,0,1,0,0v.19a0,0,0,0,1,0,0h-.26v.92a0,0,0,0,1,0,0h-.21a0,0,0,0,1,0,0Z"/><path class="cls-7" d="M453.68,433s0,0,0,0h.21a0,0,0,0,1,0,0v1.14a0,0,0,0,1,0,0h-.21a0,0,0,0,1,0,0Z"/><path class="cls-7" d="M455.35,432.91a.63.63,0,0,1,.64.62.63.63,0,0,1-.64.62.63.63,0,0,1-.64-.62h0a.63.63,0,0,1,.64-.62Zm0,1a.34.34,0,0,0,.36-.34.36.36,0,0,0-.71,0h0a.35.35,0,0,0,.35.34Z"/><path class="cls-7" d="M456.74,432.94a0,0,0,0,1,0,0h0l.71.66h0V433s0,0,0,0h.21a0,0,0,0,1,0,0v1.15s0,0,0,0h0l-.7-.68h0v.64s0,0,0,0h-.21a0,0,0,0,1,0,0Z"/><path class="cls-7" d="M458.48,434.08l.56-1.15,0,0h0l0,0,.55,1.15s0,0,0,0h-.22s0,0-.06,0l-.06-.14h-.48l-.07.14a.07.07,0,0,1-.06,0h-.2a0,0,0,0,1,0,0Zm.73-.36-.13-.29h0l-.13.29Z"/><path class="cls-7" d="M460.35,433s0,0,0,0h.21a0,0,0,0,1,0,0v.92h.43a0,0,0,0,1,0,0h0v.19a0,0,0,0,1,0,0h-.67a0,0,0,0,1,0,0Z"/><path class="cls-7" d="M441.67,440.68a1,1,0,0,1,.7.26,0,0,0,0,1,0,.07h0l-.23.22a0,0,0,0,1-.07,0,.6.6,0,0,0-.39-.14.59.59,0,0,0-.59.57.58.58,0,0,0,.59.57.62.62,0,0,0,.39-.14,0,0,0,0,1,.07,0l.23.23a.06.06,0,0,1,0,.08,1.06,1.06,0,0,1-.71.27,1,1,0,1,1,0-2Z"/><path class="cls-7" d="M443.23,440.76a.06.06,0,0,1,.06-.05h.34a.06.06,0,0,1,.06.05h0v.7h.82v-.7a.06.06,0,0,1,.06-.05h.34a0,0,0,0,1,0,.05v1.84a0,0,0,0,1,0,0h-.34a.06.06,0,0,1-.06,0v-.73h-.82v.73a.06.06,0,0,1-.06,0h-.34a.06.06,0,0,1-.06,0Z"/><path class="cls-7" d="M445.72,442.59l.91-1.88a.05.05,0,0,1,.05,0h0a.05.05,0,0,1,.05,0l.9,1.87a.06.06,0,0,1,0,.07h-.35a.1.1,0,0,1-.1-.07l-.11-.22h-.78l-.11.22a.1.1,0,0,1-.1.07h-.32a.05.05,0,0,1,0-.05Zm1.19-.59-.22-.46h0l-.22.46Z"/><path class="cls-7" d="M448.42,440.76a0,0,0,0,1,.05-.05h.34a.06.06,0,0,1,.06.05v1.49h.69a0,0,0,0,1,.05.05v.3a.06.06,0,0,1-.05.06h-1.09a.06.06,0,0,1-.05-.06Z"/><path class="cls-7" d="M450.41,440.76a0,0,0,0,1,0-.05h.35a0,0,0,0,1,.05.05v1.49h.69a.06.06,0,0,1,.06.05v.3a.06.06,0,0,1-.06.06h-1.08a.06.06,0,0,1-.06-.06Z"/><path class="cls-7" d="M452.41,440.76a0,0,0,0,1,0-.05h1.2a0,0,0,0,1,0,.05h0v.31a.05.05,0,0,1,0,.05h-.8v.34h.65a.06.06,0,0,1,.06.05v.31a0,0,0,0,1-.05.05h-.66v.37h.8a.06.06,0,0,1,0,.06v.3a0,0,0,0,1,0,0h-1.2a0,0,0,0,1,0,0Z"/><path class="cls-7" d="M454.62,440.73a0,0,0,0,1,.05-.05h.07l1.16,1.07h0v-1a.05.05,0,0,1,.05-.05h.35a.05.05,0,0,1,.05.05v1.88a0,0,0,0,1-.05.05h-.05l0,0-1.14-1.1h0v1a0,0,0,0,1-.05.05h-.35a.05.05,0,0,1-.05-.05Z"/><path class="cls-7" d="M458.26,440.68a1.16,1.16,0,0,1,.71.27s0,0,0,.06h0l-.23.23a0,0,0,0,1-.07,0,.58.58,0,0,0-.38-.13.58.58,0,0,0-.56.58.59.59,0,0,0,.56.54.74.74,0,0,0,.25-.05V442h-.18a0,0,0,0,1-.05,0h0v-.27a.06.06,0,0,1,.05-.06H459a.06.06,0,0,1,.05.06v.74a.08.08,0,0,1,0,.05,1.51,1.51,0,0,1-.72.18,1,1,0,1,1-.07-2Z"/><path class="cls-7" d="M459.92,440.76a0,0,0,0,1,.05-.05h1.2a.06.06,0,0,1,.06.05h0v.31a.06.06,0,0,1-.06.05h-.8v.34H461a0,0,0,0,1,.05.05v.31a0,0,0,0,1-.05.05h-.66v.37h.8a.06.06,0,0,1,.06.06v.3a.06.06,0,0,1-.06,0H460a0,0,0,0,1-.05,0Z"/><path class="cls-8" d="M448.17,429.89s0,0,0,0h.05l.79.74h0v-.69a0,0,0,0,1,0,0h.24s0,0,0,0v1.3s0,0,0,0h-.06l-.79-.76h0v.71s0,0,0,0h-.24a0,0,0,0,1,0,0Z"/><path class="cls-8" d="M449.73,431.17l.63-1.29s0,0,0,0h0s0,0,0,0l.63,1.29s0,0,0,.05h-.24a.07.07,0,0,1-.07,0l-.07-.16h-.55l-.07.16a.07.07,0,0,1-.07,0h-.22s0,0,0,0Zm.83-.41-.15-.32h0l-.16.32Z"/><path class="cls-8" d="M451.36,431l.09-.16a.06.06,0,0,1,.07,0,.69.69,0,0,0,.28.11c.07,0,.14-.05.14-.11h0c0-.08-.07-.14-.2-.19s-.39-.2-.39-.43.15-.38.46-.38a.74.74,0,0,1,.43.14,0,0,0,0,1,0,.06l-.1.15s0,0-.07,0a.69.69,0,0,0-.29-.12.1.1,0,0,0-.12.09h0c0,.07.06.12.22.19s.4.17.4.43a.44.44,0,0,1-.48.4.63.63,0,0,1-.45-.15S451.34,431.07,451.36,431Z"/><path class="cls-8" d="M452.55,431.17l.63-1.29s0,0,0,0h0s0,0,0,0l.62,1.29s0,0,0,.05h-.24a.07.07,0,0,1-.07,0l-.07-.16H453l-.07.16a.07.07,0,0,1-.07,0h-.22s0,0,0,0Zm.83-.41-.16-.32h0l-.15.32Z"/><path class="cls-7" d="M451,447.43a10.48,10.48,0,0,1-8-3.69.12.12,0,0,1,0-.17.14.14,0,0,1,.18,0A10.31,10.31,0,0,0,457.31,445a9.85,9.85,0,0,0,.78-.67c.25-.24.49-.5.72-.77a.12.12,0,0,1,.17,0,.12.12,0,0,1,0,.17h0a9.22,9.22,0,0,1-.74.79A10.5,10.5,0,0,1,451,447.43Z"/><path class="cls-7" d="M442.78,431.81a.11.11,0,0,1-.07,0,.12.12,0,0,1,0-.17h0A10.56,10.56,0,0,1,457,429.43a.12.12,0,0,1,0,.17.14.14,0,0,1-.18,0,10.29,10.29,0,0,0-14,2.13A.12.12,0,0,1,442.78,431.81Z"/></g></g><text class="cls-9" transform="translate(352.84 530.85)">YOU</text><line class="cls-10" x1="349.2" y1="323.05" x2="395.7" y2="369.55"/><line class="cls-10" x1="395.65" y1="322.73" x2="349.15" y2="369.23"/><line class="cls-10" x1="423.75" y1="323.38" x2="470.25" y2="369.88"/><line class="cls-10" x1="470.2" y1="323.05" x2="423.7" y2="369.55"/></g></g></svg>
