<svg xmlns="http://www.w3.org/2000/svg" viewBox="0 0 830 796.5"><defs><style>.cls-1{fill:#cbcbcb;stroke:#fff;stroke-width:8px;}.cls-1,.cls-10,.cls-11,.cls-12,.cls-13,.cls-17,.cls-18,.cls-19,.cls-20,.cls-24,.cls-25,.cls-7,.cls-8,.cls-9{stroke-miterlimit:10;}.cls-2{font-size:40px;font-family:PressStart2P-Regular, "Press Start 2P";}.cls-18,.cls-19,.cls-3,.cls-6,.cls-8{fill:#fff;}.cls-10,.cls-12,.cls-13,.cls-17,.cls-18,.cls-19,.cls-20,.cls-21,.cls-22,.cls-23,.cls-24,.cls-3,.cls-7,.cls-8,.cls-9{stroke:#000;}.cls-21,.cls-22,.cls-23,.cls-3{stroke-linecap:round;stroke-linejoin:round;}.cls-19,.cls-21,.cls-22,.cls-23,.cls-24,.cls-3{stroke-width:3px;}.cls-4{fill:#ffedc9;}.cls-5,.cls-7{fill:#c8c8c8;}.cls-12,.cls-13,.cls-7,.cls-8{stroke-width:5px;}.cls-13,.cls-22,.cls-24,.cls-25,.cls-9{fill:none;}.cls-10,.cls-9{stroke-width:13px;}.cls-11{fill:#ffe15f;stroke:#ffe15f;stroke-width:6px;}.cls-14{fill:#231f20;}.cls-15{fill:#ee2c3e;}.cls-16{fill:#8b8b8b;}.cls-20{fill:#b3b3b3;}.cls-21{fill:#007406;}.cls-23{fill:#ffdc8a;}.cls-25{stroke:red;stroke-width:10px;}</style></defs><g id="Layer_2" data-name="Layer 2"><g id="Layer_1-2" data-name="Layer 1"><circle class="cls-1" cx="653" cy="619.5" r="173"/><text class="cls-2" transform="translate(579.42 750.97)">Dreu</text><path class="cls-3" d="M581,696.78c-3.22-40.89,30.91-75.91,72.2-75.89,41,0,75,34.55,72.19,75.18Z"/><ellipse class="cls-4" cx="654.77" cy="574.51" rx="49.73" ry="58.25"/><path d="M654.77,518.76c26,0,47.23,25,47.23,55.75s-21.19,55.74-47.23,55.74-47.22-25-47.22-55.74,21.18-55.75,47.22-55.75m0-5c-28.84,0-52.22,27.2-52.22,60.75s23.38,60.74,52.22,60.74S707,608.06,707,574.51s-23.39-60.75-52.23-60.75Z"/><path class="cls-5" d="M624.94,578.21a9.43,9.43,0,1,1,0-18.86h11.69a9.43,9.43,0,1,1,0,18.86Z"/><path d="M636.63,561.85a6.93,6.93,0,0,1,0,13.86H624.94a6.93,6.93,0,0,1,0-13.86h11.69m0-5H624.94a11.93,11.93,0,0,0,0,23.86h11.69a11.93,11.93,0,1,0,0-23.86Z"/><path class="cls-6" d="M623.12,576.94l14.72-.49s7.43,0,7.43-9.25Z"/><path class="cls-5" d="M671.69,578.21a9.43,9.43,0,1,1,0-18.86h11.69a9.43,9.43,0,1,1,0,18.86Z"/><path d="M683.38,561.85a6.93,6.93,0,0,1,0,13.86H671.69a6.93,6.93,0,0,1,0-13.86h11.69m0-5H671.69a11.93,11.93,0,1,0,0,23.86h11.69a11.93,11.93,0,1,0,0-23.86Z"/><path class="cls-6" d="M669.87,576.94l14.71-.49s7.44,0,7.44-9.25Z"/><line class="cls-7" x1="647.93" y1="568.78" x2="660.55" y2="568.78"/><path class="cls-8" d="M639.31,606.89h30S656.68,628,639.31,606.89Z"/><path class="cls-9" d="M664.1,642.14c46.51-1,42.83-46.94,42.83-46.94"/><rect class="cls-10" x="643.33" y="637.08" width="23.13" height="10.23" rx="5.11"/><path class="cls-11" d="M687.15,529s-1.21,12.66-19.72,13.63-31.41,1.22-37.49,8.28c0,0-2.68-14.12-16.93-11l-6.8,13.15s5.22-46.26,45.4-44.31,46,24.58,51.72,44.31Z"/><rect class="cls-12" x="699.57" y="552.35" width="14.61" height="44.07" rx="7.3"/><rect class="cls-12" x="593.17" y="552.35" width="14.61" height="44.07" rx="7.3"/><path class="cls-13" d="M703.71,554.78c-1.36-8.67-7.68-47.11-53.75-47.11-39.45,0-44.93,46.51-44.93,46.51"/><g id="Layer_2-2" data-name="Layer 2"><g id="Layer_1-2-2" data-name="Layer 1-2"><path class="cls-14" d="M676.47,656.19h-.86v5.28h.51V659h.35a1,1,0,0,0,.71-.22,1,1,0,0,0,.23-.73v-.87a1,1,0,0,0-.23-.72A1,1,0,0,0,676.47,656.19Zm.43.95V658a.45.45,0,0,1-.1.35.44.44,0,0,1-.33.11h-.35v-1.8h.35a.44.44,0,0,1,.33.11.48.48,0,0,1,.1.35Z"/><path class="cls-14" d="M693.89,659.4a.77.77,0,0,0-.19-.34,4.37,4.37,0,0,0-.42-.44,4.07,4.07,0,0,1-.4-.43.59.59,0,0,1-.1-.17,1,1,0,0,1,0-.24V657c0-.25.12-.38.35-.38a.29.29,0,0,1,.27.13.52.52,0,0,1,.07.32V658h.47v-1a1,1,0,0,0-.18-.66.84.84,0,0,0-.64-.21.76.76,0,0,0-.85.87v.79a2.34,2.34,0,0,0,0,.38.6.6,0,0,0,.15.31,2.73,2.73,0,0,0,.23.25l.21.22.21.2.19.21a.76.76,0,0,1,.08.11l.06.11a.68.68,0,0,1,0,.14s0,.12,0,.19h0v.75a.52.52,0,0,1-.08.3.37.37,0,0,1-.28.1.29.29,0,0,1-.27-.13.66.66,0,0,1-.08-.34v-1.05h-.48v1.11a.94.94,0,0,0,.2.65.83.83,0,0,0,.64.23.85.85,0,0,0,.66-.23.93.93,0,0,0,.19-.65v-.76A2,2,0,0,0,693.89,659.4Z"/><path class="cls-14" d="M674.76,659.06a4.37,4.37,0,0,0-.42-.44,4.17,4.17,0,0,1-.41-.43.56.56,0,0,1-.09-.17.65.65,0,0,1,0-.24V657c0-.25.11-.38.35-.38a.3.3,0,0,1,.27.13.71.71,0,0,1,.07.32V658H675v-1a1,1,0,0,0-.19-.66.82.82,0,0,0-.64-.21.76.76,0,0,0-.84.87v.79a2.36,2.36,0,0,0,0,.38.55.55,0,0,0,.16.31,2.62,2.62,0,0,0,.22.25l.21.22.21.2c.07.06.13.14.2.21a.76.76,0,0,0,.08.11.54.54,0,0,1,.05.11.68.68,0,0,1,0,.14s0,.12,0,.2v.75a.44.44,0,0,1-.08.29.34.34,0,0,1-.27.1.31.31,0,0,1-.28-.13.64.64,0,0,1-.07-.33v-1.06h-.48v1.11a.89.89,0,0,0,.2.65,1,1,0,0,0,1.29,0,1,1,0,0,0,.2-.65v-.76a2,2,0,0,0,0-.49A.88.88,0,0,0,674.76,659.06Z"/><path class="cls-14" d="M690.9,656.19H690v5.28h.51V659h.36a1,1,0,0,0,.71-.22,1,1,0,0,0,.22-.73v-.87a1,1,0,0,0-.23-.72A.94.94,0,0,0,690.9,656.19Zm.43.95V658a.45.45,0,0,1-.1.35.44.44,0,0,1-.33.11h-.35v-1.8h.34a.45.45,0,0,1,.34.11.48.48,0,0,1,.1.35Z"/><path class="cls-14" d="M688.59,656.19h-.85v5.28h.5V659h.36a1,1,0,0,0,.7-.22,1,1,0,0,0,.23-.73v-.87a1,1,0,0,0-.23-.72A.92.92,0,0,0,688.59,656.19ZM689,658a.46.46,0,0,1-.12.35.41.41,0,0,1-.32.11h-.35v-1.8h.34a.47.47,0,0,1,.34.11.53.53,0,0,1,.1.35h0Z"/><path class="cls-14" d="M685.93,656.19l-.76,5.28h.49l.12-.89h.82l.12.89h.51l-.71-5.28Zm-.08,3.94.18-1.35c.06-.44.12-.9.18-1.35,0,.45.1.9.16,1.35s.12.91.17,1.35Z"/><path class="cls-14" d="M678.28,656.19l-.76,5.28H678l.12-.89H679l.12.89h.5l-.7-5.28Zm.61,3.94h-.7c.07-.45.13-.9.19-1.35s.12-.9.17-1.35c.06.45.11.9.17,1.35S678.84,659.69,678.89,660.13Z"/><polygon class="cls-14" points="682.75 659.02 683.41 659.02 683.41 658.53 682.75 658.53 682.75 656.68 683.69 656.68 683.69 656.19 682.24 656.19 682.24 661.47 682.24 661.47 683.72 661.47 683.72 660.99 682.75 660.99 682.75 659.02"/><path class="cls-14" d="M680.85,656.13c-.58,0-.87.3-.87.91v3.59a.78.78,0,0,0,.87.9.79.79,0,0,0,.61-.22,1.06,1.06,0,0,0,.19-.68v-1.09h-.46v1.09a.53.53,0,0,1-.08.32.31.31,0,0,1-.26.1c-.25,0-.37-.14-.37-.42V657c0-.27.12-.41.37-.41a.34.34,0,0,1,.27.1.59.59,0,0,1,.07.31V658h.46V657C681.65,656.43,681.38,656.13,680.85,656.13Z"/><path class="cls-14" d="M690.7,653.45a1.59,1.59,0,1,1,1.65-1.59A1.62,1.62,0,0,1,690.7,653.45Zm0-2.94a1.35,1.35,0,1,0,1.4,1.35A1.38,1.38,0,0,0,690.7,650.51Z"/><path class="cls-14" d="M691.78,650.94a.11.11,0,0,1-.12-.12.16.16,0,0,1,0-.09l1.42-1.36a.13.13,0,0,1,.18,0,.11.11,0,0,1,0,.17l-1.42,1.37A.12.12,0,0,1,691.78,650.94Z"/><path class="cls-14" d="M690.55,650.52a.12.12,0,0,1-.12-.12.11.11,0,0,1,0-.08l1.27-1.53a.14.14,0,0,1,.18,0,.12.12,0,0,1,0,.17l-1.28,1.53A.12.12,0,0,1,690.55,650.52Z"/><path class="cls-14" d="M689.74,650.84h0a.11.11,0,0,1-.06-.16h0l1.58-3.32a.14.14,0,0,1,.17-.06h0a.13.13,0,0,1,.06.17l-1.58,3.31A.14.14,0,0,1,689.74,650.84Z"/><path class="cls-14" d="M692.22,652.13a.12.12,0,0,1-.12-.13.11.11,0,0,1,0-.09l1.59-1.23a.14.14,0,0,1,.18,0,.14.14,0,0,1,0,.16l-1.59,1.22A.11.11,0,0,1,692.22,652.13Z"/><path class="cls-14" d="M691.89,652.91a.13.13,0,0,1-.13-.12.12.12,0,0,1,.07-.11l3.44-1.53a.13.13,0,0,1,.16.09.11.11,0,0,1,0,.12l-3.44,1.53Z"/><path class="cls-14" d="M673.44,654.29s0,0,0,0h.22s0,0,0,0v1.15a0,0,0,0,1,0,0h-.22a0,0,0,0,1,0,0Z"/><path class="cls-14" d="M674.57,654.27a0,0,0,0,1,0,0h0l.72.66h0v-.61s0,0,0,0h.22s0,0,0,0v1.17a0,0,0,0,1,0,0h0l-.72-.69h0v.65s0,0,0,0h-.21s0,0,0,0Z"/><path class="cls-14" d="M676.67,654.51h-.26s0,0,0,0h0v-.19s0,0,0,0h.8s0,0,0,0v.19a0,0,0,0,1,0,0H677v.93s0,0,0,0h-.22a0,0,0,0,1,0,0Z"/><path class="cls-14" d="M678,654.29s0,0,0,0h.74s0,0,0,0v.19s0,0,0,0h-.5v.22h.41s0,0,0,0V655s0,0,0,0h-.41v.24h.5s0,0,0,0h0v.19s0,0,0,0H678s0,0,0,0h0Z"/><path class="cls-14" d="M679.56,654.29s0,0,0,0h.54a.39.39,0,0,1,.4.36.38.38,0,0,1-.27.37l.24.44a0,0,0,0,1,0,0h-.26l0,0L680,655h-.12v.44a0,0,0,0,1,0,0h-.22s0,0,0,0Zm.55.48a.13.13,0,0,0,.13-.13.13.13,0,0,0-.13-.14h-.27v.27Z"/><path class="cls-14" d="M681.3,654.27s0,0,0,0h0l.72.66h0v-.61s0,0,0,0h.23s0,0,0,0v1.17a0,0,0,0,1,0,0h-.05l-.72-.69h0v.65a0,0,0,0,1,0,0h-.22a0,0,0,0,1,0,0Z"/><path class="cls-14" d="M683.07,655.42l.57-1.16s0,0,0,0h0l0,0,.56,1.16a0,0,0,0,1,0,.05h-.21a.07.07,0,0,1-.07,0l-.06-.14h-.49l-.06.14a.08.08,0,0,1-.07,0h-.2a0,0,0,0,1,0,0Zm.74-.37-.13-.28h0l-.14.28Z"/><path class="cls-14" d="M685.06,654.51h-.25s0,0,0,0h0v-.19s0,0,0,0h.8s0,0,0,0v.19a0,0,0,0,1,0,0h-.26v.93s0,0,0,0h-.21a0,0,0,0,1,0,0Z"/><path class="cls-14" d="M686.36,654.29s0,0,0,0h.22l0,0v1.15s0,0,0,0h-.22l0,0Z"/><path class="cls-14" d="M688.05,654.24a.63.63,0,1,1,0,1.25.64.64,0,0,1-.65-.62h0a.64.64,0,0,1,.65-.62Zm0,1a.35.35,0,0,0,.36-.34.36.36,0,0,0-.36-.35.35.35,0,0,0-.36.35h0a.35.35,0,0,0,.36.34Z"/><path class="cls-14" d="M689.45,654.27s0,0,0,0h0l.72.66h0v-.61a0,0,0,0,1,0,0h.21s0,0,0,0v1.17a0,0,0,0,1,0,0h0l-.71-.69h0v.65a0,0,0,0,1,0,0h-.22a0,0,0,0,1,0,0Z"/><path class="cls-14" d="M691.22,655.42l.57-1.16s0,0,0,0h0l0,0,.56,1.16a0,0,0,0,1,0,.05h-.22a.08.08,0,0,1-.07,0l-.06-.14h-.49l-.06.14a.08.08,0,0,1-.07,0h-.19s0,0,0,0Zm.75-.37-.14-.28h0l-.13.28Z"/><path class="cls-14" d="M693.12,654.29s0,0,0,0h.22s0,0,0,0v.93h.43s0,0,0,0h0v.19s0,0,0,0h-.67s0,0,0,0Z"/><path class="cls-14" d="M674.19,662.11a1,1,0,0,1,.71.26.06.06,0,0,1,0,.08h0l-.23.23a0,0,0,0,1-.07,0,.63.63,0,0,0-.4-.14.58.58,0,0,0-.6.57.59.59,0,0,0,.6.58.6.6,0,0,0,.39-.14.06.06,0,0,1,.08,0l.22.23a.06.06,0,0,1,0,.08,1,1,0,0,1-.71.27,1,1,0,1,1,0-2Z"/><path class="cls-14" d="M675.78,662.19a0,0,0,0,1,.05-.05h.35a.06.06,0,0,1,.06.05h0v.71h.83v-.71a0,0,0,0,1,0-.05h.35a.06.06,0,0,1,.06.05v1.86a.06.06,0,0,1-.06.06h-.34a.06.06,0,0,1-.06-.06v-.74h-.83v.74a.06.06,0,0,1-.06.06h-.35a.06.06,0,0,1-.05-.06Z"/><path class="cls-14" d="M678.3,664l.91-1.9a.05.05,0,0,1,0,0h0a.05.05,0,0,1,.05,0l.92,1.9a.06.06,0,0,1,0,.07h-.35s-.07,0-.1-.07l-.11-.22h-.79l-.11.22a.1.1,0,0,1-.1.07h-.32a.06.06,0,0,1-.06-.05Zm1.2-.6-.23-.46h0l-.22.46Z"/><path class="cls-14" d="M681,662.19a.06.06,0,0,1,.06-.05h.35a0,0,0,0,1,.05.05v1.51h.7a0,0,0,0,1,.05,0v.31a0,0,0,0,1-.05.05h-1.1a.06.06,0,0,1-.06-.05Z"/><path class="cls-14" d="M683,662.19a.06.06,0,0,1,.06-.05h.35a0,0,0,0,1,0,.05v1.51h.7a.06.06,0,0,1,.06,0v.31a.06.06,0,0,1-.06.05h-1.1a.06.06,0,0,1-.06-.05Z"/><path class="cls-14" d="M685.07,662.19a0,0,0,0,1,0-.05h1.21a.06.06,0,0,1,.06.05h0v.31a.06.06,0,0,1-.06,0h-.81v.35h.67a.06.06,0,0,1,.06.05v.31a.06.06,0,0,1-.06,0h-.67v.38h.81a.06.06,0,0,1,.06.06v.3a.06.06,0,0,1-.06.06h-1.21a.06.06,0,0,1,0-.06Z"/><path class="cls-14" d="M687.31,662.16a0,0,0,0,1,.05,0h.08l1.16,1.08h0v-1a.06.06,0,0,1,.06-.05H689a.06.06,0,0,1,.06.05v1.9a.06.06,0,0,1-.06,0h-.08L687.77,663h0v1a.06.06,0,0,1-.06.05h-.34s-.06,0-.06-.05Z"/><path class="cls-14" d="M691,662.11a1.16,1.16,0,0,1,.71.27,0,0,0,0,1,0,.07h0l-.22.24a.06.06,0,0,1-.08,0,.57.57,0,1,0-.38,1,.85.85,0,0,0,.26-.05v-.16h-.19a0,0,0,0,1-.05-.05h0v-.28s0,0,.05-.06h.6a.06.06,0,0,1,0,.06v.76l0,0a1.46,1.46,0,0,1-.73.18,1,1,0,1,1-.07-2Z"/><path class="cls-14" d="M692.67,662.19a.06.06,0,0,1,.06-.05H694a0,0,0,0,1,0,.05h0v.31a0,0,0,0,1,0,0h-.81v.35h.66a.06.06,0,0,1,.06.05v.31a0,0,0,0,1-.05,0h-.67v.38H694a.06.06,0,0,1,0,.06v.3a.06.06,0,0,1,0,.06h-1.22a.06.06,0,0,1-.06-.06Z"/><path class="cls-15" d="M680.77,651.18a0,0,0,0,1,0,0h.05l.81.75h0v-.69a0,0,0,0,1,0,0H682a0,0,0,0,1,0,0v1.31a0,0,0,0,1,0,0h-.06l-.8-.78h0v.73s0,0,0,0h-.25s0,0,0,0Z"/><path class="cls-15" d="M682.36,652.48l.63-1.32,0,0h0l0,0,.64,1.32s0,0,0,0h-.25s-.05,0-.07,0l-.07-.16h-.56l-.07.16a.08.08,0,0,1-.07,0h-.22a.05.05,0,0,1,0,0S682.35,652.48,682.36,652.48Zm.83-.43-.15-.32h0l-.15.32Z"/><path class="cls-15" d="M684,652.34l.09-.16a0,0,0,0,1,.07,0,.57.57,0,0,0,.29.11.14.14,0,0,0,.14-.11h0c0-.08-.07-.14-.21-.19s-.39-.2-.39-.44a.41.41,0,0,1,.46-.39.86.86,0,0,1,.44.15,0,0,0,0,1,0,.06l-.1.15s0,0-.07,0a.81.81,0,0,0-.29-.12.11.11,0,0,0-.13.09h0c0,.07.06.13.22.19s.41.18.41.44a.46.46,0,0,1-.48.41.69.69,0,0,1-.46-.15S684,652.37,684,652.34Z"/><path class="cls-15" d="M685.22,652.48l.63-1.32,0,0h0l0,0,.63,1.32a0,0,0,0,1,0,0h-.25s0,0-.07,0l-.07-.16h-.55l-.07.16a.08.08,0,0,1-.08,0h-.22a0,0,0,0,1,0,0Zm.83-.42-.15-.33h0l-.16.33Z"/><path class="cls-14" d="M683.63,669a10.66,10.66,0,0,1-8.12-3.74.12.12,0,0,1,0-.17.14.14,0,0,1,.18,0A10.45,10.45,0,0,0,690,666.5a9.85,9.85,0,0,0,.78-.67,9.11,9.11,0,0,0,.73-.79.13.13,0,0,1,.18,0,.12.12,0,0,1,0,.17h0c-.24.28-.49.54-.75.8A10.6,10.6,0,0,1,683.63,669Z"/><path class="cls-14" d="M675.32,653.12a.13.13,0,0,1-.08,0,.12.12,0,0,1,0-.17h0a10.69,10.69,0,0,1,14.49-2.21.12.12,0,0,1,0,.17.13.13,0,0,1-.18,0,10.44,10.44,0,0,0-14.14,2.16A.12.12,0,0,1,675.32,653.12Z"/></g></g><circle class="cls-1" cx="179.5" cy="177" r="173"/><rect class="cls-16" x="105.53" y="159.58" width="143.23" height="44.94" rx="22.47"/><path class="cls-3" d="M91.27,251.12c-3.92-51,37.68-94.68,88-94.66,50,0,91.39,43.1,88,93.77Z"/><ellipse class="cls-16" cx="177.62" cy="161.15" rx="56.11" ry="43.5"/><circle class="cls-6" cx="177.02" cy="120.53" r="74.28"/><path d="M177,48.75a71.78,71.78,0,1,1-71.78,71.78A71.86,71.86,0,0,1,177,48.75m0-5a76.78,76.78,0,1,0,76.78,76.78A76.79,76.79,0,0,0,177,43.75Z"/><path class="cls-17" d="M110.93,94.34c-8.87,27.45-2.59,57,16.59,76.42,22.25,22.51,51.83,21.11,55,20.91,4.82-.31,28.06-2.29,45.9-20.91,18.94-19.78,24.17-50.37,13.94-78.58a24.2,24.2,0,0,0-5.53-6.73c-13.13-11-29.14.85-59.12,1.44-30.79.61-47.22-11.26-61,.48A26.66,26.66,0,0,0,110.93,94.34Z"/><circle class="cls-18" cx="129.56" cy="105.27" r="8.05"/><circle class="cls-18" cx="135.57" cy="122.1" r="3.24"/><path class="cls-18" d="M135.69,172.92s26.12,21.73,59.59,13.7c17.43-4.18,42.06-23.15,46.63-44.22,0,0-16.87,30.59-67.29,34.61C161.66,178,135.69,172.92,135.69,172.92Z"/><g id="Layer_2-3" data-name="Layer 2"><g id="Layer_1-2-3" data-name="Layer 1-2"><path class="cls-14" d="M213.22,214h-.84v5.22h.49v-2.48h.35a1,1,0,0,0,.7-.22,1,1,0,0,0,.23-.72V215a1,1,0,0,0-.23-.72A1,1,0,0,0,213.22,214Zm.43.95v.86a.49.49,0,0,1-.11.35.41.41,0,0,1-.32.11h-.35v-1.78h.35a.44.44,0,0,1,.33.11.52.52,0,0,1,.1.34Z"/><path class="cls-14" d="M230.42,217.21a.81.81,0,0,0-.19-.34,4.22,4.22,0,0,0-.41-.43,4,4,0,0,1-.4-.43.42.42,0,0,1-.1-.17.93.93,0,0,1,0-.24v-.76c0-.25.11-.38.34-.38a.28.28,0,0,1,.27.13.52.52,0,0,1,.07.32v.88h.47v-.95a1,1,0,0,0-.19-.65.8.8,0,0,0-.63-.21c-.55,0-.83.28-.83.86v.78a2.48,2.48,0,0,0,0,.38.61.61,0,0,0,.15.3l.23.25.21.21.2.2a1.9,1.9,0,0,1,.19.21.44.44,0,0,1,.08.11.53.53,0,0,1,.06.1.68.68,0,0,1,0,.14s0,.12,0,.19h0v.74a.47.47,0,0,1-.08.29.34.34,0,0,1-.27.1.28.28,0,0,1-.27-.13.62.62,0,0,1-.08-.33v-1h-.47v1.1a1,1,0,0,0,.19.65.87.87,0,0,0,.64.22.84.84,0,0,0,.64-.22,1,1,0,0,0,.19-.65v-.75A2,2,0,0,0,230.42,217.21Z"/><path class="cls-14" d="M211.53,216.87a4.22,4.22,0,0,0-.41-.43,4,4,0,0,1-.4-.43.59.59,0,0,1-.1-.17.93.93,0,0,1,0-.24v-.76c0-.25.11-.38.34-.38a.28.28,0,0,1,.27.13.52.52,0,0,1,.07.32v.88h.47v-.95a1,1,0,0,0-.19-.65.8.8,0,0,0-.63-.21c-.55,0-.83.28-.83.86v.78c0,.12,0,.25,0,.38a.61.61,0,0,0,.15.3l.23.25.21.21.2.2a1.9,1.9,0,0,1,.19.21.44.44,0,0,1,.08.11.47.47,0,0,1,0,.1.35.35,0,0,1,0,.14s0,.12,0,.19v.74a.47.47,0,0,1-.08.29.34.34,0,0,1-.27.1.28.28,0,0,1-.27-.13.61.61,0,0,1-.08-.32v-1h-.47v1.1a.92.92,0,0,0,.2.65.83.83,0,0,0,.63.22.84.84,0,0,0,.64-.22,1,1,0,0,0,.2-.65v-.75a2.61,2.61,0,0,0-.05-.48A.81.81,0,0,0,211.53,216.87Z"/><path class="cls-14" d="M227.46,214h-.84v5.22h.5v-2.48h.35a1,1,0,0,0,.7-.22,1,1,0,0,0,.22-.72V215a.81.81,0,0,0-.93-.95Zm.43.95v.86a.48.48,0,0,1-.1.35.44.44,0,0,1-.33.11h-.34v-1.78h.34a.44.44,0,0,1,.33.11.47.47,0,0,1,.1.34Z"/><path class="cls-14" d="M225.18,214h-.84v5.22h.5v-2.48h.35a1,1,0,0,0,.7-.22,1,1,0,0,0,.22-.72V215a.81.81,0,0,0-.93-.95Zm.43,1.81a.49.49,0,0,1-.11.35.41.41,0,0,1-.32.11h-.35v-1.78h.34a.45.45,0,0,1,.34.11.52.52,0,0,1,.1.34h0Z"/><path class="cls-14" d="M222.55,214l-.74,5.22h.48l.12-.88h.81l.12.88h.5l-.7-5.22Zm-.08,3.9c.07-.45.13-.89.18-1.33l.18-1.34c0,.44.11.89.16,1.34s.12.89.17,1.33Z"/><path class="cls-14" d="M215,214l-.74,5.22h.48l.12-.88h.81l.11.88h.5l-.69-5.22Zm.61,3.9h-.69l.18-1.33.18-1.34c.05.44.1.89.16,1.34S215.56,217.49,215.61,217.93Z"/><polygon class="cls-14" points="219.41 216.83 220.07 216.83 220.07 216.35 219.41 216.35 219.41 214.52 220.35 214.52 220.35 214.03 218.92 214.03 218.92 219.25 218.92 219.25 220.38 219.25 220.38 218.77 219.41 218.77 219.41 216.83"/><path class="cls-14" d="M217.54,214c-.57,0-.86.3-.86.9v3.54c0,.59.29.89.86.88a.75.75,0,0,0,.6-.21,1,1,0,0,0,.19-.67v-1.08h-.45v1.08a.48.48,0,0,1-.08.31.28.28,0,0,1-.26.1c-.24,0-.36-.13-.36-.41v-3.55c0-.27.12-.41.36-.41a.31.31,0,0,1,.26.1.5.5,0,0,1,.08.31v.92h.45v-.93C218.33,214.27,218.07,214,217.54,214Z"/><path class="cls-14" d="M227.27,211.33a1.57,1.57,0,1,1,1.63-1.57A1.6,1.6,0,0,1,227.27,211.33Zm0-2.9a1.33,1.33,0,1,0,1.38,1.33A1.36,1.36,0,0,0,227.27,208.43Z"/><path class="cls-14" d="M228.33,208.86a.13.13,0,0,1-.09-.21l1.41-1.35a.12.12,0,1,1,.17.17l-1.4,1.35A.1.1,0,0,1,228.33,208.86Z"/><path class="cls-14" d="M227.12,208.44a.12.12,0,0,1-.12-.12.11.11,0,0,1,0-.08l1.25-1.51a.14.14,0,0,1,.18,0,.13.13,0,0,1,0,.17l-1.26,1.51A.12.12,0,0,1,227.12,208.44Z"/><path class="cls-14" d="M226.32,208.76h0a.13.13,0,0,1-.07-.16h0l1.56-3.27a.12.12,0,0,1,.17-.06h0a.12.12,0,0,1,.06.16l-1.57,3.27A.12.12,0,0,1,226.32,208.76Z"/><path class="cls-14" d="M228.77,210a.13.13,0,0,1-.13-.13.12.12,0,0,1,.05-.09l1.57-1.21a.13.13,0,0,1,.17,0,.11.11,0,0,1,0,.16L228.85,210A.13.13,0,0,1,228.77,210Z"/><path class="cls-14" d="M228.44,210.8a.13.13,0,0,1-.13-.12.12.12,0,0,1,.07-.11l3.4-1.51a.12.12,0,0,1,.15.09.11.11,0,0,1-.05.12l-3.39,1.51Z"/><path class="cls-14" d="M210.23,212.16a0,0,0,0,1,0,0h.22a0,0,0,0,1,0,0v1.13s0,0,0,0h-.22a0,0,0,0,1,0,0Z"/><path class="cls-14" d="M211.34,212.14s0,0,0,0h0l.71.66h0v-.61s0,0,0,0h.21a0,0,0,0,1,0,0v1.15a0,0,0,0,1,0,0h0l-.7-.69h0v.65a0,0,0,0,1,0,0h-.21a0,0,0,0,1,0,0Z"/><path class="cls-14" d="M213.41,212.38h-.25a0,0,0,0,1,0,0h0v-.19a0,0,0,0,1,0,0H214a0,0,0,0,1,0,0v.19a0,0,0,0,1,0,0h-.25v.91a0,0,0,0,1,0,0h-.22a0,0,0,0,1,0,0Z"/><path class="cls-14" d="M214.69,212.16s0,0,0,0h.73s0,0,0,0v.19a0,0,0,0,1,0,0H215v.21h.41a0,0,0,0,1,0,0v.18a0,0,0,0,1,0,0H215v.23h.49s0,0,0,0h0v.19a0,0,0,0,1,0,0h-.73a0,0,0,0,1,0,0h0Z"/><path class="cls-14" d="M216.27,212.16a0,0,0,0,1,0,0h.53a.38.38,0,0,1,.4.35.39.39,0,0,1-.27.37l.24.42s0,0,0,0h-.28l-.24-.46h-.12v.44s0,0,0,0h-.21a0,0,0,0,1,0,0Zm.54.48a.13.13,0,0,0,.13-.14.13.13,0,0,0-.13-.13h-.26v.27Z"/><path class="cls-14" d="M218,212.14a0,0,0,0,1,0,0h0l.71.66h0v-.61a0,0,0,0,1,0,0H219a0,0,0,0,1,0,0v1.15a0,0,0,0,1,0,0H219l-.7-.69h0v.65s0,0,0,0H218a0,0,0,0,1,0,0Z"/><path class="cls-14" d="M219.74,213.28l.55-1.15,0,0h0l0,0,.56,1.15s0,0,0,0a0,0,0,0,1,0,0h-.2s0,0-.07-.05l-.06-.13h-.48l-.06.13a.07.07,0,0,1-.06.05h-.2a0,0,0,0,1,0,0S219.73,213.29,219.74,213.28Zm.73-.36-.14-.29h0l-.13.28Z"/><path class="cls-14" d="M221.7,212.38h-.25a0,0,0,0,1,0,0h0v-.19s0,0,0,0h.79a0,0,0,0,1,0,0v.19a0,0,0,0,1,0,0H222v.91s0,0,0,0h-.21a0,0,0,0,1,0,0Z"/><path class="cls-14" d="M223,212.16s0,0,0,0h.21a0,0,0,0,1,0,0v1.13s0,0,0,0H223a0,0,0,0,1,0,0Z"/><path class="cls-14" d="M224.65,212.11a.63.63,0,0,1,.64.62.64.64,0,0,1-1.28,0h0a.63.63,0,0,1,.64-.62Zm0,1a.34.34,0,1,0-.35-.34h0a.35.35,0,0,0,.35.34Z"/><path class="cls-14" d="M226,212.14a0,0,0,0,1,0,0h0l.71.66h0v-.61s0,0,0,0h.21a0,0,0,0,1,0,0v1.15a0,0,0,0,1,0,0h0l-.7-.69h0v.65a0,0,0,0,1,0,0h-.21a0,0,0,0,1,0,0Z"/><path class="cls-14" d="M227.78,213.28l.56-1.15,0,0h0l0,0,.55,1.15s0,0,0,0h-.22s0,0-.06-.05l-.06-.13h-.48l-.07.13a.06.06,0,0,1-.06.05h-.2a0,0,0,0,1,0,0Zm.73-.36-.13-.29h0l-.13.29Z"/><path class="cls-14" d="M229.65,212.16s0,0,0,0h.21a0,0,0,0,1,0,0v.92h.43s0,0,0,0h0v.18s0,0,0,0h-.67s0,0,0,0Z"/><path class="cls-14" d="M211,219.88a1,1,0,0,1,.7.26,0,0,0,0,1,0,.07h0l-.23.22a0,0,0,0,1-.07,0,.6.6,0,0,0-.39-.14.57.57,0,1,0,0,1.14.62.62,0,0,0,.39-.14,0,0,0,0,1,.07,0l.22.23a0,0,0,0,1,0,.08,1,1,0,1,1-.7-1.74Z"/><path class="cls-14" d="M212.53,220a.06.06,0,0,1,.06-.05h.34a.06.06,0,0,1,.06.05h0v.7h.82V220a.06.06,0,0,1,.06-.05h.34a0,0,0,0,1,0,.05v1.84a0,0,0,0,1,0,0h-.34a.06.06,0,0,1-.06,0v-.73H213v.73a.06.06,0,0,1-.06,0h-.34a.06.06,0,0,1-.06,0Z"/><path class="cls-14" d="M215,221.78l.91-1.87a.05.05,0,0,1,0,0h0s0,0,0,0l.91,1.87a.06.06,0,0,1,0,.07h-.35a.1.1,0,0,1-.1-.07l-.11-.22h-.78l-.11.22a.1.1,0,0,1-.1.07h-.32a0,0,0,0,1,0-.05Zm1.19-.59-.22-.46h0l-.22.46Z"/><path class="cls-14" d="M217.71,220a.06.06,0,0,1,.06-.05h.34a.06.06,0,0,1,.06.05v1.49h.69a0,0,0,0,1,0,.05v.3a.06.06,0,0,1,0,.06h-1.09a.06.06,0,0,1-.06-.06Z"/><path class="cls-14" d="M219.71,220a0,0,0,0,1,0-.05h.35a0,0,0,0,1,0,.05v1.49h.69a.06.06,0,0,1,.06.05v.3a.06.06,0,0,1-.06.06h-1.08a.06.06,0,0,1-.06-.06Z"/><path class="cls-14" d="M221.71,220a0,0,0,0,1,0-.05H223a0,0,0,0,1,0,.05h0v.3a.06.06,0,0,1,0,.06h-.8v.34h.65a.06.06,0,0,1,.06.05V221a.06.06,0,0,1-.06,0h-.65v.37h.8a.06.06,0,0,1,0,.06v.3a0,0,0,0,1,0,0h-1.2a0,0,0,0,1,0,0Z"/><path class="cls-14" d="M223.92,219.93a0,0,0,0,1,.05-.05H224L225.2,221h0v-1a0,0,0,0,1,.05-.05h.35a0,0,0,0,1,.05.05v1.88a.05.05,0,0,1-.05,0h0l0,0-1.14-1.1h0v1a.06.06,0,0,1-.05.06H224a.06.06,0,0,1-.05-.06Z"/><path class="cls-14" d="M227.56,219.88a1.21,1.21,0,0,1,.71.26,0,0,0,0,1,0,.07h0l-.23.23a0,0,0,0,1-.07,0,.53.53,0,0,0-.38-.13.57.57,0,0,0-.56.58.59.59,0,0,0,.56.54.74.74,0,0,0,.25-.05v-.16h-.18a0,0,0,0,1,0,0h0v-.28a.05.05,0,0,1,0-.05h.59a.05.05,0,0,1,.05.05v.75a.08.08,0,0,1,0,0,1.51,1.51,0,0,1-.72.18,1,1,0,0,1-1.07-1,1,1,0,0,1,1-1Z"/><path class="cls-14" d="M229.21,220a.06.06,0,0,1,.06-.05h1.2a.06.06,0,0,1,.06.05h0v.3a.06.06,0,0,1-.06.06h-.8v.34h.66a0,0,0,0,1,0,.05V221a.05.05,0,0,1,0,0h-.66v.37h.8a.06.06,0,0,1,.06.06v.3a.06.06,0,0,1-.06,0h-1.2a.06.06,0,0,1-.06,0Z"/><path class="cls-15" d="M217.47,209.09a0,0,0,0,1,0,0h.05l.79.74h0v-.68a0,0,0,0,1,0,0h.24a0,0,0,0,1,0,0v1.3s0,0,0,0h-.06l-.79-.76h0v.71s0,0,0,0h-.24a0,0,0,0,1,0,0Z"/><path class="cls-15" d="M219,210.37l.63-1.29a0,0,0,0,1,0,0h0s0,0,0,0l.62,1.29s0,0,0,0h-.24s-.05,0-.07,0l-.07-.15h-.55l-.07.16a.08.08,0,0,1-.07,0h-.22a0,0,0,0,1,0,0Zm.83-.41-.15-.33h0l-.16.33Z"/><path class="cls-15" d="M220.66,210.24l.09-.16a0,0,0,0,1,.07,0,.56.56,0,0,0,.28.1.12.12,0,0,0,.14-.1h0c0-.08-.07-.14-.2-.19s-.39-.2-.39-.43.15-.38.46-.38a.76.76,0,0,1,.43.14,0,0,0,0,1,0,.06l-.1.15s0,0-.07,0a.69.69,0,0,0-.29-.12.1.1,0,0,0-.12.09h0c0,.07.06.12.22.19s.4.17.4.43a.44.44,0,0,1-.48.4.63.63,0,0,1-.45-.15S220.64,210.27,220.66,210.24Z"/><path class="cls-15" d="M221.85,210.37l.63-1.29,0,0h0s0,0,0,0l.62,1.29s0,0,0,0h-.24s-.05,0-.07,0l-.08-.15h-.54l-.07.16a.08.08,0,0,1-.07,0h-.22s0,0,0,0Zm.82-.41-.15-.32h0l-.15.32Z"/><path class="cls-14" d="M220.28,226.63a10.47,10.47,0,0,1-8-3.69.12.12,0,0,1,0-.17.14.14,0,0,1,.18,0,10.31,10.31,0,0,0,14.14,1.43,10,10,0,0,0,.77-.67,10.57,10.57,0,0,0,.73-.77.12.12,0,0,1,.19.15h0c-.23.27-.48.54-.74.79A10.5,10.5,0,0,1,220.28,226.63Z"/><path class="cls-14" d="M212.08,211a.1.1,0,0,1-.07,0,.12.12,0,0,1,0-.17h0a10.56,10.56,0,0,1,14.31-2.18.12.12,0,0,1,0,.17.14.14,0,0,1-.18,0,10.3,10.3,0,0,0-14,2.14A.12.12,0,0,1,212.08,211Z"/></g></g><text class="cls-2" transform="translate(100.14 302.05)">Dana</text><circle class="cls-1" cx="652.57" cy="182.24" r="173"/><rect class="cls-16" x="579.09" y="164.32" width="143.23" height="44.94" rx="22.47"/><path class="cls-3" d="M564.84,255.85c-3.93-51,37.67-94.67,88-94.65,50,0,91.39,43.09,88,93.76Z"/><ellipse class="cls-16" cx="651.19" cy="165.88" rx="56.11" ry="43.5"/><circle class="cls-6" cx="650.59" cy="125.27" r="74.28" transform="translate(422.72 747.39) rotate(-80.78)"/><path d="M650.59,53.49a71.78,71.78,0,1,1-71.78,71.78,71.86,71.86,0,0,1,71.78-71.78m0-5a76.78,76.78,0,1,0,76.78,76.78,76.77,76.77,0,0,0-76.78-76.78Z"/><path class="cls-17" d="M584.5,99.07c-8.88,27.45-2.59,57,16.58,76.42,22.26,22.51,51.84,21.11,55,20.91,4.83-.31,28.07-2.29,45.9-20.91C721,155.72,726.18,125.12,716,96.91a24.42,24.42,0,0,0-5.52-6.73c-13.14-11-29.14.85-59.12,1.44-30.79.61-47.23-11.26-61,.48A26.82,26.82,0,0,0,584.5,99.07Z"/><circle class="cls-18" cx="603.12" cy="110.01" r="8.05"/><circle class="cls-18" cx="609.13" cy="126.83" r="3.24"/><path class="cls-18" d="M609.25,177.66s26.13,21.72,59.6,13.69c17.43-4.18,42.06-23.15,46.62-44.21,0,0-16.87,30.58-67.29,34.6C635.22,182.78,609.25,177.66,609.25,177.66Z"/><g id="Layer_2-4" data-name="Layer 2"><g id="Layer_1-2-4" data-name="Layer 1-2"><path class="cls-14" d="M686.78,218.77h-.84V224h.5v-2.47h.35a.81.81,0,0,0,.92-.94v-.86a.94.94,0,0,0-.23-.71A.91.91,0,0,0,686.78,218.77Zm.44.94v.87a.47.47,0,0,1-.11.34.42.42,0,0,1-.32.11h-.35v-1.77h.34a.42.42,0,0,1,.34.1.54.54,0,0,1,.09.35Z"/><path class="cls-14" d="M704,221.94a.93.93,0,0,0-.18-.34,5.66,5.66,0,0,0-.42-.43,3.28,3.28,0,0,1-.4-.43.51.51,0,0,1-.09-.16,1,1,0,0,1,0-.24v-.77c0-.25.12-.37.35-.37a.28.28,0,0,1,.27.12.6.6,0,0,1,.07.32v.88H704v-1a1,1,0,0,0-.18-.65.8.8,0,0,0-.63-.21.75.75,0,0,0-.84.86v.78a2.43,2.43,0,0,0,0,.38.57.57,0,0,0,.15.3c.07.09.15.17.22.25l.21.21.21.2.19.21.08.11a.37.37,0,0,1,0,.11.61.61,0,0,1,0,.13v.2h0v.74a.44.44,0,0,1-.08.29.33.33,0,0,1-.27.09.26.26,0,0,1-.27-.12.64.64,0,0,1-.07-.33v-1.05h-.48v1.11a1,1,0,0,0,.2.64,1,1,0,0,0,1.28,0,.93.93,0,0,0,.19-.64v-.75A2,2,0,0,0,704,221.94Z"/><path class="cls-14" d="M685.1,221.6a5.66,5.66,0,0,0-.42-.43,3.28,3.28,0,0,1-.4-.43.51.51,0,0,1-.09-.16.65.65,0,0,1,0-.24v-.77c0-.25.11-.37.34-.37a.28.28,0,0,1,.27.12.6.6,0,0,1,.07.32v.88h.46v-1a1,1,0,0,0-.18-.65.8.8,0,0,0-.63-.21c-.56,0-.83.29-.83.86v.78a1.62,1.62,0,0,0,0,.38.57.57,0,0,0,.15.3c.07.09.15.17.22.25l.21.21.21.2.19.21.08.11a.54.54,0,0,1,0,.11.61.61,0,0,1,0,.13v.94a.44.44,0,0,1-.08.29.34.34,0,0,1-.27.1.29.29,0,0,1-.27-.13.64.64,0,0,1-.07-.33v-1.05h-.47v1.11a.92.92,0,0,0,.19.64.83.83,0,0,0,.64.22.8.8,0,0,0,.64-.22.93.93,0,0,0,.19-.64v-.75a2,2,0,0,0,0-.49A.88.88,0,0,0,685.1,221.6Z"/><path class="cls-14" d="M701,218.77h-.85V224h.5v-2.47H701a1,1,0,0,0,.7-.23.94.94,0,0,0,.22-.71v-.86a1,1,0,0,0-.23-.71A.91.91,0,0,0,701,218.77Zm.43.94v.87a.47.47,0,0,1-.11.34.41.41,0,0,1-.32.11h-.35v-1.77H701a.41.41,0,0,1,.34.1.55.55,0,0,1,.1.35Z"/><path class="cls-14" d="M698.75,218.77h-.84V224h.49v-2.47h.35a.82.82,0,0,0,.93-.94v-.86a1,1,0,0,0-.23-.71A.9.9,0,0,0,698.75,218.77Zm.43,1.81a.47.47,0,0,1-.11.34.42.42,0,0,1-.32.11h-.35v-1.77h.34a.4.4,0,0,1,.33.1.5.5,0,0,1,.1.35h0Z"/><path class="cls-14" d="M696.12,218.77l-.75,5.21h.49l.12-.87h.81l.11.87h.5l-.69-5.21Zm-.08,3.89.18-1.33.18-1.34c.05.45.1.9.16,1.34s.11.89.17,1.33Z"/><path class="cls-14" d="M688.57,218.77l-.75,5.21h.49l.12-.87h.8l.12.87h.5l-.7-5.21Zm.61,3.89h-.69l.18-1.33c.06-.44.12-.89.17-1.34.06.45.11.9.17,1.34S689.12,222.22,689.18,222.66Z"/><polygon class="cls-14" points="692.98 221.57 693.64 221.57 693.64 221.08 692.98 221.08 692.98 219.26 693.91 219.26 693.91 218.77 692.48 218.77 692.48 223.98 692.48 223.98 693.95 223.98 693.95 223.51 692.98 223.51 692.98 221.57"/><path class="cls-14" d="M691.11,218.71c-.57,0-.86.3-.86.9v3.55a.77.77,0,0,0,.86.88.74.74,0,0,0,.6-.22,1,1,0,0,0,.19-.67v-1.08h-.46v1.09a.48.48,0,0,1-.07.31.32.32,0,0,1-.26.1c-.24,0-.36-.14-.36-.41V219.6c0-.27.12-.4.36-.4a.28.28,0,0,1,.26.1.46.46,0,0,1,.07.3v.92h.46v-.92C691.9,219,691.63,218.71,691.11,218.71Z"/><path class="cls-14" d="M700.83,216.07a1.57,1.57,0,1,1,1.63-1.57A1.6,1.6,0,0,1,700.83,216.07Zm0-2.9a1.33,1.33,0,1,0,1.38,1.33A1.35,1.35,0,0,0,700.83,213.17Z"/><path class="cls-14" d="M701.9,213.59a.12.12,0,0,1-.13-.12.2.2,0,0,1,0-.08l1.4-1.35a.13.13,0,0,1,.18,0,.11.11,0,0,1,0,.17l-1.4,1.35A.16.16,0,0,1,701.9,213.59Z"/><path class="cls-14" d="M700.69,213.17a.12.12,0,0,1-.13-.12.11.11,0,0,1,0-.07l1.26-1.51a.12.12,0,0,1,.17,0,.11.11,0,0,1,0,.17l-1.25,1.51A.13.13,0,0,1,700.69,213.17Z"/><path class="cls-14" d="M699.88,213.49h0a.12.12,0,0,1-.06-.16h0l1.57-3.27a.12.12,0,0,1,.16-.06h0a.13.13,0,0,1,.07.16L700,213.42A.12.12,0,0,1,699.88,213.49Z"/><path class="cls-14" d="M702.33,214.76a.12.12,0,0,1-.12-.12.13.13,0,0,1,0-.09l1.57-1.21a.13.13,0,0,1,.18,0,.14.14,0,0,1,0,.16l-1.57,1.2A.11.11,0,0,1,702.33,214.76Z"/><path class="cls-14" d="M702,215.53a.12.12,0,0,1-.12-.12.14.14,0,0,1,.07-.11l3.4-1.51a.14.14,0,0,1,.15.09.13.13,0,0,1,0,.13l-3.4,1.51Z"/><path class="cls-14" d="M683.79,216.89a0,0,0,0,1,0,0h.22l0,0V218a0,0,0,0,1,0,0h-.23a0,0,0,0,1,0,0Z"/><path class="cls-14" d="M684.91,216.88a0,0,0,0,1,0,0h0l.71.66h0v-.61a0,0,0,0,1,0,0H686l0,0v1.16l0,0h-.06l-.7-.68h0V218a0,0,0,0,1,0,0H685s0,0,0,0Z"/><path class="cls-14" d="M687,217.11h-.25s0,0,0,0h0v-.19l0,0h.8l0,0v.19a0,0,0,0,1,0,0h-.25V218s0,0,0,0H687a0,0,0,0,1,0,0Z"/><path class="cls-14" d="M688.26,216.89a0,0,0,0,1,0,0H689a0,0,0,0,1,0,0v.19a0,0,0,0,1,0,0h-.49v.22h.4s0,0,0,0v.19s0,0,0,0h-.4v.23H689a0,0,0,0,1,0,0h0V218a0,0,0,0,1,0,0h-.74a0,0,0,0,1,0,0h0Z"/><path class="cls-14" d="M689.83,216.89a0,0,0,0,1,0,0h.53a.37.37,0,0,1,.12.72l.25.43s0,0,0,0h-.26l0,0-.23-.45h-.13V218s0,0,0,0h-.21a0,0,0,0,1,0,0Zm.55.48a.13.13,0,0,0,0-.26h-.27v.26Z"/><path class="cls-14" d="M691.56,216.88s0,0,0,0h0l.71.66h0v-.61a0,0,0,0,1,0,0h.22a0,0,0,0,1,0,0v1.16a0,0,0,0,1,0,0h-.05l-.71-.68h0V218a0,0,0,0,1,0,0h-.21s0,0,0,0Z"/><path class="cls-14" d="M693.3,218l.56-1.16s0,0,0,0h0l0,0,.55,1.16s0,0,0,0h-.22s0,0-.06,0l-.06-.14h-.48l-.06.14a.07.07,0,0,1-.07,0h-.2a0,0,0,0,1,0,0Zm.73-.37-.13-.28h0l-.13.28Z"/><path class="cls-14" d="M695.27,217.11H695s0,0,0,0h0v-.19l0,0h.79a0,0,0,0,1,0,0v.19s0,0,0,0h-.25V218a0,0,0,0,1,0,0h-.22a0,0,0,0,1,0,0Z"/><path class="cls-14" d="M696.55,216.89a0,0,0,0,1,0,0h.22l0,0V218a0,0,0,0,1,0,0h-.22a0,0,0,0,1,0,0Z"/><path class="cls-14" d="M698.22,216.84a.62.62,0,1,1-.64.62h0a.63.63,0,0,1,.63-.62Zm0,1a.35.35,0,0,0,.35-.34.35.35,0,0,0-.35-.35.35.35,0,0,0-.36.34h0a.35.35,0,0,0,.36.33Z"/><path class="cls-14" d="M699.6,216.88a0,0,0,0,1,0,0h0l.71.66h0v-.61a0,0,0,0,1,0,0h.22a0,0,0,0,1,0,0v1.16l0,0h-.06l-.7-.68h0V218a0,0,0,0,1,0,0h-.21s0,0,0,0Z"/><path class="cls-14" d="M701.35,218l.56-1.16s0,0,0,0h0s0,0,0,0l.56,1.16s0,0,0,0h-.22a.05.05,0,0,1-.06,0l-.07-.14h-.48l-.06.14a.06.06,0,0,1-.06,0h-.2s0,0,0,0A0,0,0,0,1,701.35,218Zm.73-.37-.13-.28h0l-.13.28Z"/><path class="cls-14" d="M703.22,216.89a0,0,0,0,1,0,0h.21a0,0,0,0,1,0,0v.92h.43a0,0,0,0,1,0,0h0V218a0,0,0,0,1,0,0h-.67s0,0,0,0Z"/><path class="cls-14" d="M684.53,224.61a1,1,0,0,1,.7.26.06.06,0,0,1,0,.08h0l-.22.23a0,0,0,0,1-.07,0,.63.63,0,0,0-.39-.15.58.58,0,0,0-.59.57.57.57,0,0,0,.59.57.62.62,0,0,0,.38-.13.06.06,0,0,1,.08,0l.22.23a0,0,0,0,1,0,.07,1,1,0,0,1-.7.27,1,1,0,1,1,0-2Z"/><path class="cls-14" d="M686.1,224.7a.06.06,0,0,1,.06-.06h.34a.06.06,0,0,1,0,.06h0v.69h.83v-.7a0,0,0,0,1,0-.05h.35a0,0,0,0,1,.05.05v1.84a.06.06,0,0,1-.05.06h-.34a.06.06,0,0,1-.06-.06v-.73h-.83v.73a.06.06,0,0,1,0,.06h-.34a.06.06,0,0,1-.06-.06Z"/><path class="cls-14" d="M688.59,226.52l.9-1.88a.09.09,0,0,1,0,0h0l0,0,.91,1.88a0,0,0,0,1,0,.06h-.35s-.07,0-.1-.07l-.1-.22h-.79l-.1.22a.12.12,0,0,1-.1.07h-.32a.06.06,0,0,1-.06-.05Zm1.19-.59-.23-.46h0l-.22.46Z"/><path class="cls-14" d="M691.28,224.7a.06.06,0,0,1,.06-.06h.34a.06.06,0,0,1,.05.06v1.48h.69a.06.06,0,0,1,.06,0v.31a.06.06,0,0,1-.06.05h-1.08a.06.06,0,0,1-.06-.05Z"/><path class="cls-14" d="M693.28,224.7a.06.06,0,0,1,.05-.06h.34a.06.06,0,0,1,.06.06v1.48h.69a0,0,0,0,1,.05,0v.31a0,0,0,0,1-.05.05h-1.09a0,0,0,0,1-.05-.05Z"/><path class="cls-14" d="M695.27,224.7a.06.06,0,0,1,.06-.06h1.19a.06.06,0,0,1,.06.06h0v.3a.06.06,0,0,1-.06.05h-.8v.34h.66s0,0,.06.06v.3a.06.06,0,0,1-.06.05h-.66v.38h.8a.06.06,0,0,1,.06,0v.3a.06.06,0,0,1-.06.06h-1.19a.06.06,0,0,1-.06-.06Z"/><path class="cls-14" d="M697.48,224.66s0,0,.06,0h.07l1.15,1.08h0v-1a.06.06,0,0,1,.06-.06h.35a.06.06,0,0,1,.05.06v1.87a.05.05,0,0,1-.05.05h-.09l-1.14-1.11h0v1a.06.06,0,0,1-.06.05h-.34a0,0,0,0,1,0-.05Z"/><path class="cls-14" d="M701.13,224.62a1.1,1.1,0,0,1,.7.26,0,0,0,0,1,0,.07h0l-.22.24a.06.06,0,0,1-.08,0,.56.56,0,0,0-.93.45.56.56,0,0,0,.55.53.75.75,0,0,0,.26,0V226h-.18s-.06,0-.06,0h0v-.27a0,0,0,0,1,.05,0h.6a.05.05,0,0,1,0,0v.75a.05.05,0,0,1,0,0,1.44,1.44,0,0,1-.71.18,1,1,0,1,1-.07-2h.07Z"/><path class="cls-14" d="M702.78,224.7a.06.06,0,0,1,.06-.06H704a.05.05,0,0,1,.05.05h0v.3a0,0,0,0,1-.05.05h-.8v.34h.66a.06.06,0,0,1,.05.06v.3a0,0,0,0,1-.05.05h-.66v.38h.8a0,0,0,0,1,.05,0v.3a.06.06,0,0,1-.05.06h-1.2a.06.06,0,0,1-.06-.06Z"/><path class="cls-15" d="M691,213.82s0,0,0,0h0l.8.74h0v-.69s0,0,0,0h.24s0,0,0,0v1.3s0,0,0,0h-.06l-.79-.77h0v.72s0,0,0,0h-.24a0,0,0,0,1,0,0Z"/><path class="cls-15" d="M692.6,215.11l.62-1.3a.05.05,0,0,1,0,0h0l0,0,.63,1.3s0,0,0,0h-.25s0,0-.07,0l-.07-.15H693l-.07.15a.08.08,0,0,1-.07,0h-.22a.05.05,0,0,1,0,0S692.59,215.11,692.6,215.11Zm.82-.42-.15-.32h0l-.15.32Z"/><path class="cls-15" d="M694.22,215l.1-.16s0,0,.07,0a.57.57,0,0,0,.28.11.12.12,0,0,0,.14-.11h0c0-.08-.07-.15-.21-.2s-.39-.19-.39-.43.16-.38.47-.38a.71.71,0,0,1,.42.14.07.07,0,0,1,0,.07l-.11.14s0,0-.06,0a.81.81,0,0,0-.29-.12.11.11,0,0,0-.12.1h0c0,.07.06.13.23.19s.39.17.39.44a.44.44,0,0,1-.47.4.72.72,0,0,1-.45-.15S694.21,215,694.22,215Z"/><path class="cls-15" d="M695.42,215.11l.63-1.3,0,0h0l0,0,.63,1.3s0,0,0,0h-.25s0,0-.07,0l-.07-.15h-.54l-.07.15a.09.09,0,0,1-.08,0h-.22s0,0,0,0Zm.82-.42-.15-.32h0l-.15.32Z"/><path class="cls-14" d="M693.85,231.36a10.49,10.49,0,0,1-8-3.68.12.12,0,0,1,0-.17.13.13,0,0,1,.18,0A10.32,10.32,0,0,0,700.18,229a8.21,8.21,0,0,0,.77-.67,7.46,7.46,0,0,0,.72-.77.14.14,0,0,1,.18,0,.12.12,0,0,1,0,.17h0a9.22,9.22,0,0,1-.74.79A10.46,10.46,0,0,1,693.85,231.36Z"/><path class="cls-14" d="M685.65,215.74l-.07,0a.12.12,0,0,1,0-.17h0a10.55,10.55,0,0,1,14.31-2.19.12.12,0,0,1,0,.17.12.12,0,0,1-.17,0,10.31,10.31,0,0,0-14,2.13A.12.12,0,0,1,685.65,215.74Z"/></g></g><text class="cls-2" transform="translate(580.7 309.79)">Pati</text><circle class="cls-1" cx="177" cy="606.5" r="173"/><path class="cls-3" d="M120.35,697.09C117.7,662,145.86,632,179.94,632c33.84,0,61.88,29.63,59.59,64.47Z"/><path class="cls-19" d="M95.91,568.43c-3.36,9.48-2.14,21.4,2.14,25.06s10.08,14.36,18.94,13.75,16.5,9.48,19,10.39,16.5,2.75,23.22-5.19,65.09-3.75,64.63,4.39,15.47,20.55,26.91,1.66,10.53-25,8.7-29.58-16.81-18-10.39-32.09,13.75-35.75-4.28-37,1.53-18.34-7.34-21.39-14.66-45.54-45.83-23.84S138.69,492,138.69,492s-17.42-1.53,3.36,20.17-29-9.48-29-9.48-20.78-15.89-4.89,25.37-21.7-9.17-24.75,11.3S95.91,568.43,95.91,568.43Z"/><ellipse class="cls-4" cx="177.96" cy="582.49" rx="44.34" ry="59.46"/><path d="M178,524.53c23.62,0,42.83,26,42.83,58s-19.21,58-42.83,58-42.84-26-42.84-58,19.22-58,42.84-58m0-3c-25.32,0-45.84,27.29-45.84,61s20.52,61,45.84,61,45.83-27.3,45.83-61-20.52-61-45.83-61Z"/><path class="cls-20" d="M186.54,567.7c-.23.4-3.93,7-.92,12.22,3.69,6.43,15.41,7.37,20.17,1.22a11.18,11.18,0,0,0,.31-12.83C202.43,563.23,193.4,562,186.54,567.7Z"/><path class="cls-20" d="M150.17,567.7c-.23.4-3.92,7-.91,12.22,3.68,6.43,15.41,7.37,20.17,1.22a11.18,11.18,0,0,0,.3-12.83C166.06,563.23,157,562,150.17,567.7Z"/><path class="cls-6" d="M157.94,582.8s8.73,2.88,12-6Z"/><path class="cls-6" d="M206.32,577.18l-12,6.05s8.74,2.88,12-6.05"/><line class="cls-13" x1="171.85" y1="575.31" x2="184.37" y2="575.31"/><path class="cls-21" d="M168.94,696.47v-54.7s8.56,2.45,16.81.62v54.08Z"/><path class="cls-22" d="M162.22,643.3c-.31,4.53-1.79,17.42-11.61,24.45a23.49,23.49,0,0,1-3.67,2.14l12.53-.31"/><line class="cls-22" x1="159.47" y1="669.58" x2="159.47" y2="696.47"/><path class="cls-22" d="M193.39,642.39c.31,4.52,1.78,17.41,11.61,24.44a23.49,23.49,0,0,0,3.67,2.14l-12.53-.3"/><line class="cls-22" x1="196.14" y1="668.67" x2="196.14" y2="696.47"/><path class="cls-23" d="M132.12,582.49s-9-11.31.77-11.16"/><path class="cls-23" d="M223.92,582.35s9-11.31-.77-11.16"/><path class="cls-24" d="M171.61,563.94s-27.76-10.3-28.2,0"/><path class="cls-24" d="M184.48,563.8s27.76-10.3,28.2,0"/><path class="cls-22" d="M159.16,612.44s2.45,13.67,34.23,2.1"/><path class="cls-22" d="M113.55,574.61s-6-34.6,8.64-29.4"/><g id="Layer_2-5" data-name="Layer 2"><g id="Layer_1-2-5" data-name="Layer 1-2"><path class="cls-14" d="M208.27,684.78h-.49V688h.29v-1.5h.21a.56.56,0,0,0,.41-.14.63.63,0,0,0,.13-.43v-.52a.61.61,0,0,0-.14-.44A.55.55,0,0,0,208.27,684.78Zm.25.58v.52a.23.23,0,0,1-.25.28h-.2v-1.08h.2a.25.25,0,0,1,.2.06.31.31,0,0,1,.05.21Z"/><path class="cls-14" d="M218.35,686.71a.53.53,0,0,0-.11-.21l-.24-.26a1.48,1.48,0,0,1-.24-.26.31.31,0,0,1,0-.1.34.34,0,0,1,0-.14v-.47c0-.15.07-.23.2-.23a.16.16,0,0,1,.16.08.33.33,0,0,1,0,.19v.54h.27v-.58a.59.59,0,0,0-.1-.39.45.45,0,0,0-.37-.13c-.33,0-.49.17-.49.52v.47a1.69,1.69,0,0,0,0,.23.42.42,0,0,0,.09.19l.13.15.13.13.11.12.12.13,0,.06,0,.07s0,0,0,.08V687h0v.45a.25.25,0,0,1,0,.17.23.23,0,0,1-.32,0,.36.36,0,0,1,0-.2v-.64h-.28v.67a.6.6,0,0,0,.11.39.49.49,0,0,0,.38.14.45.45,0,0,0,.37-.14.6.6,0,0,0,.11-.39V687A1,1,0,0,0,218.35,686.71Z"/><path class="cls-14" d="M207.28,686.5a2,2,0,0,0-.24-.26,1.94,1.94,0,0,1-.23-.26.21.21,0,0,1-.06-.1.66.66,0,0,1,0-.14v-.47c0-.15.07-.23.2-.23a.18.18,0,0,1,.16.08.43.43,0,0,1,0,.19v.54h.27v-.58a.59.59,0,0,0-.11-.39.44.44,0,0,0-.37-.13c-.32,0-.49.17-.49.52v.47a1.64,1.64,0,0,0,0,.23.34.34,0,0,0,.09.19l.13.15.12.13.12.12a.69.69,0,0,1,.11.13l.05.06,0,.07,0,.08v.57a.26.26,0,0,1,0,.17.17.17,0,0,1-.16.06.17.17,0,0,1-.16-.07.45.45,0,0,1,0-.2v-.64h-.28v.67a.6.6,0,0,0,.12.39.47.47,0,0,0,.37.14.48.48,0,0,0,.38-.14.6.6,0,0,0,.11-.39V687a1.53,1.53,0,0,0,0-.3A.43.43,0,0,0,207.28,686.5Z"/><path class="cls-14" d="M216.62,684.78h-.5V688h.29v-1.5h.21a.55.55,0,0,0,.41-.14.58.58,0,0,0,.13-.43v-.52a.61.61,0,0,0-.13-.44A.56.56,0,0,0,216.62,684.78Zm.25.58v.52a.31.31,0,0,1-.06.21.26.26,0,0,1-.19.07h-.21v-1.08h.2a.23.23,0,0,1,.2.06.39.39,0,0,1,.06.21Z"/><path class="cls-14" d="M215.28,684.78h-.49V688h.29v-1.5h.2a.53.53,0,0,0,.41-.14.58.58,0,0,0,.13-.43v-.52a.61.61,0,0,0-.13-.44A.53.53,0,0,0,215.28,684.78Zm.25,1.1a.23.23,0,0,1-.25.28h-.2v-1.08h.2a.22.22,0,0,1,.19.06.39.39,0,0,1,.06.21h0Z"/><path class="cls-14" d="M213.74,684.78,213.3,688h.29l.07-.53h.47l.07.53h.29l-.41-3.17Zm-.05,2.37c0-.27.08-.54.11-.81s.07-.54.1-.81c0,.27.06.54.1.81s.06.54.1.81Z"/><path class="cls-14" d="M209.32,684.78l-.44,3.17h.28l.07-.53h.48l.07.53h.29l-.41-3.17Zm.35,2.37h-.4c0-.27.07-.54.11-.81s.07-.54.1-.81l.09.81C209.61,686.61,209.64,686.88,209.67,687.15Z"/><polygon class="cls-14" points="211.9 686.48 212.29 686.48 212.29 686.19 211.9 686.19 211.9 685.08 212.45 685.08 212.45 684.78 211.61 684.78 211.61 687.95 211.61 687.95 212.47 687.95 212.47 687.66 211.9 687.66 211.9 686.48"/><path class="cls-14" d="M210.81,684.75q-.51,0-.51.54v2.16q0,.54.51.54a.47.47,0,0,0,.35-.13.67.67,0,0,0,.11-.41v-.66H211v.66a.31.31,0,0,1,0,.19.19.19,0,0,1-.16.06c-.14,0-.21-.08-.21-.25v-2.16c0-.16.07-.25.21-.25a.23.23,0,0,1,.16.06.33.33,0,0,1,0,.19v.56h.27v-.56C211.27,684.93,211.11,684.75,210.81,684.75Z"/><path class="cls-14" d="M216.5,683.14a1,1,0,1,1,1-.95A1,1,0,0,1,216.5,683.14Zm0-1.76a.81.81,0,1,0,.81.81A.81.81,0,0,0,216.5,681.38Z"/><path class="cls-14" d="M217.13,681.64a.09.09,0,0,1-.08-.08.08.08,0,0,1,0,0l.83-.82a.07.07,0,0,1,.1.1l-.82.82S217.15,681.64,217.13,681.64Z"/><path class="cls-14" d="M216.42,681.38a.08.08,0,0,1-.08-.07.08.08,0,0,1,0,0l.74-.92a.08.08,0,0,1,.1,0,.08.08,0,0,1,0,.11l-.74.91A.05.05,0,0,1,216.42,681.38Z"/><path class="cls-14" d="M216,681.58h0a.07.07,0,0,1,0-.1h0l.92-2a.07.07,0,0,1,.09,0h0a.07.07,0,0,1,0,.09l-.92,2A.06.06,0,0,1,216,681.58Z"/><path class="cls-14" d="M217.38,682.35a.08.08,0,0,1-.07-.08.08.08,0,0,1,0,0l.92-.74a.09.09,0,0,1,.11,0,.08.08,0,0,1,0,.1l-.91.73Z"/><path class="cls-14" d="M217.19,682.82a.09.09,0,0,1-.08-.08s0,0,0-.06l2-.92a.06.06,0,0,1,.08,0,.08.08,0,0,1,0,.08l-2,.92Z"/><path class="cls-14" d="M206.52,683.64l0,0h.13l0,0v.69l0,0h-.13l0,0Z"/><path class="cls-14" d="M207.17,683.63l0,0h0l.42.4h0v-.37l0,0h.12l0,0v.7l0,0h0l-.41-.42h0v.39l0,0h-.12s0,0,0,0Z"/><path class="cls-14" d="M208.39,683.78h-.15l0,0h0v-.12l0,0h.46l0,0v.12l0,0h-.15v.55s0,0,0,0h-.12l0,0Z"/><path class="cls-14" d="M209.14,683.64s0,0,0,0h.43l0,0v.12l0,0h-.29v.13h.24l0,0V684l0,0h-.24v.14h.29l0,0h0v.11l0,0h-.43s0,0,0,0h0Z"/><path class="cls-14" d="M210.06,683.64l0,0h.31a.22.22,0,0,1,.07.44l.15.26a0,0,0,0,1,0,0h-.17l-.14-.28h-.07v.27l0,0h-.12l0,0Zm.32.29a.07.07,0,0,0,.07-.08.08.08,0,0,0-.07-.08h-.16v.16Z"/><path class="cls-14" d="M211.07,683.63l0,0h0l.42.4h0v-.37l0,0h.13l0,0v.7l0,0h0l-.41-.42h0v.39s0,0,0,0h-.13s0,0,0,0Z"/><path class="cls-14" d="M212.09,684.32l.33-.7h0l.33.7s0,0,0,0h-.13s0,0,0,0l0-.09h-.28l0,.09,0,0h-.12l0,0Zm.43-.22-.08-.17h0l-.08.17Z"/><path class="cls-14" d="M213.24,683.78h-.15l0,0h0v-.12l0,0h.47l0,0v.12l0,0h-.15v.55l0,0h-.13l0,0Z"/><path class="cls-14" d="M214,683.64l0,0h.13l0,0v.69l0,0H214l0,0Z"/><path class="cls-14" d="M215,683.61a.39.39,0,0,1,.38.38.38.38,0,0,1-.76,0h0a.38.38,0,0,1,.38-.38Zm0,.59a.21.21,0,1,0-.21-.21h0a.22.22,0,0,0,.21.21Z"/><path class="cls-14" d="M215.78,683.63l0,0h0l.41.4h0v-.37l0,0h.13l0,0v.7l0,0h0l-.41-.42h0v.39l0,0h-.13s0,0,0,0Z"/><path class="cls-14" d="M216.8,684.32l.33-.7h.05l.32.7s0,0,0,0h-.12s0,0,0,0l0-.09H217l0,.09,0,0h-.14Zm.43-.22-.08-.17h0l-.07.17Z"/><path class="cls-14" d="M217.9,683.64l0,0H218l0,0v.56h.25l0,0h0v.11l0,0h-.39l0,0Z"/><path class="cls-14" d="M207,688.34a.55.55,0,0,1,.41.15s0,0,0,0h0l-.13.14a0,0,0,0,1,0,0,.32.32,0,0,0-.23-.09.35.35,0,0,0-.34.35.34.34,0,0,0,.34.34.4.4,0,0,0,.23-.08h0l.13.14a0,0,0,0,1,0,0,.62.62,0,0,1-.41.16.61.61,0,0,1,0-1.22Z"/><path class="cls-14" d="M207.87,688.38l0,0h.21l0,0h0v.42h.48v-.43a0,0,0,0,1,0,0h.2s0,0,0,0v1.12s0,0,0,0h-.2a0,0,0,0,1,0,0v-.44h-.48v.44a0,0,0,0,1,0,0h-.21a0,0,0,0,1,0,0Z"/><path class="cls-14" d="M209.33,689.49l.53-1.14h.07l.53,1.14s0,0,0,0h-.2s-.05,0-.06,0l-.06-.13h-.46l-.06.14a.08.08,0,0,1-.07,0h-.18a0,0,0,0,1,0,0Zm.69-.36-.13-.27h0l-.13.27Z"/><path class="cls-14" d="M210.91,688.38a0,0,0,0,1,0,0h.2a0,0,0,0,1,0,0v.91h.4s0,0,0,0v.18a0,0,0,0,1,0,0h-.63s0,0,0,0Z"/><path class="cls-14" d="M212.07,688.38a0,0,0,0,1,0,0h.2a0,0,0,0,1,0,0v.91h.4s0,0,0,0v.18a0,0,0,0,1,0,0h-.63a0,0,0,0,1,0,0Z"/><path class="cls-14" d="M213.24,688.38a0,0,0,0,1,0,0h.7l0,0h0v.19a0,0,0,0,1,0,0h-.47v.21h.38s0,0,0,0V689a0,0,0,0,1,0,0h-.38v.23H214a0,0,0,0,1,0,0v.18a0,0,0,0,1,0,0h-.7s0,0,0,0Z"/><path class="cls-14" d="M214.54,688.37a0,0,0,0,1,0,0h0l.68.65h0v-.6s0,0,0,0h.21a0,0,0,0,1,0,0v1.13a0,0,0,0,1,0,0h-.05l-.67-.68h0v.63a0,0,0,0,1,0,0h-.2a0,0,0,0,1,0,0Z"/><path class="cls-14" d="M216.67,688.34a.65.65,0,0,1,.42.16,0,0,0,0,1,0,0h0l-.13.14a0,0,0,0,1-.05,0,.35.35,0,0,0-.22-.08.34.34,0,0,0-.32.36.33.33,0,0,0,.32.32l.15,0v-.09h-.11l0,0h0V689a0,0,0,0,1,0,0h.35a0,0,0,0,1,0,0v.45l0,0a.84.84,0,0,1-.41.11.61.61,0,1,1,0-1.21h0Z"/><path class="cls-14" d="M217.64,688.38a0,0,0,0,1,0,0h.7a0,0,0,0,1,0,0h0v.19a0,0,0,0,1,0,0h-.47v.21h.39a0,0,0,0,1,0,0V689l0,0h-.39v.23h.47a0,0,0,0,1,0,0v.18a0,0,0,0,1,0,0h-.7s0,0,0,0Z"/><path class="cls-15" d="M210.76,681.78s0,0,0,0h0l.47.44h0v-.41l0,0h.14s0,0,0,0v.79s0,0,0,0h0l-.46-.46h0v.43a0,0,0,0,1,0,0h-.14s0,0,0,0Z"/><path class="cls-15" d="M211.68,682.56l.36-.79h.06l.36.79s0,0,0,0h-.15s0,0,0,0l0-.1h-.32l0,.1s0,0,0,0h-.13l0,0S211.68,682.56,211.68,682.56Zm.48-.26-.09-.19h0l-.09.19Z"/><path class="cls-15" d="M212.63,682.48l.06-.1s0,0,0,0a.29.29,0,0,0,.16.07.08.08,0,0,0,.08-.07h0s0-.09-.12-.12-.23-.12-.23-.26a.25.25,0,0,1,.28-.23.46.46,0,0,1,.25.08,0,0,0,0,1,0,0l-.06.09s0,0,0,0a.33.33,0,0,0-.16-.07.07.07,0,0,0-.08.05h0s0,.07.13.11a.3.3,0,0,1,.23.27.26.26,0,0,1-.27.24.44.44,0,0,1-.27-.09A0,0,0,0,1,212.63,682.48Z"/><path class="cls-15" d="M213.33,682.56l.37-.79h.05l.37.79s0,0,0,0H214s0,0-.05,0l0-.1h-.32l0,.1s0,0,0,0h-.13l0,0Zm.48-.25-.09-.2h0l-.08.2Z"/><path class="cls-14" d="M212.41,692.44a6.09,6.09,0,0,1-4.69-2.24.08.08,0,0,1,0-.11.08.08,0,0,1,.1,0,5.89,5.89,0,0,0,8.29.87,5.82,5.82,0,0,0,.45-.4,6.14,6.14,0,0,0,.42-.47.08.08,0,0,1,.11,0,.09.09,0,0,1,0,.11h0a5,5,0,0,1-.44.48A6,6,0,0,1,212.41,692.44Z"/><path class="cls-14" d="M207.61,682.94h-.05a.08.08,0,0,1,0-.11h0a6,6,0,0,1,8.38-1.32.07.07,0,0,1,0,.1.08.08,0,0,1-.1,0,5.88,5.88,0,0,0-8.17,1.29Z"/></g></g><text class="cls-2" transform="translate(120.42 747.97)">Dan</text><line class="cls-25" x1="118.8" y1="102.33" x2="165.3" y2="148.83"/><line class="cls-25" x1="165.25" y1="102" x2="118.75" y2="148.5"/><line class="cls-25" x1="193.34" y1="102.65" x2="239.84" y2="149.15"/><line class="cls-25" x1="239.79" y1="102.32" x2="193.29" y2="148.82"/><line class="cls-25" x1="590.53" y1="103.71" x2="637.03" y2="150.21"/><line class="cls-25" x1="636.98" y1="103.38" x2="590.48" y2="149.88"/><line class="cls-25" x1="665.07" y1="104.03" x2="711.57" y2="150.53"/><line class="cls-25" x1="711.52" y1="103.71" x2="665.02" y2="150.21"/><line class="cls-25" x1="140.58" y1="560.7" x2="169.5" y2="589.62"/><line class="cls-25" x1="169.47" y1="560.5" x2="140.54" y2="589.42"/><line class="cls-25" x1="186.94" y1="560.9" x2="215.87" y2="589.83"/><line class="cls-25" x1="215.84" y1="560.7" x2="186.91" y2="589.62"/><line class="cls-25" x1="617.46" y1="556.61" x2="646.39" y2="585.53"/><line class="cls-25" x1="646.35" y1="556.41" x2="617.43" y2="585.33"/><line class="cls-25" x1="663.83" y1="556.81" x2="692.75" y2="585.74"/><line class="cls-25" x1="692.72" y1="556.61" x2="663.8" y2="585.53"/><circle class="cls-1" cx="412.2" cy="398.3" r="173"/><rect class="cls-16" x="338.73" y="380.39" width="143.23" height="44.94" rx="22.47"/><path class="cls-3" d="M324.47,471.92c-3.92-51,37.68-94.68,88-94.66,50,0,91.39,43.1,88,93.77Z"/><ellipse class="cls-16" cx="410.82" cy="381.95" rx="56.11" ry="43.5"/><circle class="cls-6" cx="410.22" cy="341.33" r="74.28" transform="translate(-67.45 103.38) rotate(-13.28)"/><path d="M410.22,269.55a71.79,71.79,0,1,1-71.78,71.78,71.86,71.86,0,0,1,71.78-71.78m0-5A76.79,76.79,0,1,0,487,341.33a76.79,76.79,0,0,0-76.78-76.78Z"/><path class="cls-17" d="M344.13,315.14c-8.87,27.45-2.59,57,16.59,76.42,22.25,22.51,51.83,21.11,55,20.91,4.82-.31,28.07-2.29,45.9-20.91,18.94-19.77,24.17-50.37,13.94-78.58a24.2,24.2,0,0,0-5.53-6.73c-13.13-11-29.14.85-59.12,1.44-30.79.61-47.22-11.26-61,.48A26.66,26.66,0,0,0,344.13,315.14Z"/><circle class="cls-18" cx="362.76" cy="326.07" r="8.05"/><circle class="cls-18" cx="368.77" cy="342.9" r="3.24"/><path class="cls-18" d="M368.89,393.72s26.12,21.73,59.6,13.7c17.42-4.18,42.05-23.15,46.62-44.22,0,0-16.87,30.59-67.29,34.61C394.86,398.84,368.89,393.72,368.89,393.72Z"/><g id="Layer_2-6" data-name="Layer 2"><g id="Layer_1-2-6" data-name="Layer 1-2"><path class="cls-14" d="M446.42,434.84h-.84v5.21h.49v-2.48h.35a1,1,0,0,0,.7-.22,1,1,0,0,0,.23-.71v-.86a1,1,0,0,0-.23-.72A1,1,0,0,0,446.42,434.84Zm.43.94v.86a.49.49,0,0,1-.11.35.41.41,0,0,1-.32.11h-.35v-1.78h.35a.44.44,0,0,1,.33.11.53.53,0,0,1,.1.35Z"/><path class="cls-14" d="M463.62,438a.88.88,0,0,0-.19-.34,5.6,5.6,0,0,0-.41-.43,3.24,3.24,0,0,1-.4-.43.39.39,0,0,1-.1-.16,1,1,0,0,1,0-.24v-.77c0-.25.11-.37.34-.37a.26.26,0,0,1,.27.12.52.52,0,0,1,.07.32v.88h.47v-.95a.94.94,0,0,0-.19-.65.8.8,0,0,0-.63-.21c-.55,0-.83.28-.83.86v.78a2.42,2.42,0,0,0,0,.38.61.61,0,0,0,.15.3l.23.25.21.21.2.2a1.9,1.9,0,0,1,.19.21.76.76,0,0,1,.08.11.53.53,0,0,1,.06.1.68.68,0,0,1,0,.14c0,.05,0,.12,0,.19h0v.75a.4.4,0,0,1-.08.28.34.34,0,0,1-.27.1.29.29,0,0,1-.27-.12.67.67,0,0,1-.08-.33v-1.05H462v1.1a.92.92,0,0,0,.2.65.83.83,0,0,0,.63.22.84.84,0,0,0,.64-.22,1,1,0,0,0,.19-.65v-.74A2,2,0,0,0,463.62,438Z"/><path class="cls-14" d="M444.73,437.67a5.6,5.6,0,0,0-.41-.43,3.24,3.24,0,0,1-.4-.43.54.54,0,0,1-.1-.16,1,1,0,0,1,0-.24v-.77c0-.25.12-.37.35-.37a.27.27,0,0,1,.27.12.59.59,0,0,1,.06.32v.88H445v-.95a.94.94,0,0,0-.19-.65.8.8,0,0,0-.63-.21c-.55,0-.83.28-.83.86v.78c0,.13,0,.25,0,.38a.61.61,0,0,0,.15.3l.23.25.21.21.2.2c.07.06.13.14.2.21l.07.11a.39.39,0,0,1,.06.11.59.59,0,0,1,0,.13c0,.06,0,.12,0,.2v.74a.51.51,0,0,1-.08.29.33.33,0,0,1-.27.09.29.29,0,0,1-.27-.12.67.67,0,0,1-.08-.33v-1.05h-.47v1.1a.92.92,0,0,0,.2.65,1,1,0,0,0,1.27,0,1,1,0,0,0,.2-.65v-.74a2,2,0,0,0-.05-.49A.88.88,0,0,0,444.73,437.67Z"/><path class="cls-14" d="M460.66,434.84h-.84v5.21h.5v-2.48h.35a1,1,0,0,0,.7-.22,1,1,0,0,0,.22-.71v-.86a.8.8,0,0,0-.93-.94Zm.43.94v.86a.48.48,0,0,1-.1.35.43.43,0,0,1-.32.11h-.35v-1.78h.34a.44.44,0,0,1,.33.11.48.48,0,0,1,.1.35Z"/><path class="cls-14" d="M458.38,434.84h-.84v5.21h.5v-2.48h.35a1,1,0,0,0,.7-.22,1,1,0,0,0,.22-.71v-.86a1,1,0,0,0-.22-.72A1,1,0,0,0,458.38,434.84Zm.43,1.8a.49.49,0,0,1-.11.35.41.41,0,0,1-.32.11H458v-1.78h.34a.45.45,0,0,1,.34.11.53.53,0,0,1,.1.35h0Z"/><path class="cls-14" d="M455.75,434.84l-.74,5.21h.48l.12-.87h.81l.12.87h.5l-.7-5.21Zm-.07,3.89.18-1.33c.05-.44.11-.89.17-1.34.05.45.11.89.16,1.34s.12.89.17,1.33Z"/><path class="cls-14" d="M448.2,434.84l-.74,5.21h.48l.12-.87h.81l.12.87h.49l-.69-5.21Zm.61,3.89h-.69l.18-1.33.18-1.34c0,.45.1.89.16,1.34S448.76,438.29,448.81,438.73Z"/><polygon class="cls-14" points="452.62 437.64 453.27 437.64 453.27 437.15 452.62 437.15 452.62 435.32 453.55 435.32 453.55 434.84 452.12 434.84 452.12 440.05 452.12 440.05 453.58 440.05 453.58 439.57 452.62 439.57 452.62 437.64"/><path class="cls-14" d="M450.74,434.78c-.57,0-.86.3-.86.9v3.55a.77.77,0,0,0,.86.88.76.76,0,0,0,.6-.22,1,1,0,0,0,.19-.67v-1.08h-.45v1.09a.52.52,0,0,1-.08.31.31.31,0,0,1-.26.1c-.24,0-.36-.14-.36-.41v-3.56c0-.27.12-.4.36-.4a.3.3,0,0,1,.27.09.57.57,0,0,1,.07.31v.92h.45v-.92C451.53,435.07,451.27,434.78,450.74,434.78Z"/><path class="cls-14" d="M460.47,432.14a1.58,1.58,0,1,1,1.63-1.57A1.61,1.61,0,0,1,460.47,432.14Zm0-2.91a1.34,1.34,0,1,0,1.38,1.34A1.36,1.36,0,0,0,460.47,429.23Z"/><path class="cls-14" d="M461.53,429.66a.12.12,0,0,1-.12-.12.16.16,0,0,1,0-.09l1.41-1.35a.14.14,0,0,1,.17,0,.11.11,0,0,1,0,.17l-1.4,1.35A.1.1,0,0,1,461.53,429.66Z"/><path class="cls-14" d="M460.32,429.24a.12.12,0,0,1-.12-.12.13.13,0,0,1,0-.08l1.25-1.51a.13.13,0,0,1,.18,0,.11.11,0,0,1,0,.16l-1.26,1.52A.15.15,0,0,1,460.32,429.24Z"/><path class="cls-14" d="M459.52,429.56h0a.11.11,0,0,1-.06-.16h0l1.56-3.27a.13.13,0,0,1,.17-.06h0a.12.12,0,0,1,.06.16l-1.57,3.27A.12.12,0,0,1,459.52,429.56Z"/><path class="cls-14" d="M462,430.83a.13.13,0,0,1-.13-.12.14.14,0,0,1,.05-.1l1.57-1.21a.14.14,0,0,1,.17,0,.11.11,0,0,1,0,.16l-1.56,1.21A.13.13,0,0,1,462,430.83Z"/><path class="cls-14" d="M461.64,431.6a.12.12,0,0,1-.06-.23l3.4-1.51a.13.13,0,0,1,.15.09.11.11,0,0,1-.05.12l-3.39,1.51Z"/><path class="cls-14" d="M443.43,433a0,0,0,0,1,0,0h.22a0,0,0,0,1,0,0v1.14a0,0,0,0,1,0,0h-.22a0,0,0,0,1,0,0Z"/><path class="cls-14" d="M444.55,432.94a0,0,0,0,1,0,0h0l.71.66h0V433s0,0,0,0h.21a0,0,0,0,1,0,0v1.15s0,0,0,0h-.05l-.7-.68h0v.64s0,0,0,0h-.21a0,0,0,0,1,0,0Z"/><path class="cls-14" d="M446.61,433.18h-.25a0,0,0,0,1,0,0h0V433a0,0,0,0,1,0,0h.79a0,0,0,0,1,0,0v.19a0,0,0,0,1,0,0h-.25v.92a0,0,0,0,1,0,0h-.22a0,0,0,0,1,0,0Z"/><path class="cls-14" d="M447.89,433s0,0,0,0h.73s0,0,0,0v.19s0,0,0,0h-.49v.22h.41a0,0,0,0,1,0,0v.18a0,0,0,0,1,0,0h-.41v.23h.49s0,0,0,0h0v.19s0,0,0,0h-.73s0,0,0,0h0Z"/><path class="cls-14" d="M449.47,433a0,0,0,0,1,0,0H450a.38.38,0,0,1,.4.35.39.39,0,0,1-.27.37l.24.42s0,0,0,.05h-.26l0,0-.24-.45h-.12v.43s0,0,0,0h-.21s0,0,0,0Zm.54.48a.13.13,0,0,0,.13-.14.13.13,0,0,0-.13-.13h-.26v.27Z"/><path class="cls-14" d="M451.19,432.94a0,0,0,0,1,0,0h0l.71.66h0V433a0,0,0,0,1,0,0h.22a0,0,0,0,1,0,0v1.15s0,0,0,0h-.05l-.7-.68h0v.64s0,0,0,0h-.21a0,0,0,0,1,0,0Z"/><path class="cls-14" d="M452.94,434.08l.55-1.15,0,0h0l0,0,.56,1.15a0,0,0,0,1,0,.05h-.21a.05.05,0,0,1-.06,0l-.07-.14h-.48l-.06.14a.07.07,0,0,1-.06,0H453s0,0,0,0S452.94,434.09,452.94,434.08Zm.73-.36-.14-.29h0l-.13.29Z"/><path class="cls-14" d="M454.9,433.18h-.25a0,0,0,0,1,0,0h0V433a0,0,0,0,1,0,0h.79a0,0,0,0,1,0,0v.19a0,0,0,0,1,0,0h-.26v.92a0,0,0,0,1,0,0h-.21a0,0,0,0,1,0,0Z"/><path class="cls-14" d="M456.18,433s0,0,0,0h.21a0,0,0,0,1,0,0v1.14a0,0,0,0,1,0,0h-.21a0,0,0,0,1,0,0Z"/><path class="cls-14" d="M457.85,432.91a.63.63,0,0,1,.64.62.63.63,0,0,1-.64.62.63.63,0,0,1-.64-.62h0a.63.63,0,0,1,.64-.62Zm0,1a.34.34,0,0,0,.36-.34.36.36,0,0,0-.71,0h0a.35.35,0,0,0,.35.34Z"/><path class="cls-14" d="M459.24,432.94a0,0,0,0,1,0,0h0l.71.66h0V433s0,0,0,0h.21a0,0,0,0,1,0,0v1.15s0,0,0,0h0l-.7-.68h0v.64s0,0,0,0h-.21a0,0,0,0,1,0,0Z"/><path class="cls-14" d="M461,434.08l.56-1.15,0,0h0l0,0,.55,1.15s0,0,0,0h-.22s0,0-.06,0l-.06-.14h-.48l-.07.14a.07.07,0,0,1-.06,0H461a0,0,0,0,1,0,0Zm.73-.36-.13-.29h0l-.13.29Z"/><path class="cls-14" d="M462.85,433s0,0,0,0h.21a0,0,0,0,1,0,0v.92h.43a0,0,0,0,1,0,0h0v.19a0,0,0,0,1,0,0h-.67a0,0,0,0,1,0,0Z"/><path class="cls-14" d="M444.17,440.68a1,1,0,0,1,.7.26,0,0,0,0,1,0,.07h0l-.23.22a0,0,0,0,1-.07,0,.6.6,0,0,0-.39-.14.59.59,0,0,0-.59.57.58.58,0,0,0,.59.57.62.62,0,0,0,.39-.14,0,0,0,0,1,.07,0l.23.23a.06.06,0,0,1,0,.08,1.06,1.06,0,0,1-.71.27,1,1,0,1,1,0-2Z"/><path class="cls-14" d="M445.73,440.76a.06.06,0,0,1,.06-.05h.34a.06.06,0,0,1,.06.05h0v.7H447v-.7a.06.06,0,0,1,.06-.05h.34a0,0,0,0,1,0,.05v1.84a0,0,0,0,1,0,0h-.34a.06.06,0,0,1-.06,0v-.73h-.82v.73a.06.06,0,0,1-.06,0h-.34a.06.06,0,0,1-.06,0Z"/><path class="cls-14" d="M448.22,442.59l.91-1.88a.05.05,0,0,1,.05,0h0a.05.05,0,0,1,.05,0l.9,1.87a.06.06,0,0,1,0,.07h-.35a.1.1,0,0,1-.1-.07l-.11-.22h-.78l-.11.22a.1.1,0,0,1-.1.07h-.32a.05.05,0,0,1,0-.05Zm1.19-.59-.22-.46h0L449,442Z"/><path class="cls-14" d="M450.92,440.76a0,0,0,0,1,.05-.05h.34a.06.06,0,0,1,.06.05v1.49h.69a0,0,0,0,1,.05.05v.3a.06.06,0,0,1-.05.06H451a.06.06,0,0,1-.05-.06Z"/><path class="cls-14" d="M452.91,440.76a0,0,0,0,1,0-.05h.35a0,0,0,0,1,.05.05v1.49h.69a.06.06,0,0,1,.06.05v.3a.06.06,0,0,1-.06.06H453a.06.06,0,0,1-.06-.06Z"/><path class="cls-14" d="M454.91,440.76a0,0,0,0,1,0-.05h1.2a0,0,0,0,1,0,.05h0v.31a.05.05,0,0,1,0,.05h-.8v.34H456a.06.06,0,0,1,.06.05v.31a0,0,0,0,1-.05.05h-.66v.37h.8a.06.06,0,0,1,0,.06v.3a0,0,0,0,1,0,0H455a0,0,0,0,1,0,0Z"/><path class="cls-14" d="M457.12,440.73a0,0,0,0,1,.05-.05h.07l1.16,1.07h0v-1a.05.05,0,0,1,.05-.05h.35a.05.05,0,0,1,.05.05v1.88a0,0,0,0,1-.05.05h-.05l0,0-1.14-1.1h0v1a0,0,0,0,1-.05.05h-.35a.05.05,0,0,1-.05-.05Z"/><path class="cls-14" d="M460.76,440.68a1.16,1.16,0,0,1,.71.27s0,0,0,.06h0l-.23.23a0,0,0,0,1-.07,0,.58.58,0,0,0-.38-.13.58.58,0,0,0-.56.58.59.59,0,0,0,.56.54.74.74,0,0,0,.25-.05V442h-.18a0,0,0,0,1-.05,0h0v-.27a.06.06,0,0,1,.05-.06h.59a.06.06,0,0,1,.05.06v.74a.08.08,0,0,1,0,.05,1.51,1.51,0,0,1-.72.18,1,1,0,1,1-.07-2Z"/><path class="cls-14" d="M462.42,440.76a0,0,0,0,1,.05-.05h1.2a.06.06,0,0,1,.06.05h0v.31a.06.06,0,0,1-.06.05h-.8v.34h.66a0,0,0,0,1,.05.05v.31a0,0,0,0,1-.05.05h-.66v.37h.8a.06.06,0,0,1,.06.06v.3a.06.06,0,0,1-.06,0h-1.2a0,0,0,0,1-.05,0Z"/><path class="cls-15" d="M450.67,429.89s0,0,0,0h.05l.79.74h0v-.69a0,0,0,0,1,0,0h.24s0,0,0,0v1.3s0,0,0,0h-.06l-.79-.76h0v.71s0,0,0,0h-.24a0,0,0,0,1,0,0Z"/><path class="cls-15" d="M452.23,431.17l.63-1.29s0,0,0,0h0s0,0,0,0l.63,1.29s0,0,0,.05h-.24a.07.07,0,0,1-.07,0l-.07-.16h-.55l-.07.16a.07.07,0,0,1-.07,0h-.22s0,0,0,0Zm.83-.41-.15-.32h0l-.16.32Z"/><path class="cls-15" d="M453.86,431l.09-.16a.06.06,0,0,1,.07,0,.69.69,0,0,0,.28.11c.07,0,.14-.05.14-.11h0c0-.08-.07-.14-.2-.19s-.39-.2-.39-.43.15-.38.46-.38a.74.74,0,0,1,.43.14,0,0,0,0,1,0,.06l-.1.15s0,0-.07,0a.69.69,0,0,0-.29-.12.1.1,0,0,0-.12.09h0c0,.07.06.12.22.19s.4.17.4.43a.44.44,0,0,1-.48.4.63.63,0,0,1-.45-.15S453.84,431.07,453.86,431Z"/><path class="cls-15" d="M455.05,431.17l.63-1.29s0,0,0,0h0s0,0,0,0l.62,1.29s0,0,0,.05h-.24a.07.07,0,0,1-.07,0L456,431h-.55l-.07.16a.07.07,0,0,1-.07,0h-.22s0,0,0,0Zm.83-.41-.16-.32h0l-.15.32Z"/><path class="cls-14" d="M453.48,447.43a10.48,10.48,0,0,1-8-3.69.12.12,0,0,1,0-.17.14.14,0,0,1,.18,0A10.31,10.31,0,0,0,459.81,445a9.85,9.85,0,0,0,.78-.67c.25-.24.49-.5.72-.77a.12.12,0,0,1,.17,0,.12.12,0,0,1,0,.17h0a9.22,9.22,0,0,1-.74.79A10.5,10.5,0,0,1,453.48,447.43Z"/><path class="cls-14" d="M445.28,431.81a.11.11,0,0,1-.07,0,.12.12,0,0,1,0-.17h0a10.56,10.56,0,0,1,14.31-2.18.12.12,0,0,1,0,.17.14.14,0,0,1-.18,0,10.29,10.29,0,0,0-14,2.13A.12.12,0,0,1,445.28,431.81Z"/></g></g><text class="cls-2" transform="translate(355.34 530.85)">YOU</text><line class="cls-25" x1="351.7" y1="323.05" x2="398.2" y2="369.55"/><line class="cls-25" x1="398.15" y1="322.73" x2="351.65" y2="369.23"/><line class="cls-25" x1="426.25" y1="323.38" x2="472.75" y2="369.88"/><line class="cls-25" x1="472.7" y1="323.05" x2="426.2" y2="369.55"/></g></g></svg>
