<svg xmlns="http://www.w3.org/2000/svg" viewBox="0 0 957.8 904.5"><defs><style>.cls-1,.cls-2,.cls-5{fill:#fff;}.cls-1,.cls-10,.cls-2,.cls-4,.cls-6,.cls-7,.cls-8,.cls-9{stroke:#000;}.cls-1,.cls-7,.cls-8,.cls-9{stroke-linecap:round;stroke-linejoin:round;}.cls-1,.cls-10,.cls-2,.cls-7,.cls-8,.cls-9{stroke-width:3px;}.cls-10,.cls-2,.cls-4,.cls-6{stroke-miterlimit:10;}.cls-3{fill:#ffedc9;}.cls-4{fill:#b3b3b3;}.cls-10,.cls-6,.cls-8{fill:none;}.cls-6{stroke-width:5px;}.cls-7{fill:#007406;}.cls-9{fill:#ffdc8a;}.cls-11{fill:#231f20;}.cls-12{fill:#ee2c3e;}</style></defs><g id="Layer_2" data-name="Layer 2"><g id="Layer_1-2" data-name="Layer 1"><path class="cls-1" d="M148.87,903c-10.47-138.31,100.59-256.72,235-256.67,133.43,0,244,116.85,235,254.26Z"/><path class="cls-2" d="M52.47,395.68C39.22,433,44,480,60.91,494.49s39.76,56.64,74.71,54.23,65.07,37.36,74.71,41,65.07,10.85,91.58-20.48,256.68-14.78,254.87,17.31,61,81,106.11,6.55,41.5-98.58,34.27-116.65-66.27-71.1-41-126.53,54.23-141-16.87-145.81,6-72.3-28.92-84.35-57.84-179.55-180.75-94S221.18,94.42,221.18,94.42s-68.69-6,13.25,79.54S120,136.6,120,136.6,38,73.94,100.67,236.62,15.12,200.47,3.07,281.2,52.47,395.68,52.47,395.68Z"/><ellipse class="cls-3" cx="376.02" cy="451.11" rx="179.25" ry="238.9"/><path d="M376,213.71c23.88,0,47.06,6.23,68.89,18.51,21.16,11.9,40.18,29,56.53,50.71s29.27,47.21,38.27,75.52a312.18,312.18,0,0,1,0,185.33c-9,28.3-21.88,53.71-38.27,75.52S466.07,658.11,444.91,670c-21.83,12.28-45,18.51-68.89,18.51s-47-6.23-68.88-18.51c-21.16-11.9-40.18-29-56.53-50.71s-29.28-47.22-38.28-75.52a312.39,312.39,0,0,1,0-185.33c9-28.31,21.88-53.72,38.28-75.52s35.37-38.81,56.53-50.71c21.83-12.28,45-18.51,68.88-18.51m0-3c-99.83,0-180.75,107.63-180.75,240.4S276.19,691.52,376,691.52,556.78,583.88,556.78,451.11,475.85,210.71,376,210.71Z"/><path class="cls-4" d="M409.87,392.78c-.92,1.58-15.49,27.49-3.62,48.2,14.54,25.37,60.76,29,79.53,4.82,10.83-14,11.68-36.12,1.21-50.61C472.52,375.16,436.91,370.39,409.87,392.78Z"/><path class="cls-4" d="M266.47,392.78c-.92,1.58-15.48,27.49-3.62,48.2,14.54,25.37,60.76,29,79.53,4.82,10.83-14,11.68-36.12,1.21-50.61C329.12,375.16,293.51,370.39,266.47,392.78Z"/><path class="cls-5" d="M297.09,452.32s34.44,11.36,47.35-23.84Z"/><path class="cls-5" d="M487.87,430.18,440.53,454s34.43,11.36,47.34-23.84"/><line class="cls-6" x1="351.92" y1="422.8" x2="401.33" y2="422.8"/><path class="cls-7" d="M340.47,900.59V684.89s33.75,9.64,66.28,2.41V900.59Z"/><path class="cls-8" d="M314,690.91c-1.21,17.84-7,68.69-45.79,96.41a90.86,90.86,0,0,1-14.46,8.43l49.41-1.2"/><line class="cls-8" x1="303.12" y1="794.55" x2="303.12" y2="900.59"/><path class="cls-8" d="M436.88,687.3c1.21,17.84,7,68.69,45.79,96.4a90.13,90.13,0,0,0,14.46,8.44l-49.41-1.21"/><line class="cls-8" x1="447.72" y1="790.93" x2="447.72" y2="900.59"/><path class="cls-9" d="M195.27,451.11s-35.52-44.62,3-44"/><path class="cls-9" d="M557.28,450.56s35.52-44.62-3-44"/><path class="cls-10" d="M351,378s-109.46-40.61-111.2,0"/><path class="cls-10" d="M401.75,377.41s109.46-40.62,111.2,0"/><path class="cls-8" d="M301.91,569.21s9.64,53.89,135,8.27"/><path class="cls-8" d="M122,420S98.26,283.61,156.1,304.1"/><g id="Layer_2-2" data-name="Layer 2"><g id="Layer_1-2-2" data-name="Layer 1-2"><path class="cls-11" d="M495.57,854.48h-1.95V867h1.15V861h.81a2.17,2.17,0,0,0,1.62-.53,2.39,2.39,0,0,0,.51-1.71v-2a2.41,2.41,0,0,0-.53-1.72A2.12,2.12,0,0,0,495.57,854.48Zm1,2.27v2.07a1.18,1.18,0,0,1-.24.83,1,1,0,0,1-.75.26h-.8v-4.26h.79a1,1,0,0,1,.77.26,1.28,1.28,0,0,1,.23.83Z"/><path class="cls-11" d="M535.3,862.09a2,2,0,0,0-.44-.82,11.47,11.47,0,0,0-1-1,8.15,8.15,0,0,1-.93-1,1.18,1.18,0,0,1-.21-.4,2.21,2.21,0,0,1-.06-.57v-1.84c0-.59.27-.89.8-.89a.64.64,0,0,1,.63.29,1.69,1.69,0,0,1,.16.77v2.11h1.06v-2.28a2.39,2.39,0,0,0-.42-1.55,1.81,1.81,0,0,0-1.46-.52q-1.92,0-1.92,2.07v1.87a5.43,5.43,0,0,0,.05.9,1.55,1.55,0,0,0,.35.73c.17.2.34.4.52.59s.32.34.49.52l.46.47a5.47,5.47,0,0,1,.45.51,1.2,1.2,0,0,1,.18.26.85.85,0,0,1,.13.25,1.26,1.26,0,0,1,0,.33c0,.13,0,.28,0,.46h0v1.78a1.07,1.07,0,0,1-.19.69.73.73,0,0,1-.62.23.66.66,0,0,1-.63-.3,1.66,1.66,0,0,1-.17-.79v-2.5h-1.1v2.64a2.3,2.3,0,0,0,.46,1.54,2.32,2.32,0,0,0,3,0,2.34,2.34,0,0,0,.44-1.54v-1.79A5.09,5.09,0,0,0,535.3,862.09Z"/><path class="cls-11" d="M491.67,861.27a13.3,13.3,0,0,0-1-1,8.92,8.92,0,0,1-.92-1,1.2,1.2,0,0,1-.22-.4,2.2,2.2,0,0,1-.05-.57v-1.84c0-.59.26-.89.8-.89a.65.65,0,0,1,.62.29,1.57,1.57,0,0,1,.16.77v2.11h1.06v-2.28a2.39,2.39,0,0,0-.42-1.55,1.81,1.81,0,0,0-1.46-.52q-1.92,0-1.92,2.07v1.87a6.79,6.79,0,0,0,.05.9,1.44,1.44,0,0,0,.36.73q.24.3.51.6c.17.19.32.33.49.51s.31.31.46.47a5.47,5.47,0,0,1,.45.51,1.51,1.51,0,0,1,.18.26.64.64,0,0,1,.12.25,1,1,0,0,1,.06.33c0,.13,0,.28,0,.46v1.78a1.05,1.05,0,0,1-.19.69.77.77,0,0,1-.62.24.67.67,0,0,1-.63-.31,1.63,1.63,0,0,1-.17-.79v-2.5h-1.09v2.64a2.25,2.25,0,0,0,.46,1.54,1.8,1.8,0,0,0,1.46.53,1.83,1.83,0,0,0,1.49-.53,2.34,2.34,0,0,0,.44-1.54v-1.79a5,5,0,0,0-.1-1.17A2.33,2.33,0,0,0,491.67,861.27Z"/><path class="cls-11" d="M528.47,854.48h-2V867h1.15V861h.82a2.17,2.17,0,0,0,1.62-.53,2.39,2.39,0,0,0,.51-1.71v-2a2.41,2.41,0,0,0-.52-1.72A2.16,2.16,0,0,0,528.47,854.48Zm1,2.27v2.07a1.18,1.18,0,0,1-.24.83,1,1,0,0,1-.74.26h-.81v-4.26h.79a1,1,0,0,1,.77.26,1.28,1.28,0,0,1,.23.83Z"/><path class="cls-11" d="M523.2,854.48h-1.94V867h1.15V861h.81a2.13,2.13,0,0,0,1.61-.53,2.35,2.35,0,0,0,.52-1.71v-2a2.41,2.41,0,0,0-.52-1.72A2.11,2.11,0,0,0,523.2,854.48Zm1,4.34a1.18,1.18,0,0,1-.26.83,1,1,0,0,1-.74.26h-.8v-4.26h.78a1,1,0,0,1,.77.26,1.22,1.22,0,0,1,.23.83h0Z"/><path class="cls-11" d="M517.13,854.48,515.41,867h1.12l.27-2.09h1.87l.27,2.09h1.16l-1.61-12.5Zm-.18,9.34.42-3.19c.13-1.06.27-2.13.4-3.22.12,1.08.24,2.15.38,3.22l.39,3.19Z"/><path class="cls-11" d="M499.69,854.48,498,867h1.12l.28-2.09h1.86l.28,2.09h1.15L501,854.48Zm1.41,9.34h-1.6l.42-3.19c.14-1.06.27-2.13.4-3.22.12,1.08.25,2.15.38,3.22S501,862.76,501.1,863.82Z"/><polygon class="cls-11" points="509.88 861.2 511.4 861.2 511.4 860.03 509.88 860.03 509.88 855.65 512.03 855.65 512.03 854.49 508.73 854.49 508.73 866.98 508.73 866.98 512.11 866.98 512.11 865.84 509.88 865.84 509.88 861.2"/><path class="cls-11" d="M505.56,854.35c-1.33,0-2,.72-2,2.15V865c0,1.41.66,2.11,2,2.11a1.71,1.71,0,0,0,1.38-.52,2.44,2.44,0,0,0,.44-1.61v-2.58h-1.05V865a1.2,1.2,0,0,1-.18.74.66.66,0,0,1-.6.24c-.55,0-.83-.33-.83-1v-8.52c0-.65.28-1,.83-1a.7.7,0,0,1,.61.23,1.29,1.29,0,0,1,.17.74v2.2h1.05v-2.22C507.38,855.06,506.77,854.35,505.56,854.35Z"/><path class="cls-11" d="M528,848a3.77,3.77,0,1,1,3.77-3.76A3.76,3.76,0,0,1,528,848Zm0-7a3.19,3.19,0,1,0,3.19,3.19A3.19,3.19,0,0,0,528,841.06Z"/><path class="cls-11" d="M530.48,842.08a.28.28,0,0,1-.28-.29.28.28,0,0,1,.08-.2l3.24-3.24a.28.28,0,0,1,.4,0,.28.28,0,0,1,0,.41L530.69,842A.29.29,0,0,1,530.48,842.08Z"/><path class="cls-11" d="M527.68,841.07a.29.29,0,0,1-.28-.28.26.26,0,0,1,.07-.19l2.9-3.61a.28.28,0,0,1,.4,0,.29.29,0,0,1,0,.4l-2.9,3.63A.29.29,0,0,1,527.68,841.07Z"/><path class="cls-11" d="M525.83,841.84a.27.27,0,0,1-.12,0,.28.28,0,0,1-.14-.38h0l3.62-7.84a.29.29,0,0,1,.38-.15h0a.28.28,0,0,1,.14.38l-3.62,7.84A.3.3,0,0,1,525.83,841.84Z"/><path class="cls-11" d="M531.49,844.88a.3.3,0,0,1-.29-.3.32.32,0,0,1,.1-.22l3.62-2.89a.3.3,0,0,1,.41.07.3.3,0,0,1,0,.38l-3.62,2.89A.31.31,0,0,1,531.49,844.88Z"/><path class="cls-11" d="M530.72,846.73a.28.28,0,0,1-.28-.29.29.29,0,0,1,.16-.26l7.84-3.62a.28.28,0,0,1,.35.22.27.27,0,0,1-.1.29l-7.85,3.62A.25.25,0,0,1,530.72,846.73Z"/><path class="cls-11" d="M488.66,850a.08.08,0,0,1,.07-.08h.51s.08,0,.08.08v2.72a.09.09,0,0,1-.08.08h-.51a.08.08,0,0,1-.08-.08Z"/><path class="cls-11" d="M491.24,850a.08.08,0,0,1,.08-.08h.1l1.64,1.58h0V850a.08.08,0,0,1,.08-.08h.49s.08,0,.08.08v2.77a.08.08,0,0,1-.08.07h-.07l-.05,0-1.62-1.63h0v1.54a.08.08,0,0,1-.08.08h-.49a.09.09,0,0,1-.08-.08Z"/><path class="cls-11" d="M496,850.52h-.59a.09.09,0,0,1-.08-.08h0V850a.09.09,0,0,1,.08-.08h1.82a.08.08,0,0,1,.08.08v.45a.08.08,0,0,1-.08.08h-.57v2.19a.09.09,0,0,1-.08.08h-.5a.08.08,0,0,1-.08-.08Z"/><path class="cls-11" d="M499,850a.09.09,0,0,1,.08-.08h1.7a.09.09,0,0,1,.08.08v.45a.09.09,0,0,1-.08.08h-1.14V851h.94a.09.09,0,0,1,.08.08v.45a.09.09,0,0,1-.08.08h-.94v.55h1.14a.09.09,0,0,1,.08.08h0v.44a.07.07,0,0,1-.08.08h-1.7a.08.08,0,0,1-.08-.07h0Z"/><path class="cls-11" d="M502.61,850a.08.08,0,0,1,.08-.08h1.23a.89.89,0,0,1,.91.85.87.87,0,0,1-.63.87l.57,1a.08.08,0,0,1,0,.11h-.59a.09.09,0,0,1-.07,0l-.54-1.09h-.28v1s0,.08-.08.08h-.49a.07.07,0,0,1-.08-.08Zm1.25,1.15a.32.32,0,0,0,.31-.33.31.31,0,0,0-.31-.31h-.6v.64Z"/><path class="cls-11" d="M506.59,850a.07.07,0,0,1,.07-.08h.11l1.64,1.58h0V850a.08.08,0,0,1,.07-.08H509c.05,0,.08,0,.08.08v2.77a.07.07,0,0,1-.08.07h-.06l-.05,0-1.63-1.63h0v1.54a.08.08,0,0,1-.08.08h-.48a.08.08,0,0,1-.08-.08Z"/><path class="cls-11" d="M510.63,852.68l1.28-2.76a.08.08,0,0,1,.07,0h0a.08.08,0,0,1,.07,0l1.28,2.76a.07.07,0,0,1,0,.1h-.5a.14.14,0,0,1-.14-.1l-.15-.33h-1.11l-.14.33a.15.15,0,0,1-.15.1h-.45a.07.07,0,0,1-.08-.07S510.62,852.69,510.63,852.68Zm1.68-.88-.31-.68h0l-.31.68Z"/><path class="cls-11" d="M515.17,850.52h-.59a.09.09,0,0,1-.08-.08h0V850a.08.08,0,0,1,.08-.08h1.82a.08.08,0,0,1,.08.08v.45a.08.08,0,0,1-.08.08h-.58v2.19s0,.08-.08.08h-.5a.08.08,0,0,1-.07-.08Z"/><path class="cls-11" d="M518.12,850s0-.07.08-.08h.49s.08,0,.08.08v2.72a.08.08,0,0,1-.08.08h-.49a.09.09,0,0,1-.08-.08Z"/><path class="cls-11" d="M522,849.87a1.48,1.48,0,1,1-1.47,1.49h0a1.47,1.47,0,0,1,1.47-1.48Zm0,2.31a.82.82,0,1,0,0-1.64.83.83,0,0,0-.83.82h0a.83.83,0,0,0,.82.81Z"/><path class="cls-11" d="M525.18,850a.07.07,0,0,1,.07-.08h.1l1.64,1.58h0V850a.09.09,0,0,1,.08-.08h.5a.08.08,0,0,1,.07.08v2.77a.07.07,0,0,1-.07.07h-.07l0,0-1.63-1.63h0v1.54a.07.07,0,0,1-.07.08h-.49a.09.09,0,0,1-.08-.08Z"/><path class="cls-11" d="M529.21,852.68l1.29-2.76a.08.08,0,0,1,.07,0h0s0,0,.07,0l1.28,2.76a.07.07,0,0,1,0,.1h-.5c-.07,0-.1,0-.14-.1l-.15-.33H530l-.14.33a.18.18,0,0,1-.15.1h-.45a.09.09,0,0,1-.09-.06A.09.09,0,0,1,529.21,852.68Zm1.69-.88-.31-.68h0l-.3.68Z"/><path class="cls-11" d="M533.53,850a.09.09,0,0,1,.08-.08h.49a.08.08,0,0,1,.07.08v2.2h1a.07.07,0,0,1,.08.07h0v.45a.08.08,0,0,1-.08.08h-1.54a.09.09,0,0,1-.08-.08Z"/><path class="cls-11" d="M490.37,868.5a2.19,2.19,0,0,1,1.61.62.12.12,0,0,1,0,.17h0l-.51.54a.12.12,0,0,1-.17,0,1.42,1.42,0,0,0-.9-.34,1.37,1.37,0,0,0,0,2.73,1.38,1.38,0,0,0,.89-.33.14.14,0,0,1,.17,0l.52.56a.13.13,0,0,1,0,.18,2.27,2.27,0,0,1-1.62.64,2.4,2.4,0,0,1,0-4.8Z"/><path class="cls-11" d="M494,868.69a.12.12,0,0,1,.12-.12h.8a.13.13,0,0,1,.13.12h0v1.67h1.9v-1.68a.12.12,0,0,1,.12-.12h.8a.12.12,0,0,1,.12.12v4.42a.13.13,0,0,1-.12.13h-.79a.13.13,0,0,1-.13-.13v-1.76H495v1.76a.13.13,0,0,1-.13.13h-.8a.13.13,0,0,1-.12-.13Z"/><path class="cls-11" d="M499.74,873.06l2.08-4.49a.13.13,0,0,1,.12-.07H502a.14.14,0,0,1,.11.07l2.09,4.49a.12.12,0,0,1-.06.16h-.8c-.12,0-.17,0-.23-.17l-.24-.52h-1.82l-.24.53a.25.25,0,0,1-.24.16h-.73a.11.11,0,0,1-.12-.11A.07.07,0,0,1,499.74,873.06Zm2.74-1.41-.52-1.11h0l-.51,1.11Z"/><path class="cls-11" d="M506,868.69a.13.13,0,0,1,.13-.13h.8a.14.14,0,0,1,.12.13v3.56h1.59a.12.12,0,0,1,.12.13v.73a.12.12,0,0,1-.12.12h-2.51a.12.12,0,0,1-.13-.12Z"/><path class="cls-11" d="M510.56,868.69a.13.13,0,0,1,.13-.13h.79a.14.14,0,0,1,.13.13v3.56h1.59a.13.13,0,0,1,.13.13v.73a.12.12,0,0,1-.13.12h-2.51a.12.12,0,0,1-.13-.12Z"/><path class="cls-11" d="M515.17,868.69a.13.13,0,0,1,.13-.13h2.76a.13.13,0,0,1,.13.13h0v.73a.12.12,0,0,1-.13.12h-1.85v.82h1.52a.14.14,0,0,1,.13.13v.73a.12.12,0,0,1-.12.12h-1.53v.9h1.85a.13.13,0,0,1,.13.13v.73a.14.14,0,0,1-.13.13H515.3a.14.14,0,0,1-.13-.13Z"/><path class="cls-11" d="M520.28,868.62a.13.13,0,0,1,.13-.12h.17l2.66,2.56h0V868.7a.12.12,0,0,1,.12-.13h.81a.12.12,0,0,1,.12.13v4.48a.13.13,0,0,1-.12.13h-.11l-.09,0-2.64-2.65h0v2.49a.12.12,0,0,1-.12.13h-.8a.13.13,0,0,1-.12-.13Z"/><path class="cls-11" d="M528.7,868.5a2.65,2.65,0,0,1,1.63.63.11.11,0,0,1,0,.16v0l-.52.56a.15.15,0,0,1-.18,0,1.21,1.21,0,0,0-.87-.32,1.34,1.34,0,0,0,0,2.68,1.71,1.71,0,0,0,.59-.11v-.39h-.42a.12.12,0,0,1-.12-.12h0V871a.12.12,0,0,1,.11-.13h1.37a.13.13,0,0,1,.12.13v1.8a.11.11,0,0,1-.06.1,3.29,3.29,0,0,1-1.65.44,2.4,2.4,0,0,1-.15-4.79Z"/><path class="cls-11" d="M532.52,868.69a.13.13,0,0,1,.13-.13h2.77a.13.13,0,0,1,.13.13h0v.73a.12.12,0,0,1-.13.12h-1.85v.82h1.52a.14.14,0,0,1,.13.13v.73a.12.12,0,0,1-.12.12h-1.53v.9h1.85a.13.13,0,0,1,.13.13v.73a.13.13,0,0,1-.13.13h-2.77a.13.13,0,0,1-.13-.13Z"/><path class="cls-12" d="M505.38,842.63a.08.08,0,0,1,.09-.08h.12l1.84,1.77h0v-1.64a.09.09,0,0,1,.09-.09h.55c.05,0,.09,0,.09.09v3.11a.08.08,0,0,1-.09.08H508l-.06,0L506.11,844h0v1.71a.09.09,0,0,1-.08.09h-.56a.09.09,0,0,1-.08-.09Z"/><path class="cls-12" d="M509,845.71l1.45-3.11a.1.1,0,0,1,.08-.05h.05a.08.08,0,0,1,.07.05l1.46,3.11a.08.08,0,0,1,0,.11h-.56c-.09,0-.12,0-.17-.12l-.16-.36h-1.26l-.16.37a.18.18,0,0,1-.16.11h-.52a.08.08,0,0,1-.09-.07S509,845.72,509,845.71Zm1.91-1-.35-.77h0l-.35.77Z"/><path class="cls-12" d="M512.75,845.39,513,845a.11.11,0,0,1,.16,0,1.3,1.3,0,0,0,.65.25.29.29,0,0,0,.32-.26h0c0-.19-.16-.34-.47-.46s-.9-.47-.9-1a1,1,0,0,1,1.07-.92,1.67,1.67,0,0,1,1,.35.11.11,0,0,1,0,.15l-.23.35c0,.05-.12.09-.16.06a1.43,1.43,0,0,0-.66-.27.25.25,0,0,0-.29.21v0c0,.17.14.3.51.45a1.19,1.19,0,0,1,.92,1,1,1,0,0,1-1.1,1,1.44,1.44,0,0,1-1-.35A.09.09,0,0,1,512.75,845.39Z"/><path class="cls-12" d="M515.51,845.71,517,842.6a.1.1,0,0,1,.08-.05h.05a.08.08,0,0,1,.07.05l1.45,3.11a.08.08,0,0,1,0,.11H518c-.08,0-.12,0-.16-.12l-.17-.36h-1.26l-.16.37a.2.2,0,0,1-.17.11h-.51a.08.08,0,0,1-.08-.09Zm1.9-1-.35-.77h0l-.34.77Z"/><path class="cls-11" d="M511.89,884.67a23.86,23.86,0,0,1-18.5-8.84.29.29,0,0,1,0-.4.3.3,0,0,1,.41,0,23.22,23.22,0,0,0,32.67,3.42,22.55,22.55,0,0,0,1.78-1.6,24.24,24.24,0,0,0,1.67-1.85.29.29,0,0,1,.41-.05.3.3,0,0,1,0,.41h0c-.54.66-1.11,1.3-1.71,1.9A23.77,23.77,0,0,1,511.89,884.67Z"/><path class="cls-11" d="M492.94,847.22a.28.28,0,0,1-.16-.05.3.3,0,0,1-.07-.41h0a23.8,23.8,0,0,1,33.05-5.23.29.29,0,0,1,.06.41.3.3,0,0,1-.41.06,23.2,23.2,0,0,0-32.23,5.11A.3.3,0,0,1,492.94,847.22Z"/></g></g><circle class="cls-2" cx="713.3" cy="687.5" r="41"/><circle class="cls-2" cx="877.3" cy="617.5" r="79"/></g></g></svg>