<svg xmlns="http://www.w3.org/2000/svg" viewBox="0 0 967.3 907.5"><defs><style>.cls-1,.cls-2,.cls-5{fill:#fff;}.cls-1,.cls-10,.cls-11,.cls-2,.cls-4,.cls-6,.cls-7,.cls-8,.cls-9{stroke:#000;}.cls-1,.cls-11,.cls-7,.cls-8,.cls-9{stroke-linecap:round;stroke-linejoin:round;}.cls-1,.cls-10,.cls-2,.cls-4,.cls-7,.cls-8{stroke-width:6px;}.cls-10,.cls-2,.cls-4,.cls-6{stroke-miterlimit:10;}.cls-3{fill:#ffedc9;}.cls-4{fill:#b3b3b3;}.cls-10,.cls-11,.cls-6,.cls-8{fill:none;}.cls-6{stroke-width:5px;}.cls-7{fill:#007406;}.cls-9{fill:#ffdc8a;}.cls-11,.cls-9{stroke-width:3px;}.cls-12{fill:#231f20;}.cls-13{fill:#ee2c3e;}</style></defs><g id="Layer_2" data-name="Layer 2"><g id="Layer_1-2" data-name="Layer 1"><path class="cls-1" d="M150.37,904.5C139.9,766.19,251,647.78,385.36,647.83c133.43,0,244,116.85,235,254.26Z"/><path class="cls-2" d="M54,397.18c-13.25,37.36-8.43,84.35,8.44,98.81s39.76,56.64,74.71,54.23,65.07,37.36,74.71,41S276.9,602,303.41,570.71,560.09,555.93,558.28,588s61,81,106.11,6.55,41.5-98.58,34.27-116.65-66.27-71.1-41-126.53,54.23-141-16.87-145.81,6-72.3-28.92-84.35-57.84-179.55-180.75-94S222.68,95.92,222.68,95.92s-68.69-6,13.25,79.54S121.45,138.1,121.45,138.1s-81.94-62.66-19.28,100S16.62,202,4.57,282.7,54,397.18,54,397.18Z"/><ellipse class="cls-3" cx="377.52" cy="452.61" rx="178.25" ry="237.9"/><path d="M377.52,217.21c96.91,0,175.76,105.6,175.76,235.4S474.43,688,377.52,688,201.77,582.42,201.77,452.61s78.84-235.4,175.75-235.4m0-5c-99.83,0-180.75,107.63-180.75,240.4S277.69,693,377.52,693,558.28,585.38,558.28,452.61s-80.93-240.4-180.76-240.4Z"/><path class="cls-4" d="M411.37,394.28c-.92,1.58-15.49,27.49-3.62,48.2,14.54,25.37,60.76,29,79.53,4.82,10.83-14,11.68-36.12,1.21-50.61C474,376.66,438.41,371.89,411.37,394.28Z"/><path class="cls-4" d="M268,394.28c-.92,1.58-15.48,27.49-3.62,48.2,14.54,25.37,60.76,29,79.53,4.82,10.83-14,11.68-36.12,1.21-50.61C330.62,376.66,295,371.89,268,394.28Z"/><path class="cls-5" d="M298.59,453.82S333,465.18,345.94,430Z"/><path class="cls-5" d="M489.37,431.68,442,455.52s34.43,11.36,47.34-23.84"/><line class="cls-6" x1="353.42" y1="424.3" x2="402.83" y2="424.3"/><path class="cls-7" d="M342,902.09V686.39s33.75,9.64,66.28,2.41V902.09Z"/><path class="cls-8" d="M315.46,692.41c-1.21,17.84-7,68.69-45.79,96.41a90.86,90.86,0,0,1-14.46,8.43l49.41-1.2"/><line class="cls-8" x1="304.62" y1="796.05" x2="304.62" y2="902.09"/><path class="cls-8" d="M438.38,688.8c1.21,17.84,7,68.69,45.79,96.4a90.13,90.13,0,0,0,14.46,8.44l-49.41-1.21"/><line class="cls-8" x1="449.22" y1="792.43" x2="449.22" y2="902.09"/><path class="cls-9" d="M196.77,452.61s-35.52-44.62,3-44"/><path class="cls-9" d="M558.78,452.06s35.52-44.62-3-44"/><path class="cls-10" d="M352.49,379.46s-109.46-40.61-111.2,0"/><path class="cls-10" d="M403.25,378.91s109.46-40.62,111.2,0"/><path class="cls-8" d="M303.41,570.71s9.64,53.89,135,8.27"/><path class="cls-11" d="M123.53,421.54S99.76,285.11,157.6,305.6"/><g id="Layer_2-2" data-name="Layer 2"><g id="Layer_1-2-2" data-name="Layer 1-2"><path class="cls-12" d="M497.07,856h-1.95v12.5h1.15v-5.94h.81a2.17,2.17,0,0,0,1.62-.53,2.39,2.39,0,0,0,.51-1.71v-2a2.41,2.41,0,0,0-.53-1.72A2.12,2.12,0,0,0,497.07,856Zm1,2.27v2.07a1.18,1.18,0,0,1-.24.83,1,1,0,0,1-.75.26h-.8v-4.26h.79a1,1,0,0,1,.77.26,1.28,1.28,0,0,1,.23.83Z"/><path class="cls-12" d="M536.8,863.59a2,2,0,0,0-.44-.82,11.47,11.47,0,0,0-1-1,8.15,8.15,0,0,1-.93-1,1.18,1.18,0,0,1-.21-.4,2.21,2.21,0,0,1-.06-.57v-1.84c0-.59.27-.89.8-.89a.64.64,0,0,1,.63.29,1.69,1.69,0,0,1,.16.77v2.11h1.06v-2.28a2.39,2.39,0,0,0-.42-1.55,1.81,1.81,0,0,0-1.46-.52q-1.92,0-1.92,2.07v1.87a5.43,5.43,0,0,0,.05.9,1.55,1.55,0,0,0,.35.73c.17.2.34.4.52.59s.32.34.49.52l.46.47a5.47,5.47,0,0,1,.45.51,1.2,1.2,0,0,1,.18.26.85.85,0,0,1,.13.25,1.26,1.26,0,0,1,0,.33c0,.13,0,.28,0,.46h0v1.78a1.07,1.07,0,0,1-.19.69.73.73,0,0,1-.62.23.66.66,0,0,1-.63-.3,1.66,1.66,0,0,1-.17-.79v-2.5h-1.1v2.64a2.3,2.3,0,0,0,.46,1.54,2.32,2.32,0,0,0,3,0,2.34,2.34,0,0,0,.44-1.54v-1.79A5.09,5.09,0,0,0,536.8,863.59Z"/><path class="cls-12" d="M493.17,862.77a13.3,13.3,0,0,0-1-1,8.92,8.92,0,0,1-.92-1,1.2,1.2,0,0,1-.22-.4,2.2,2.2,0,0,1-.05-.57v-1.84c0-.59.26-.89.8-.89a.65.65,0,0,1,.62.29,1.57,1.57,0,0,1,.16.77v2.11h1.06v-2.28a2.39,2.39,0,0,0-.42-1.55,1.81,1.81,0,0,0-1.46-.52q-1.92,0-1.92,2.07v1.87a6.79,6.79,0,0,0,.05.9,1.44,1.44,0,0,0,.36.73q.24.3.51.6c.17.19.32.33.49.51s.31.31.46.47a5.47,5.47,0,0,1,.45.51,1.51,1.51,0,0,1,.18.26.64.64,0,0,1,.12.25,1,1,0,0,1,.06.33c0,.13,0,.28,0,.46v1.78a1.05,1.05,0,0,1-.19.69.77.77,0,0,1-.62.24.67.67,0,0,1-.63-.31,1.63,1.63,0,0,1-.17-.79v-2.5h-1.09v2.64a2.25,2.25,0,0,0,.46,1.54,1.8,1.8,0,0,0,1.46.53,1.83,1.83,0,0,0,1.49-.53,2.34,2.34,0,0,0,.44-1.54v-1.79a5,5,0,0,0-.1-1.17A2.33,2.33,0,0,0,493.17,862.77Z"/><path class="cls-12" d="M530,856h-2v12.5h1.15v-5.94H530a2.17,2.17,0,0,0,1.62-.53,2.39,2.39,0,0,0,.51-1.71v-2a2.41,2.41,0,0,0-.52-1.72A2.16,2.16,0,0,0,530,856Zm1,2.27v2.07a1.18,1.18,0,0,1-.24.83,1,1,0,0,1-.74.26h-.81v-4.26H530a1,1,0,0,1,.77.26,1.28,1.28,0,0,1,.23.83Z"/><path class="cls-12" d="M524.7,856h-1.94v12.5h1.15v-5.94h.81a2.13,2.13,0,0,0,1.61-.53,2.35,2.35,0,0,0,.52-1.71v-2a2.41,2.41,0,0,0-.52-1.72A2.11,2.11,0,0,0,524.7,856Zm1,4.34a1.18,1.18,0,0,1-.26.83,1,1,0,0,1-.74.26h-.8v-4.26h.78a1,1,0,0,1,.77.26,1.22,1.22,0,0,1,.23.83h0Z"/><path class="cls-12" d="M518.63,856l-1.72,12.5H518l.27-2.09h1.87l.27,2.09h1.16L520,856Zm-.18,9.34.42-3.19c.13-1.06.27-2.13.4-3.22.12,1.08.24,2.15.38,3.22l.39,3.19Z"/><path class="cls-12" d="M501.19,856l-1.73,12.5h1.12l.28-2.09h1.86l.28,2.09h1.15L502.54,856Zm1.41,9.34H501l.42-3.19c.14-1.06.27-2.13.4-3.22.12,1.08.25,2.15.38,3.22S502.47,864.26,502.6,865.32Z"/><polygon class="cls-12" points="511.38 862.7 512.9 862.7 512.9 861.53 511.38 861.53 511.38 857.15 513.53 857.15 513.53 855.99 510.23 855.99 510.23 868.48 510.23 868.48 513.61 868.48 513.61 867.34 511.38 867.34 511.38 862.7"/><path class="cls-12" d="M507.06,855.85c-1.33,0-2,.72-2,2.15v8.51c0,1.41.66,2.11,2,2.11a1.71,1.71,0,0,0,1.38-.52,2.44,2.44,0,0,0,.44-1.61v-2.58h-1.05v2.6a1.2,1.2,0,0,1-.18.74.66.66,0,0,1-.6.24c-.55,0-.83-.33-.83-1V858c0-.65.28-1,.83-1a.7.7,0,0,1,.61.23,1.29,1.29,0,0,1,.17.74v2.2h1.05V858C508.88,856.56,508.27,855.85,507.06,855.85Z"/><path class="cls-12" d="M529.52,849.51a3.77,3.77,0,1,1,3.77-3.76A3.76,3.76,0,0,1,529.52,849.51Zm0-7a3.19,3.19,0,1,0,3.19,3.19A3.19,3.19,0,0,0,529.52,842.56Z"/><path class="cls-12" d="M532,843.58a.28.28,0,0,1-.28-.29.28.28,0,0,1,.08-.2l3.24-3.24a.28.28,0,0,1,.4,0,.28.28,0,0,1,0,.41l-3.23,3.23A.29.29,0,0,1,532,843.58Z"/><path class="cls-12" d="M529.18,842.57a.29.29,0,0,1-.28-.28.26.26,0,0,1,.07-.19l2.9-3.61a.28.28,0,0,1,.4,0,.29.29,0,0,1,0,.4l-2.9,3.63A.29.29,0,0,1,529.18,842.57Z"/><path class="cls-12" d="M527.33,843.34a.27.27,0,0,1-.12,0,.28.28,0,0,1-.14-.38h0l3.62-7.84a.29.29,0,0,1,.38-.15h0a.28.28,0,0,1,.14.38l-3.62,7.84A.3.3,0,0,1,527.33,843.34Z"/><path class="cls-12" d="M533,846.38a.3.3,0,0,1-.29-.3.32.32,0,0,1,.1-.22l3.62-2.89a.3.3,0,0,1,.41.07.3.3,0,0,1,0,.38l-3.62,2.89A.31.31,0,0,1,533,846.38Z"/><path class="cls-12" d="M532.22,848.23a.28.28,0,0,1-.28-.29.29.29,0,0,1,.16-.26l7.84-3.62a.28.28,0,0,1,.35.22.27.27,0,0,1-.1.29l-7.85,3.62A.25.25,0,0,1,532.22,848.23Z"/><path class="cls-12" d="M490.16,851.49a.08.08,0,0,1,.07-.08h.51s.08,0,.08.08v2.72a.09.09,0,0,1-.08.08h-.51a.08.08,0,0,1-.08-.08Z"/><path class="cls-12" d="M492.74,851.45a.08.08,0,0,1,.08-.08h.1l1.64,1.58h0v-1.46a.08.08,0,0,1,.08-.08h.49s.08,0,.08.08v2.77a.08.08,0,0,1-.08.07h-.07l-.05,0-1.62-1.63h0v1.54a.08.08,0,0,1-.08.08h-.49a.09.09,0,0,1-.08-.08Z"/><path class="cls-12" d="M497.52,852h-.59a.09.09,0,0,1-.08-.08h0v-.45a.09.09,0,0,1,.08-.08h1.82a.08.08,0,0,1,.08.08v.45a.08.08,0,0,1-.08.08h-.57v2.19a.09.09,0,0,1-.08.08h-.5a.08.08,0,0,1-.08-.08Z"/><path class="cls-12" d="M500.47,851.49a.09.09,0,0,1,.08-.08h1.7a.09.09,0,0,1,.08.08v.45a.09.09,0,0,1-.08.08h-1.14v.51h.94a.09.09,0,0,1,.08.08v.45a.09.09,0,0,1-.08.08h-.94v.55h1.14a.09.09,0,0,1,.08.08h0v.44a.07.07,0,0,1-.08.08h-1.7a.08.08,0,0,1-.08-.07h0Z"/><path class="cls-12" d="M504.11,851.49a.08.08,0,0,1,.08-.08h1.23a.89.89,0,0,1,.91.85.87.87,0,0,1-.63.87l.57,1a.08.08,0,0,1,0,.11h-.59a.09.09,0,0,1-.07,0l-.54-1.09h-.28v1s0,.08-.08.08h-.49a.07.07,0,0,1-.08-.08Zm1.25,1.15a.32.32,0,0,0,.31-.33.31.31,0,0,0-.31-.31h-.6v.64Z"/><path class="cls-12" d="M508.09,851.45a.07.07,0,0,1,.07-.08h.11l1.64,1.58h0v-1.46a.08.08,0,0,1,.07-.08h.51c.05,0,.08,0,.08.08v2.77a.07.07,0,0,1-.08.07h-.06l-.05,0-1.63-1.63h0v1.54a.08.08,0,0,1-.08.08h-.48a.08.08,0,0,1-.08-.08Z"/><path class="cls-12" d="M512.13,854.18l1.28-2.76a.08.08,0,0,1,.07,0h0a.08.08,0,0,1,.07,0l1.28,2.76a.07.07,0,0,1,0,.1h-.5a.14.14,0,0,1-.14-.1l-.15-.33h-1.11l-.14.33a.15.15,0,0,1-.15.1h-.45a.07.07,0,0,1-.08-.07S512.12,854.19,512.13,854.18Zm1.68-.88-.31-.68h0l-.31.68Z"/><path class="cls-12" d="M516.67,852h-.59a.09.09,0,0,1-.08-.08h0v-.45a.08.08,0,0,1,.08-.08h1.82a.08.08,0,0,1,.08.08v.45a.08.08,0,0,1-.08.08h-.58v2.19s0,.08-.08.08h-.5a.08.08,0,0,1-.07-.08Z"/><path class="cls-12" d="M519.62,851.49s0-.07.08-.08h.49s.08,0,.08.08v2.72a.08.08,0,0,1-.08.08h-.49a.09.09,0,0,1-.08-.08Z"/><path class="cls-12" d="M523.47,851.37a1.48,1.48,0,1,1-1.47,1.49h0a1.47,1.47,0,0,1,1.47-1.48Zm0,2.31a.82.82,0,1,0,0-1.64.83.83,0,0,0-.83.82h0a.83.83,0,0,0,.82.81Z"/><path class="cls-12" d="M526.68,851.45a.07.07,0,0,1,.07-.08h.1l1.64,1.58h0v-1.46a.09.09,0,0,1,.08-.08h.5a.08.08,0,0,1,.07.08v2.77a.07.07,0,0,1-.07.07H529l0,0-1.63-1.63h0v1.54a.07.07,0,0,1-.07.08h-.49a.09.09,0,0,1-.08-.08Z"/><path class="cls-12" d="M530.71,854.18l1.29-2.76a.08.08,0,0,1,.07,0h0s0,0,.07,0l1.28,2.76a.07.07,0,0,1,0,.1h-.5c-.07,0-.1,0-.14-.1l-.15-.33h-1.11l-.14.33a.18.18,0,0,1-.15.1h-.45a.09.09,0,0,1-.09-.06A.09.09,0,0,1,530.71,854.18Zm1.69-.88-.31-.68h0l-.3.68Z"/><path class="cls-12" d="M535,851.49a.09.09,0,0,1,.08-.08h.49a.08.08,0,0,1,.07.08v2.2h1a.07.07,0,0,1,.08.07h0v.45a.08.08,0,0,1-.08.08h-1.54a.09.09,0,0,1-.08-.08Z"/><path class="cls-12" d="M491.87,870a2.19,2.19,0,0,1,1.61.62.12.12,0,0,1,0,.17h0l-.51.54a.12.12,0,0,1-.17,0,1.42,1.42,0,0,0-.9-.34,1.37,1.37,0,0,0,0,2.73,1.38,1.38,0,0,0,.89-.33.14.14,0,0,1,.17,0l.52.56a.13.13,0,0,1,0,.18,2.27,2.27,0,0,1-1.62.64,2.4,2.4,0,0,1,0-4.8Z"/><path class="cls-12" d="M495.49,870.19a.12.12,0,0,1,.12-.12h.8a.13.13,0,0,1,.13.12h0v1.67h1.9v-1.68a.12.12,0,0,1,.12-.12h.8a.12.12,0,0,1,.12.12v4.42a.13.13,0,0,1-.12.13h-.79a.13.13,0,0,1-.13-.13v-1.76h-1.9v1.76a.13.13,0,0,1-.13.13h-.8a.13.13,0,0,1-.12-.13Z"/><path class="cls-12" d="M501.24,874.56l2.08-4.49a.13.13,0,0,1,.12-.07h.07a.14.14,0,0,1,.11.07l2.09,4.49a.12.12,0,0,1-.06.16h-.8c-.12,0-.17,0-.23-.17l-.24-.52h-1.82l-.24.53a.25.25,0,0,1-.24.16h-.73a.11.11,0,0,1-.12-.11A.07.07,0,0,1,501.24,874.56Zm2.74-1.41-.52-1.11h0l-.51,1.11Z"/><path class="cls-12" d="M507.45,870.19a.13.13,0,0,1,.13-.13h.8a.14.14,0,0,1,.12.13v3.56h1.59a.12.12,0,0,1,.12.13v.73a.12.12,0,0,1-.12.12h-2.51a.12.12,0,0,1-.13-.12Z"/><path class="cls-12" d="M512.06,870.19a.13.13,0,0,1,.13-.13H513a.14.14,0,0,1,.13.13v3.56h1.59a.13.13,0,0,1,.13.13v.73a.12.12,0,0,1-.13.12h-2.51a.12.12,0,0,1-.13-.12Z"/><path class="cls-12" d="M516.67,870.19a.13.13,0,0,1,.13-.13h2.76a.13.13,0,0,1,.13.13h0v.73a.12.12,0,0,1-.13.12h-1.85v.82h1.52a.14.14,0,0,1,.13.13v.73a.12.12,0,0,1-.12.12h-1.53v.9h1.85a.13.13,0,0,1,.13.13v.73a.14.14,0,0,1-.13.13H516.8a.14.14,0,0,1-.13-.13Z"/><path class="cls-12" d="M521.78,870.12a.13.13,0,0,1,.13-.12h.17l2.66,2.56h0V870.2a.12.12,0,0,1,.12-.13h.81a.12.12,0,0,1,.12.13v4.48a.13.13,0,0,1-.12.13h-.11l-.09,0-2.64-2.65h0v2.49a.12.12,0,0,1-.12.13h-.8a.13.13,0,0,1-.12-.13Z"/><path class="cls-12" d="M530.2,870a2.65,2.65,0,0,1,1.63.63.11.11,0,0,1,0,.16v0l-.52.56a.15.15,0,0,1-.18,0,1.21,1.21,0,0,0-.87-.32,1.34,1.34,0,0,0,0,2.68,1.71,1.71,0,0,0,.59-.11v-.39h-.42a.12.12,0,0,1-.12-.12h0v-.66a.12.12,0,0,1,.11-.13h1.37a.13.13,0,0,1,.12.13v1.8a.11.11,0,0,1-.06.1,3.29,3.29,0,0,1-1.65.44,2.4,2.4,0,0,1-.15-4.79Z"/><path class="cls-12" d="M534,870.19a.13.13,0,0,1,.13-.13h2.77a.13.13,0,0,1,.13.13h0v.73a.12.12,0,0,1-.13.12h-1.85v.82h1.52a.14.14,0,0,1,.13.13v.73a.12.12,0,0,1-.12.12h-1.53v.9h1.85a.13.13,0,0,1,.13.13v.73a.13.13,0,0,1-.13.13h-2.77a.13.13,0,0,1-.13-.13Z"/><path class="cls-13" d="M506.88,844.13a.08.08,0,0,1,.09-.08h.12l1.84,1.77h0v-1.64a.09.09,0,0,1,.09-.09h.55c.05,0,.09,0,.09.09v3.11a.08.08,0,0,1-.09.08h-.07l-.06,0-1.83-1.83h0v1.71a.09.09,0,0,1-.08.09H507a.09.09,0,0,1-.08-.09Z"/><path class="cls-13" d="M510.49,847.21l1.45-3.11a.1.1,0,0,1,.08-.05h.05a.08.08,0,0,1,.07.05l1.46,3.11a.08.08,0,0,1,0,.11H513c-.09,0-.12,0-.17-.12l-.16-.36h-1.26l-.16.37a.18.18,0,0,1-.16.11h-.52a.08.08,0,0,1-.09-.07S510.49,847.22,510.49,847.21Zm1.91-1-.35-.77h0l-.35.77Z"/><path class="cls-13" d="M514.25,846.89l.22-.38a.11.11,0,0,1,.16,0,1.3,1.3,0,0,0,.65.25.29.29,0,0,0,.32-.26h0c0-.19-.16-.34-.47-.46s-.9-.47-.9-1a1,1,0,0,1,1.07-.92,1.67,1.67,0,0,1,1,.35.11.11,0,0,1,0,.15l-.23.35c0,.05-.12.09-.16.06a1.43,1.43,0,0,0-.66-.27.25.25,0,0,0-.29.21v0c0,.17.14.3.51.45a1.19,1.19,0,0,1,.92,1,1,1,0,0,1-1.1,1,1.44,1.44,0,0,1-1-.35A.09.09,0,0,1,514.25,846.89Z"/><path class="cls-13" d="M517,847.21l1.45-3.11a.1.1,0,0,1,.08-.05h.05a.08.08,0,0,1,.07.05l1.45,3.11a.08.08,0,0,1,0,.11h-.56c-.08,0-.12,0-.16-.12l-.17-.36h-1.26l-.16.37a.2.2,0,0,1-.17.11h-.51a.08.08,0,0,1-.08-.09Zm1.9-1-.35-.77h0l-.34.77Z"/><path class="cls-12" d="M513.39,886.17a23.86,23.86,0,0,1-18.5-8.84.29.29,0,0,1,0-.4.3.3,0,0,1,.41,0A23.22,23.22,0,0,0,528,880.39a22.55,22.55,0,0,0,1.78-1.6,24.24,24.24,0,0,0,1.67-1.85.29.29,0,0,1,.41-.05.3.3,0,0,1,0,.41h0c-.54.66-1.11,1.3-1.71,1.9A23.77,23.77,0,0,1,513.39,886.17Z"/><path class="cls-12" d="M494.44,848.72a.28.28,0,0,1-.16-.05.3.3,0,0,1-.07-.41h0A23.8,23.8,0,0,1,527.26,843a.29.29,0,0,1,.06.41.3.3,0,0,1-.41.06,23.2,23.2,0,0,0-32.23,5.11A.3.3,0,0,1,494.44,848.72Z"/></g></g><circle class="cls-2" cx="716.3" cy="719.5" r="47"/><circle class="cls-2" cx="868.3" cy="605.5" r="96"/></g></g></svg>