<svg xmlns="http://www.w3.org/2000/svg" viewBox="0 0 329.64 953.93"><defs><style>.cls-1,.cls-2,.cls-3{fill:#92918d;}.cls-1,.cls-2,.cls-3,.cls-5,.cls-7{stroke:#000;}.cls-1,.cls-2,.cls-3,.cls-4,.cls-5,.cls-6,.cls-7{stroke-miterlimit:10;}.cls-1,.cls-7{stroke-width:5px;}.cls-3{stroke-width:6px;}.cls-4,.cls-5,.cls-6{fill:none;}.cls-4{stroke:#bf0000;}.cls-4,.cls-5{stroke-width:2px;}.cls-6{stroke:#8d8d8d;stroke-width:14px;}.cls-7{fill:#747e8d;}.cls-8{fill:#fff;}</style></defs><g id="Layer_2" data-name="Layer 2"><g id="Layer_1-2" data-name="Layer 1"><path class="cls-1" d="M171.5,2.83s-11-12-63,109l-85,78v60.73H84.3l.2,454.27H76.08L2.5,818.83v132.6H327.14V814L265.5,702.83l-9-1v-451l63-2v-64l-88-81S192.5.83,171.5,2.83Z"/><line class="cls-2" x1="175" y1="128.33" x2="175" y2="190.78"/><line class="cls-2" x1="191.9" y1="128.33" x2="194.89" y2="190.78"/><line class="cls-2" x1="207.59" y1="128.33" x2="216.56" y2="190.78"/><line class="cls-2" x1="222.53" y1="128.33" x2="235.98" y2="190.78"/><line class="cls-2" x1="157.53" y1="128.33" x2="152.3" y2="190.78"/><line class="cls-2" x1="141.84" y1="128.33" x2="131.38" y2="190.78"/><line class="cls-2" x1="122.41" y1="128.33" x2="110.45" y2="190.78"/><path class="cls-3" d="M87,820.33s96-7,158.5,0"/><path class="cls-4" d="M138.5,450.83l3,383s-10-1-12,16-25,11-25,11"/><line class="cls-5" x1="146.5" y1="484.83" x2="150.5" y2="806.83"/><line class="cls-5" x1="158.27" y1="450.83" x2="158.27" y2="806.83"/><path class="cls-6" d="M86.6,216.79s-31,45,92.92,194,76.88,291,76.88,291"/><path class="cls-7" d="M164.82,45.52v58.81H125.15s13.46-41.62,24.16-58.81Z"/><path class="cls-8" d="M161.53,78.26c0-9.09,0,22.57,0,22.57l-20,.34S161.55,87.36,161.53,78.26Z"/><path class="cls-7" d="M180.51,45.9v58.81h39.67S206.71,63.09,196,45.9Z"/><path class="cls-8" d="M214.43,101.17s-4.93-16.34-8.93-24.34c0,0,3,21-12.42,24.34"/></g></g></svg>
