<svg xmlns="http://www.w3.org/2000/svg" xmlns:xlink="http://www.w3.org/1999/xlink" viewBox="0 0 438.18 681"><defs><style>.cls-1{fill:#fff;}.cls-2{fill:#cbcbcb;}.cls-3{fill:#a7374a;}.cls-4{fill:#8eaec2;}.cls-5{fill:#6d8fa3;}</style></defs><g id="Layer_2" data-name="Layer 2"><g id="Layer_1-2" data-name="Layer 1"><path class="cls-1" d="M219.23,0V581.75H101.76S-57.77,188,219.23,0Z"/><path class="cls-2" d="M336.69,582S496.23,188.25,219.23.25V582"/><path class="cls-2" d="M120.14,582H315.23s2,26-36,26h-134S120.23,608,120.14,582Z"/><path class="cls-3" d="M61.13,396.83S-50.77,385,28.23,679l75.53-97.25S69,508.66,61.13,396.83Z"/><path class="cls-3" d="M377,396.6S489,384.77,410,678.77l-75.54-97.25S369.14,508.43,377,396.6Z"/><path class="cls-3" d="M219.23,681V397.34S155.23,403,219.23,681Z"/><path class="cls-3" d="M219.23,397s64,5.66,0,283.66V397"/><circle cx="219.73" cy="151.5" r="75.5"/><circle class="cls-4" cx="219.73" cy="151.5" r="56.5"/><image width="1000" height="1000" transform="translate(203.23 181) scale(0.03 0.03)" xlink:href="../../Downloads/pngegg.png"/><path d="M198.53,203.89S205.86,208,223,208s-1.81,3-12.81,5S198.53,203.89,198.53,203.89Z"/><path class="cls-5" d="M229.23,176.72l8,25.28s44-12,34-67h-4S272.23,175.45,229.23,176.72Z"/></g></g></svg>