<svg id="Layer_1" data-name="Layer 1" xmlns="http://www.w3.org/2000/svg" viewBox="0 0 829.57 783.5"><defs><style>.cls-1{fill:#cbcbcb;stroke:#fff;stroke-width:8px;}.cls-1,.cls-10,.cls-11,.cls-12,.cls-16,.cls-17,.cls-18,.cls-19,.cls-23,.cls-6,.cls-7,.cls-8,.cls-9{stroke-miterlimit:10;}.cls-17,.cls-18,.cls-2,.cls-5,.cls-7{fill:#fff;}.cls-11,.cls-12,.cls-16,.cls-17,.cls-18,.cls-19,.cls-2,.cls-20,.cls-21,.cls-22,.cls-23,.cls-6,.cls-7,.cls-8,.cls-9{stroke:#000;}.cls-2,.cls-20,.cls-21,.cls-22{stroke-linecap:round;stroke-linejoin:round;}.cls-18,.cls-2,.cls-20,.cls-21,.cls-22,.cls-23{stroke-width:3px;}.cls-3{fill:#ffedc9;}.cls-4,.cls-6{fill:#c8c8c8;}.cls-11,.cls-12,.cls-6,.cls-7{stroke-width:5px;}.cls-12,.cls-21,.cls-23,.cls-8{fill:none;}.cls-8,.cls-9{stroke-width:13px;}.cls-10{fill:#ffe15f;stroke:#ffe15f;stroke-width:6px;}.cls-13{fill:#231f20;}.cls-14{fill:#ee2c3e;}.cls-15{fill:#8b8b8b;}.cls-19{fill:#b3b3b3;}.cls-20{fill:#007406;}.cls-22{fill:#ffdc8a;}</style></defs><circle class="cls-1" cx="648" cy="603.5" r="173"/><path d="M570.92,739V704h25v5h5v5h5v15h-5v5h-5v5Zm10-5h10v-5h5V714h-5v-5h-10Z" transform="translate(-1.5 -4)"/><path d="M625.92,719h5v5h-5v15h-10V714h10Zm20-5v5h-15v-5Z" transform="translate(-1.5 -4)"/><path d="M655.92,739v-5h-5V719h5v-5h25v5h5v10h-25v5h20v5Zm5-15h15v-5h-15Z" transform="translate(-1.5 -4)"/><path d="M695.92,739v-5h-5V714h10v20h15V714h10v25Z" transform="translate(-1.5 -4)"/><path class="cls-2" d="M577.45,684.78c-3.22-40.89,30.91-75.91,72.2-75.89,41,0,75,34.55,72.19,75.18Z" transform="translate(-1.5 -4)"/><ellipse class="cls-3" cx="649.77" cy="558.51" rx="49.73" ry="58.25"/><path d="M651.27,506.76c26,0,47.23,25,47.23,55.75s-21.19,55.74-47.23,55.74S604,593.24,604,562.51s21.19-55.75,47.23-55.75m0-5c-28.84,0-52.23,27.2-52.23,60.75s23.39,60.74,52.23,60.74,52.23-27.2,52.23-60.74-23.39-60.75-52.23-60.75Z" transform="translate(-1.5 -4)"/><path class="cls-4" d="M621.44,566.21a9.43,9.43,0,1,1,0-18.86h11.69a9.43,9.43,0,1,1,0,18.86Z" transform="translate(-1.5 -4)"/><path d="M633.13,549.85a6.93,6.93,0,0,1,0,13.86H621.44a6.93,6.93,0,0,1,0-13.86h11.69m0-5H621.44a11.93,11.93,0,0,0-11.93,11.93h0a11.93,11.93,0,0,0,11.93,11.93h11.69a11.93,11.93,0,0,0,11.93-11.93h0a11.93,11.93,0,0,0-11.93-11.93Z" transform="translate(-1.5 -4)"/><path class="cls-5" d="M619.62,564.94l14.72-.49s7.43,0,7.43-9.25Z" transform="translate(-1.5 -4)"/><path class="cls-4" d="M668.19,566.21a9.43,9.43,0,1,1,0-18.86h11.69a9.43,9.43,0,1,1,0,18.86Z" transform="translate(-1.5 -4)"/><path d="M679.88,549.85a6.93,6.93,0,0,1,0,13.86H668.19a6.93,6.93,0,0,1,0-13.86h11.69m0-5H668.19a11.93,11.93,0,0,0-11.93,11.93h0a11.93,11.93,0,0,0,11.93,11.93h11.69a11.93,11.93,0,0,0,11.93-11.93h0a11.93,11.93,0,0,0-11.93-11.93Z" transform="translate(-1.5 -4)"/><path class="cls-5" d="M666.37,564.94l14.71-.49s7.44,0,7.44-9.25Z" transform="translate(-1.5 -4)"/><line class="cls-6" x1="642.93" y1="552.78" x2="655.55" y2="552.78"/><path class="cls-7" d="M635.81,594.89h30S653.18,616,635.81,594.89Z" transform="translate(-1.5 -4)"/><path class="cls-8" d="M660.6,630.14c46.51-1,42.83-46.94,42.83-46.94" transform="translate(-1.5 -4)"/><rect class="cls-9" x="638.33" y="621.08" width="23.13" height="10.23" rx="5.11"/><path class="cls-10" d="M683.65,517s-1.21,12.66-19.72,13.63-31.41,1.22-37.49,8.28c0,0-2.68-14.12-16.93-11l-6.8,13.15s5.22-46.26,45.4-44.31,46,24.58,51.72,44.31Z" transform="translate(-1.5 -4)"/><rect class="cls-11" x="694.57" y="536.35" width="14.61" height="44.07" rx="7.3"/><rect class="cls-11" x="588.17" y="536.35" width="14.61" height="44.07" rx="7.3"/><path class="cls-12" d="M700.21,542.78c-1.36-8.67-7.68-47.11-53.75-47.11-39.45,0-44.93,46.51-44.93,46.51" transform="translate(-1.5 -4)"/><g id="Layer_2" data-name="Layer 2"><g id="Layer_1-2" data-name="Layer 1-2"><path class="cls-13" d="M673,644.19h-.86v5.28h.51V647H673a1,1,0,0,0,.71-.23,1,1,0,0,0,.23-.72v-.87a1,1,0,0,0-.23-.72A1,1,0,0,0,673,644.19Zm.43.95V646a.45.45,0,0,1-.1.35.44.44,0,0,1-.33.11h-.35v-1.8H673a.44.44,0,0,1,.33.11.48.48,0,0,1,.1.35Z" transform="translate(-1.5 -4)"/><path class="cls-13" d="M690.39,647.4a.8.8,0,0,0-.19-.35,5.66,5.66,0,0,0-.42-.43,4.07,4.07,0,0,1-.4-.43.59.59,0,0,1-.1-.17,1,1,0,0,1,0-.24V645c0-.25.12-.38.35-.38a.3.3,0,0,1,.27.12.57.57,0,0,1,.07.33V646h.47v-1a1,1,0,0,0-.18-.66.84.84,0,0,0-.64-.21.76.76,0,0,0-.85.87v.79a2.34,2.34,0,0,0,0,.38.6.6,0,0,0,.15.31l.23.25.21.22.21.2.19.21a.76.76,0,0,1,.08.11l.06.11a.59.59,0,0,1,0,.14s0,.12,0,.19h0v.75a.52.52,0,0,1-.08.3.42.42,0,0,1-.28.1.29.29,0,0,1-.27-.13.68.68,0,0,1-.08-.34v-1.05h-.48v1.11a.94.94,0,0,0,.2.65.83.83,0,0,0,.64.23.85.85,0,0,0,.66-.23.93.93,0,0,0,.19-.65v-.76A2,2,0,0,0,690.39,647.4Z" transform="translate(-1.5 -4)"/><path class="cls-13" d="M671.26,647.05a5.66,5.66,0,0,0-.42-.43,4.17,4.17,0,0,1-.41-.43.56.56,0,0,1-.09-.17.65.65,0,0,1,0-.24V645c0-.25.11-.38.35-.38a.31.31,0,0,1,.27.12.78.78,0,0,1,.07.33V646h.47v-1a1,1,0,0,0-.19-.66.82.82,0,0,0-.64-.21.76.76,0,0,0-.84.87v.79a2.36,2.36,0,0,0,0,.38.55.55,0,0,0,.16.31c.07.08.14.17.22.25l.21.22.21.2c.07.06.13.14.2.21a.76.76,0,0,0,.08.11.54.54,0,0,1,.05.11.68.68,0,0,1,0,.14s0,.12,0,.19v.75a.46.46,0,0,1-.08.3.34.34,0,0,1-.27.1.31.31,0,0,1-.28-.13.65.65,0,0,1-.07-.34v-1.05h-.48v1.11a.89.89,0,0,0,.2.65,1,1,0,0,0,1.29,0,1,1,0,0,0,.2-.65v-.76a2,2,0,0,0,0-.49A.92.92,0,0,0,671.26,647.05Z" transform="translate(-1.5 -4)"/><path class="cls-13" d="M687.4,644.19h-.86v5.28h.51V647h.36a.81.81,0,0,0,.93-1v-.87a1,1,0,0,0-.23-.72A.94.94,0,0,0,687.4,644.19Zm.43.95V646a.45.45,0,0,1-.1.35.44.44,0,0,1-.33.11h-.35v-1.8h.34a.45.45,0,0,1,.34.11.48.48,0,0,1,.1.35Z" transform="translate(-1.5 -4)"/><path class="cls-13" d="M685.09,644.19h-.85v5.28h.5V647h.36a.82.82,0,0,0,.93-1v-.87a1,1,0,0,0-.23-.72A.92.92,0,0,0,685.09,644.19Zm.44,1.83a.47.47,0,0,1-.12.35.41.41,0,0,1-.32.11h-.35v-1.8h.34a.47.47,0,0,1,.34.11.53.53,0,0,1,.1.35h0Z" transform="translate(-1.5 -4)"/><path class="cls-13" d="M682.43,644.19l-.76,5.28h.49l.12-.89h.82l.12.89h.51l-.71-5.28Zm-.08,3.94.18-1.35.18-1.36c0,.46.1.91.16,1.36s.12.9.17,1.35Z" transform="translate(-1.5 -4)"/><path class="cls-13" d="M674.78,644.19l-.76,5.28h.49l.12-.89h.82l.12.89h.5l-.7-5.28Zm.61,3.94h-.7c.07-.45.13-.9.19-1.35s.12-.9.17-1.36c.06.46.11.91.17,1.36S675.34,647.68,675.39,648.13Z" transform="translate(-1.5 -4)"/><polygon class="cls-13" points="677.75 643.02 678.41 643.02 678.41 642.53 677.75 642.53 677.75 640.68 678.69 640.68 678.69 640.19 677.24 640.19 677.24 645.47 677.24 645.47 678.72 645.47 678.72 644.99 677.75 644.99 677.75 643.02"/><path class="cls-13" d="M677.35,644.13c-.58,0-.87.3-.87.91v3.59a.78.78,0,0,0,.87.9.79.79,0,0,0,.61-.22,1.06,1.06,0,0,0,.19-.68v-1.09h-.46v1.09a.53.53,0,0,1-.08.32.31.31,0,0,1-.26.1c-.25,0-.37-.14-.37-.42V645c0-.27.12-.41.37-.41a.34.34,0,0,1,.27.1.57.57,0,0,1,.07.31V646h.46V645C678.15,644.43,677.88,644.13,677.35,644.13Z" transform="translate(-1.5 -4)"/><path class="cls-13" d="M687.2,641.45a1.59,1.59,0,1,1,1.65-1.59A1.62,1.62,0,0,1,687.2,641.45Zm0-2.94a1.35,1.35,0,1,0,1.4,1.35A1.37,1.37,0,0,0,687.2,638.51Z" transform="translate(-1.5 -4)"/><path class="cls-13" d="M688.28,638.94a.11.11,0,0,1-.12-.12.16.16,0,0,1,0-.09l1.42-1.36a.13.13,0,0,1,.18,0,.11.11,0,0,1,0,.17l-1.42,1.37A.12.12,0,0,1,688.28,638.94Z" transform="translate(-1.5 -4)"/><path class="cls-13" d="M687.05,638.52a.12.12,0,0,1-.12-.12.11.11,0,0,1,0-.08l1.27-1.53a.14.14,0,0,1,.18,0,.12.12,0,0,1,0,.17l-1.28,1.53A.12.12,0,0,1,687.05,638.52Z" transform="translate(-1.5 -4)"/><path class="cls-13" d="M686.24,638.84h0a.11.11,0,0,1-.06-.16h0l1.58-3.32a.13.13,0,0,1,.17-.06h0a.13.13,0,0,1,.06.17l-1.58,3.31A.14.14,0,0,1,686.24,638.84Z" transform="translate(-1.5 -4)"/><path class="cls-13" d="M688.72,640.13a.12.12,0,0,1-.12-.13.11.11,0,0,1,0-.09l1.59-1.23a.15.15,0,0,1,.18,0,.14.14,0,0,1,0,.16l-1.59,1.23A.11.11,0,0,1,688.72,640.13Z" transform="translate(-1.5 -4)"/><path class="cls-13" d="M688.39,640.91a.13.13,0,0,1-.13-.13.12.12,0,0,1,.07-.1l3.44-1.53a.13.13,0,0,1,.16.09.12.12,0,0,1,0,.12l-3.44,1.53Z" transform="translate(-1.5 -4)"/><path class="cls-13" d="M669.94,642.29s0,0,0,0h.22a0,0,0,0,1,0,0v1.15a0,0,0,0,1,0,0H670a0,0,0,0,1,0,0Z" transform="translate(-1.5 -4)"/><path class="cls-13" d="M671.07,642.27a0,0,0,0,1,0,0h0l.72.66h0v-.61s0,0,0,0h.22s0,0,0,0v1.17a0,0,0,0,1,0,0h0l-.72-.69h0v.65s0,0,0,0h-.21s0,0,0,0Z" transform="translate(-1.5 -4)"/><path class="cls-13" d="M673.17,642.51h-.26s0,0,0,0h0v-.19a0,0,0,0,1,0,0h.8s0,0,0,0v.19a0,0,0,0,1,0,0h-.25v.93a0,0,0,0,1,0,0h-.22a0,0,0,0,1,0,0Z" transform="translate(-1.5 -4)"/><path class="cls-13" d="M674.46,642.29a0,0,0,0,1,0,0h.74a0,0,0,0,1,0,0v.19a0,0,0,0,1,0,0h-.5v.22h.41s0,0,0,0V643s0,0,0,0h-.41v.24h.5s0,0,0,0h0v.19s0,0,0,0h-.74s0,0,0,0h0Z" transform="translate(-1.5 -4)"/><path class="cls-13" d="M676.06,642.29s0,0,0,0h.54a.39.39,0,0,1,.4.36.38.38,0,0,1-.27.37l.24.44a0,0,0,0,1,0,0h-.26l0,0-.24-.46h-.12v.44a0,0,0,0,1,0,0h-.22s0,0,0,0Zm.55.48a.13.13,0,0,0,.13-.14.13.13,0,0,0-.13-.13h-.27v.27Z" transform="translate(-1.5 -4)"/><path class="cls-13" d="M677.8,642.27s0,0,0,0h0l.72.66h0v-.61s0,0,0,0h.23s0,0,0,0v1.17a0,0,0,0,1,0,0h-.05l-.72-.69h0v.65a0,0,0,0,1,0,0h-.22a0,0,0,0,1,0,0Z" transform="translate(-1.5 -4)"/><path class="cls-13" d="M679.57,643.42l.57-1.16s0,0,0,0h0s0,0,0,0l.56,1.16a0,0,0,0,1,0,.05h-.21a.07.07,0,0,1-.07,0l-.06-.14h-.49l-.06.14a.08.08,0,0,1-.07,0h-.2a0,0,0,0,1,0,0Zm.74-.37-.13-.29h0l-.14.29Z" transform="translate(-1.5 -4)"/><path class="cls-13" d="M681.56,642.51h-.25s0,0,0,0h0v-.19a0,0,0,0,1,0,0h.8s0,0,0,0v.19a0,0,0,0,1,0,0h-.26v.93a0,0,0,0,1,0,0h-.21a0,0,0,0,1,0,0Z" transform="translate(-1.5 -4)"/><path class="cls-13" d="M682.86,642.29a0,0,0,0,1,0,0h.22s0,0,0,0v1.15s0,0,0,0h-.22l0,0Z" transform="translate(-1.5 -4)"/><path class="cls-13" d="M684.55,642.24a.63.63,0,0,1,.65.62.65.65,0,0,1-1.3,0h0a.64.64,0,0,1,.65-.62Zm0,1a.35.35,0,1,0-.36-.35h0a.35.35,0,0,0,.36.34Z" transform="translate(-1.5 -4)"/><path class="cls-13" d="M686,642.27s0,0,0,0h0l.72.66h0v-.61a0,0,0,0,1,0,0H687a0,0,0,0,1,0,0v1.17a0,0,0,0,1,0,0h0l-.71-.69h0v.65a0,0,0,0,1,0,0H686a0,0,0,0,1,0,0Z" transform="translate(-1.5 -4)"/><path class="cls-13" d="M687.72,643.42l.57-1.16s0,0,0,0h0s0,0,0,0l.56,1.16a0,0,0,0,1,0,.05h-.22a.08.08,0,0,1-.07,0l-.06-.14h-.49l-.06.14a.08.08,0,0,1-.07,0h-.19s0,0,0,0Zm.75-.37-.14-.29h0l-.13.29Z" transform="translate(-1.5 -4)"/><path class="cls-13" d="M689.62,642.29s0,0,0,0h.22s0,0,0,0v.92h.43a0,0,0,0,1,0,0h0v.19a0,0,0,0,1,0,0h-.67a0,0,0,0,1,0,0Z" transform="translate(-1.5 -4)"/><path class="cls-13" d="M670.69,650.11a1,1,0,0,1,.71.26.06.06,0,0,1,0,.08h0l-.23.23a0,0,0,0,1-.07,0,.64.64,0,0,0-.4-.15.58.58,0,1,0,0,1.16.6.6,0,0,0,.39-.14.06.06,0,0,1,.08,0l.22.23a.06.06,0,0,1,0,.08,1,1,0,0,1-.71.27,1,1,0,1,1,0-2Z" transform="translate(-1.5 -4)"/><path class="cls-13" d="M672.28,650.19a0,0,0,0,1,.05-.05h.35a.06.06,0,0,1,.06.05h0v.71h.83v-.71a.06.06,0,0,1,0-.06H674a.06.06,0,0,1,.06.06v1.86a.06.06,0,0,1-.06.06h-.34a.06.06,0,0,1-.06-.06v-.74h-.83v.74a.06.06,0,0,1-.06.06h-.35a.06.06,0,0,1-.05-.06Z" transform="translate(-1.5 -4)"/><path class="cls-13" d="M674.8,652l.91-1.9a.05.05,0,0,1,0,0h0a.05.05,0,0,1,.05,0l.92,1.9a0,0,0,0,1,0,.06h-.35s-.07,0-.1-.07l-.11-.22h-.79l-.11.22a.1.1,0,0,1-.1.07h-.32a.06.06,0,0,1-.06-.05Zm1.2-.6-.23-.47h0l-.22.47Z" transform="translate(-1.5 -4)"/><path class="cls-13" d="M677.52,650.19a.06.06,0,0,1,.06-.05h.35a0,0,0,0,1,.05.05v1.51h.7a0,0,0,0,1,.05,0v.31a0,0,0,0,1-.05.05h-1.1a.06.06,0,0,1-.06-.05Z" transform="translate(-1.5 -4)"/><path class="cls-13" d="M679.54,650.19a.06.06,0,0,1,.06-.05H680a0,0,0,0,1,0,.05v1.51h.7a.06.06,0,0,1,.06,0v.31a.06.06,0,0,1-.06.05h-1.1a.06.06,0,0,1-.06-.05Z" transform="translate(-1.5 -4)"/><path class="cls-13" d="M681.57,650.19a0,0,0,0,1,0-.05h1.21a.06.06,0,0,1,.06.05h0v.31a.06.06,0,0,1-.06,0H682v.35h.67a.06.06,0,0,1,.06.05v.31a.06.06,0,0,1-.06,0H682v.38h.81a.06.06,0,0,1,.06.06v.3a.06.06,0,0,1-.06.06h-1.21a.06.06,0,0,1,0-.06Z" transform="translate(-1.5 -4)"/><path class="cls-13" d="M683.81,650.16a0,0,0,0,1,.05,0h.08l1.16,1.08h0v-1a.06.06,0,0,1,.06-.05h.35a.06.06,0,0,1,.06.05v1.9a.06.06,0,0,1-.06,0h-.08L684.27,651h0v1a.06.06,0,0,1-.06.05h-.34s-.06,0-.06-.05Z" transform="translate(-1.5 -4)"/><path class="cls-13" d="M687.5,650.11a1.16,1.16,0,0,1,.71.27,0,0,0,0,1,0,.07h0l-.22.24a.06.06,0,0,1-.08,0,.59.59,0,0,0-.38-.14.59.59,0,0,0-.57.59.59.59,0,0,0,.57.55.85.85,0,0,0,.26-.05v-.16h-.19a0,0,0,0,1-.05-.05h0v-.27a.05.05,0,0,1,.05-.06h.6a.06.06,0,0,1,0,.06v.76l0,0a1.58,1.58,0,0,1-.73.18,1,1,0,1,1-.07-2Z" transform="translate(-1.5 -4)"/><path class="cls-13" d="M689.17,650.19a.06.06,0,0,1,.06-.05h1.22a0,0,0,0,1,0,.05h0v.31a0,0,0,0,1,0,0h-.81v.35h.66a.06.06,0,0,1,.06.05v.31a0,0,0,0,1-.05,0h-.67v.38h.81a.06.06,0,0,1,0,.06v.3a.06.06,0,0,1,0,.06h-1.22a.06.06,0,0,1-.06-.06Z" transform="translate(-1.5 -4)"/><path class="cls-14" d="M677.27,639.18a0,0,0,0,1,0,0h.05l.81.75h0v-.69a0,0,0,0,1,0,0h.24a0,0,0,0,1,0,0v1.31a0,0,0,0,1,0,0h-.06l-.8-.78h0v.73a0,0,0,0,1,0,0h-.25a0,0,0,0,1,0,0Z" transform="translate(-1.5 -4)"/><path class="cls-14" d="M678.86,640.48l.63-1.32,0,0h0l0,0,.64,1.32s0,0,0,0H680s-.05,0-.07,0l-.07-.16h-.56l-.07.16a.08.08,0,0,1-.07,0h-.22a.05.05,0,0,1,0,0S678.85,640.48,678.86,640.48Zm.83-.43-.15-.32h0l-.15.32Z" transform="translate(-1.5 -4)"/><path class="cls-14" d="M680.51,640.34l.09-.16a0,0,0,0,1,.07,0,.68.68,0,0,0,.29.11.14.14,0,0,0,.14-.11h0c0-.08-.07-.14-.21-.2a.49.49,0,0,1-.39-.43.41.41,0,0,1,.46-.39.86.86,0,0,1,.44.15s0,0,0,.06l-.1.15s0,0-.07,0a.81.81,0,0,0-.29-.12.11.11,0,0,0-.13.09h0c0,.07.06.13.22.19s.41.18.41.44a.46.46,0,0,1-.48.41.75.75,0,0,1-.46-.15S680.49,640.37,680.51,640.34Z" transform="translate(-1.5 -4)"/><path class="cls-14" d="M681.72,640.48l.63-1.32,0,0h0l0,0,.63,1.32a0,0,0,0,1,0,0h-.25s0,0-.07,0l-.07-.16h-.55l-.07.16a.08.08,0,0,1-.08,0h-.22a0,0,0,0,1,0,0Zm.83-.42-.15-.33h0l-.16.33Z" transform="translate(-1.5 -4)"/><path class="cls-13" d="M680.13,656.94a10.62,10.62,0,0,1-8.12-3.73.12.12,0,0,1,0-.17.14.14,0,0,1,.18,0,10.45,10.45,0,0,0,14.33,1.44c.27-.21.53-.44.78-.67a9.11,9.11,0,0,0,.73-.79.13.13,0,1,1,.2.16h0c-.24.28-.49.54-.75.8A10.64,10.64,0,0,1,680.13,656.94Z" transform="translate(-1.5 -4)"/><path class="cls-13" d="M671.82,641.12a.13.13,0,0,1-.08,0,.12.12,0,0,1,0-.17h0a10.69,10.69,0,0,1,14.49-2.21.12.12,0,0,1,0,.17.13.13,0,0,1-.18,0,10.44,10.44,0,0,0-14.14,2.16A.12.12,0,0,1,671.82,641.12Z" transform="translate(-1.5 -4)"/></g></g><circle class="cls-1" cx="179.5" cy="177" r="173"/><rect class="cls-15" x="105.53" y="159.58" width="143.23" height="44.94" rx="22.47"/><path class="cls-2" d="M92.77,255.12c-3.92-51,37.68-94.68,88-94.66,50,0,91.39,43.09,88,93.77Z" transform="translate(-1.5 -4)"/><ellipse class="cls-15" cx="177.62" cy="161.15" rx="56.11" ry="43.5"/><circle class="cls-5" cx="177.02" cy="120.53" r="74.28"/><path d="M178.52,52.75a71.78,71.78,0,1,1-71.78,71.78,71.86,71.86,0,0,1,71.78-71.78m0-5a76.78,76.78,0,1,0,76.78,76.78,76.79,76.79,0,0,0-76.78-76.78Z" transform="translate(-1.5 -4)"/><path class="cls-16" d="M112.43,98.34c-8.87,27.45-2.59,57,16.59,76.42,22.25,22.5,51.83,21.11,55,20.91,4.82-.31,28.06-2.29,45.9-20.91,18.94-19.78,24.17-50.37,13.94-78.59a24.32,24.32,0,0,0-5.53-6.72c-13.13-11-29.14.85-59.12,1.44-30.79.6-47.22-11.26-61,.48A26.66,26.66,0,0,0,112.43,98.34Z" transform="translate(-1.5 -4)"/><circle class="cls-17" cx="129.56" cy="105.27" r="8.05"/><circle class="cls-17" cx="135.57" cy="122.1" r="3.24"/><path class="cls-17" d="M137.19,176.92s26.12,21.73,59.59,13.7c17.43-4.18,42.06-23.15,46.63-44.22,0,0-16.87,30.59-67.29,34.61C163.16,182,137.19,176.92,137.19,176.92Z" transform="translate(-1.5 -4)"/><g id="Layer_2-2" data-name="Layer 2"><g id="Layer_1-2-2" data-name="Layer 1-2"><path class="cls-13" d="M214.72,218h-.84v5.22h.49v-2.48h.35a1,1,0,0,0,.7-.22,1,1,0,0,0,.23-.72V219a1,1,0,0,0-.23-.72A1,1,0,0,0,214.72,218Zm.43.95v.86a.49.49,0,0,1-.11.35.41.41,0,0,1-.32.11h-.35v-1.78h.35a.44.44,0,0,1,.33.11.52.52,0,0,1,.1.34Z" transform="translate(-1.5 -4)"/><path class="cls-13" d="M231.92,221.21a.92.92,0,0,0-.19-.35,5.44,5.44,0,0,0-.41-.42,4,4,0,0,1-.4-.43.42.42,0,0,1-.1-.17,1,1,0,0,1,0-.24v-.76c0-.25.11-.38.34-.38a.29.29,0,0,1,.27.12.54.54,0,0,1,.07.33v.88H232v-.95a1,1,0,0,0-.19-.65.8.8,0,0,0-.63-.22c-.55,0-.83.29-.83.87v.78a2.3,2.3,0,0,0,0,.37.54.54,0,0,0,.15.3l.23.25.21.22.2.19a2,2,0,0,1,.19.22.44.44,0,0,1,.08.11.33.33,0,0,1,.06.1.68.68,0,0,1,0,.14s0,.12,0,.19h0v.74a.47.47,0,0,1-.08.29.34.34,0,0,1-.27.1.28.28,0,0,1-.27-.13.62.62,0,0,1-.08-.33v-1h-.47v1.1a.92.92,0,0,0,.19.64.83.83,0,0,0,.64.23.8.8,0,0,0,.64-.23.92.92,0,0,0,.19-.64v-.75A2,2,0,0,0,231.92,221.21Z" transform="translate(-1.5 -4)"/><path class="cls-13" d="M213,220.86a5.44,5.44,0,0,0-.41-.42,4,4,0,0,1-.4-.43.59.59,0,0,1-.1-.17,1,1,0,0,1,0-.24v-.76c0-.25.11-.38.34-.38a.29.29,0,0,1,.27.12.54.54,0,0,1,.07.33v.88h.47v-.95a1,1,0,0,0-.19-.65.8.8,0,0,0-.63-.22c-.55,0-.83.29-.83.87v.78c0,.12,0,.25,0,.37a.54.54,0,0,0,.15.3l.23.26.21.21.2.2a1.9,1.9,0,0,1,.19.21.44.44,0,0,1,.08.11.47.47,0,0,1,0,.1.35.35,0,0,1,0,.14s0,.12,0,.19v.74a.47.47,0,0,1-.08.29.34.34,0,0,1-.27.1.28.28,0,0,1-.27-.13.62.62,0,0,1-.08-.33v-1h-.47v1.1a.88.88,0,0,0,.2.64.79.79,0,0,0,.63.23.8.8,0,0,0,.64-.23,1,1,0,0,0,.2-.64v-.75a2.81,2.81,0,0,0-.05-.49A1,1,0,0,0,213,220.86Z" transform="translate(-1.5 -4)"/><path class="cls-13" d="M229,218h-.84v5.22h.5v-2.48H229a1,1,0,0,0,.7-.22,1,1,0,0,0,.22-.72V219A.81.81,0,0,0,229,218Zm.43.95v.86a.48.48,0,0,1-.1.35.44.44,0,0,1-.33.11h-.34v-1.78H229a.44.44,0,0,1,.33.11.47.47,0,0,1,.1.34Z" transform="translate(-1.5 -4)"/><path class="cls-13" d="M226.68,218h-.84v5.22h.5v-2.48h.35a1,1,0,0,0,.7-.22,1,1,0,0,0,.22-.72V219a.81.81,0,0,0-.93-.95Zm.43,1.81a.49.49,0,0,1-.11.35.41.41,0,0,1-.32.11h-.35v-1.78h.34a.45.45,0,0,1,.34.11.52.52,0,0,1,.1.34h0Z" transform="translate(-1.5 -4)"/><path class="cls-13" d="M224.05,218l-.74,5.22h.48l.12-.88h.81l.12.88h.5l-.7-5.22Zm-.08,3.9c.07-.45.13-.89.18-1.33l.18-1.34c0,.44.11.89.16,1.34s.12.89.17,1.33Z" transform="translate(-1.5 -4)"/><path class="cls-13" d="M216.5,218l-.74,5.22h.48l.12-.88h.81l.11.88h.5l-.69-5.22Zm.61,3.9h-.69l.18-1.33.18-1.34c.05.44.1.89.16,1.34S217.06,221.49,217.11,221.93Z" transform="translate(-1.5 -4)"/><polygon class="cls-13" points="219.41 216.83 220.07 216.83 220.07 216.35 219.41 216.35 219.41 214.52 220.35 214.52 220.35 214.03 218.92 214.03 218.92 219.25 218.92 219.25 220.38 219.25 220.38 218.77 219.41 218.77 219.41 216.83"/><path class="cls-13" d="M219,218c-.57,0-.86.3-.86.9v3.54a.77.77,0,0,0,.86.88.75.75,0,0,0,.6-.21,1,1,0,0,0,.19-.67v-1.08h-.45v1.08a.48.48,0,0,1-.08.31.28.28,0,0,1-.26.1c-.24,0-.36-.13-.36-.41v-3.55c0-.27.12-.41.36-.41a.31.31,0,0,1,.26.1.5.5,0,0,1,.08.31v.92h.45v-.93C219.83,218.27,219.57,218,219,218Z" transform="translate(-1.5 -4)"/><path class="cls-13" d="M228.77,215.33a1.57,1.57,0,1,1,1.63-1.57A1.6,1.6,0,0,1,228.77,215.33Zm0-2.9a1.33,1.33,0,1,0,1.38,1.33A1.36,1.36,0,0,0,228.77,212.43Z" transform="translate(-1.5 -4)"/><path class="cls-13" d="M229.83,212.86a.13.13,0,0,1-.09-.21l1.41-1.35a.12.12,0,1,1,.17.17l-1.4,1.35A.13.13,0,0,1,229.83,212.86Z" transform="translate(-1.5 -4)"/><path class="cls-13" d="M228.62,212.44a.12.12,0,0,1-.12-.12.11.11,0,0,1,0-.08l1.25-1.51a.14.14,0,0,1,.18,0,.13.13,0,0,1,0,.17l-1.26,1.51A.12.12,0,0,1,228.62,212.44Z" transform="translate(-1.5 -4)"/><path class="cls-13" d="M227.82,212.76h0a.13.13,0,0,1-.07-.16h0l1.56-3.28a.13.13,0,0,1,.17-.05h0a.12.12,0,0,1,.06.16l-1.57,3.27A.12.12,0,0,1,227.82,212.76Z" transform="translate(-1.5 -4)"/><path class="cls-13" d="M230.27,214a.12.12,0,0,1-.13-.12.12.12,0,0,1,.05-.09l1.57-1.21a.13.13,0,0,1,.17,0,.11.11,0,0,1,0,.16L230.35,214A.12.12,0,0,1,230.27,214Z" transform="translate(-1.5 -4)"/><path class="cls-13" d="M229.94,214.8a.13.13,0,0,1-.13-.12.12.12,0,0,1,.07-.11l3.4-1.51a.12.12,0,0,1,.15.09.11.11,0,0,1-.05.12L230,214.78Z" transform="translate(-1.5 -4)"/><path class="cls-13" d="M211.73,216.16a0,0,0,0,1,0,0H212a0,0,0,0,1,0,0v1.13s0,0,0,0h-.22a0,0,0,0,1,0,0Z" transform="translate(-1.5 -4)"/><path class="cls-13" d="M212.84,216.14s0,0,0,0h0l.71.66h0v-.61s0,0,0,0h.21a0,0,0,0,1,0,0v1.15a0,0,0,0,1,0,0h0l-.7-.68h0v.65a0,0,0,0,1,0,0h-.21a0,0,0,0,1,0,0Z" transform="translate(-1.5 -4)"/><path class="cls-13" d="M214.91,216.38h-.25a0,0,0,0,1,0,0h0v-.19a0,0,0,0,1,0,0h.79a0,0,0,0,1,0,0v.19a0,0,0,0,1,0,0h-.25v.91a0,0,0,0,1,0,0H215a0,0,0,0,1,0,0Z" transform="translate(-1.5 -4)"/><path class="cls-13" d="M216.19,216.16s0,0,0,0H217s0,0,0,0v.19a0,0,0,0,1,0,0h-.49v.21h.41a0,0,0,0,1,0,0v.18a0,0,0,0,1,0,0h-.41v.23H217s0,0,0,0h0v.18a0,0,0,0,1,0,0h-.73a0,0,0,0,1,0,0h0Z" transform="translate(-1.5 -4)"/><path class="cls-13" d="M217.77,216.16a0,0,0,0,1,0,0h.53a.38.38,0,0,1,.4.35.37.37,0,0,1-.27.36l.24.43s0,0,0,0h-.28l-.24-.46h-.12v.44s0,0,0,0h-.21a0,0,0,0,1,0,0Zm.54.48a.14.14,0,0,0,.13-.14.13.13,0,0,0-.13-.13h-.26v.27Z" transform="translate(-1.5 -4)"/><path class="cls-13" d="M219.49,216.14a0,0,0,0,1,0,0h0l.71.66h0v-.61a0,0,0,0,1,0,0h.22a0,0,0,0,1,0,0v1.15a0,0,0,0,1,0,0h-.05l-.7-.68h0v.65a0,0,0,0,1,0,0h-.21a0,0,0,0,1,0,0Z" transform="translate(-1.5 -4)"/><path class="cls-13" d="M221.24,217.28l.55-1.15,0,0h0l0,0,.56,1.15s0,0,0,0a0,0,0,0,1,0,0h-.2s0,0-.07-.05l-.06-.13h-.48l-.06.13a.07.07,0,0,1-.06.05h-.2a0,0,0,0,1,0,0S221.23,217.29,221.24,217.28Zm.73-.37-.14-.28h0l-.13.28Z" transform="translate(-1.5 -4)"/><path class="cls-13" d="M223.2,216.38H223a0,0,0,0,1,0,0h0v-.19s0,0,0,0h.79a0,0,0,0,1,0,0v.19a0,0,0,0,1,0,0h-.26v.91s0,0,0,0h-.21a0,0,0,0,1,0,0Z" transform="translate(-1.5 -4)"/><path class="cls-13" d="M224.48,216.16s0,0,0,0h.21a0,0,0,0,1,0,0v1.13s0,0,0,0h-.21a0,0,0,0,1,0,0Z" transform="translate(-1.5 -4)"/><path class="cls-13" d="M226.15,216.11a.62.62,0,1,1,0,1.23.62.62,0,0,1-.64-.61h0a.63.63,0,0,1,.64-.62Zm0,1a.34.34,0,1,0-.35-.34h0a.35.35,0,0,0,.35.34Z" transform="translate(-1.5 -4)"/><path class="cls-13" d="M227.54,216.14a0,0,0,0,1,0,0h0l.71.66h0v-.61s0,0,0,0h.21a0,0,0,0,1,0,0v1.15a0,0,0,0,1,0,0h0l-.7-.68h0v.65a0,0,0,0,1,0,0h-.21a0,0,0,0,1,0,0Z" transform="translate(-1.5 -4)"/><path class="cls-13" d="M229.28,217.28l.56-1.15,0,0h0l0,0,.55,1.15s0,0,0,0h-.22s0,0-.06-.05l-.06-.13h-.48l-.07.13a.06.06,0,0,1-.06.05h-.2a0,0,0,0,1,0,0Zm.73-.37-.13-.28h0l-.13.28Z" transform="translate(-1.5 -4)"/><path class="cls-13" d="M231.15,216.16s0,0,0,0h.21a0,0,0,0,1,0,0v.91h.43s0,0,0,0h0v.18s0,0,0,0h-.67s0,0,0,0Z" transform="translate(-1.5 -4)"/><path class="cls-13" d="M212.47,223.88a1,1,0,0,1,.7.26,0,0,0,0,1,0,.07h0l-.23.22a0,0,0,0,1-.07,0,.6.6,0,0,0-.39-.14.58.58,0,0,0-.59.57.59.59,0,0,0,.59.57.62.62,0,0,0,.39-.14,0,0,0,0,1,.07,0l.22.23a0,0,0,0,1,0,.08,1,1,0,1,1-.7-1.74Z" transform="translate(-1.5 -4)"/><path class="cls-13" d="M214,224a.06.06,0,0,1,.06-.05h.34a.06.06,0,0,1,.06.05h0v.7h.82V224a.06.06,0,0,1,.06-.06h.34a.06.06,0,0,1,0,.06v1.84a0,0,0,0,1,0,0h-.34a.06.06,0,0,1-.06,0v-.73h-.82v.73a.06.06,0,0,1-.06,0h-.34a.06.06,0,0,1-.06,0Z" transform="translate(-1.5 -4)"/><path class="cls-13" d="M216.52,225.78l.91-1.87a.05.05,0,0,1,0,0h0s0,0,0,0l.91,1.87a.06.06,0,0,1,0,.07h-.35a.09.09,0,0,1-.1-.07l-.11-.22h-.78l-.11.23a.09.09,0,0,1-.1.06h-.32s0,0,0,0Zm1.19-.59-.22-.46h0l-.22.46Z" transform="translate(-1.5 -4)"/><path class="cls-13" d="M219.21,224a.06.06,0,0,1,.06-.05h.34a.06.06,0,0,1,.06.05v1.49h.69a0,0,0,0,1,0,.05v.3a.06.06,0,0,1,0,.06h-1.09s-.06,0-.06-.06Z" transform="translate(-1.5 -4)"/><path class="cls-13" d="M221.21,224a0,0,0,0,1,0-.05h.35a0,0,0,0,1,0,.05v1.49h.69a.06.06,0,0,1,.06.05v.3a.06.06,0,0,1-.06.06h-1.08a.06.06,0,0,1-.06-.06Z" transform="translate(-1.5 -4)"/><path class="cls-13" d="M223.21,224a0,0,0,0,1,0-.05h1.2a0,0,0,0,1,0,.05h0v.3a.06.06,0,0,1,0,.06h-.8v.34h.65a.06.06,0,0,1,.06.05v.3a.06.06,0,0,1-.06.06h-.65v.37h.8a.06.06,0,0,1,0,.06v.3a0,0,0,0,1,0,0h-1.2a0,0,0,0,1,0,0Z" transform="translate(-1.5 -4)"/><path class="cls-13" d="M225.42,223.93a0,0,0,0,1,.05-.05h.07L226.7,225h0v-1a0,0,0,0,1,.05-.05h.35a0,0,0,0,1,.05.05v1.88a.05.05,0,0,1-.05,0h0l0,0-1.14-1.11h0v1a.06.06,0,0,1-.05.06h-.35a.06.06,0,0,1-.05-.06Z" transform="translate(-1.5 -4)"/><path class="cls-13" d="M229.06,223.88a1.21,1.21,0,0,1,.71.26,0,0,0,0,1,0,.07h0l-.23.23a0,0,0,0,1-.07,0,.53.53,0,0,0-.38-.13.56.56,0,1,0,0,1.11.55.55,0,0,0,.25,0v-.16h-.18a0,0,0,0,1,0,0h0v-.28a.05.05,0,0,1,0-.05h.59a0,0,0,0,1,.05.05v.75a.08.08,0,0,1,0,0,1.51,1.51,0,0,1-.72.18,1,1,0,0,1-1.07-1,1,1,0,0,1,1-1Z" transform="translate(-1.5 -4)"/><path class="cls-13" d="M230.71,224a.06.06,0,0,1,.06-.05H232a.06.06,0,0,1,.06.05h0v.3a.06.06,0,0,1-.06.06h-.8v.34h.66a0,0,0,0,1,0,.05v.3a.06.06,0,0,1,0,.06h-.66v.37h.8a.06.06,0,0,1,.06.06v.3a.06.06,0,0,1-.06,0h-1.2a.06.06,0,0,1-.06,0Z" transform="translate(-1.5 -4)"/><path class="cls-14" d="M219,213.09a0,0,0,0,1,0,0h.05l.79.74h0v-.68a0,0,0,0,1,0,0h.24a0,0,0,0,1,0,0v1.3s0,0,0,0h-.06l-.79-.76h0v.71s0,0,0,0H219a0,0,0,0,1,0,0Z" transform="translate(-1.5 -4)"/><path class="cls-14" d="M220.53,214.37l.63-1.3,0,0h0l0,0,.62,1.3s0,0,0,0h-.24s-.05,0-.07,0l-.07-.15h-.55l-.07.15a.08.08,0,0,1-.07,0h-.22s0,0,0,0Zm.83-.42-.15-.32h0l-.16.32Z" transform="translate(-1.5 -4)"/><path class="cls-14" d="M222.16,214.24l.09-.16a0,0,0,0,1,.07,0,.56.56,0,0,0,.28.1.12.12,0,0,0,.14-.1h0c0-.08-.07-.14-.2-.19s-.39-.2-.39-.43.15-.38.46-.38a.76.76,0,0,1,.43.14s0,0,0,.06l-.1.15s0,0-.07,0a.5.5,0,0,0-.29-.12.1.1,0,0,0-.12.09h0c0,.07.06.12.22.18s.4.18.4.44a.44.44,0,0,1-.48.4.63.63,0,0,1-.45-.15A0,0,0,0,1,222.16,214.24Z" transform="translate(-1.5 -4)"/><path class="cls-14" d="M223.35,214.37l.63-1.3,0,0h0l0,0,.62,1.3s0,0,0,0h-.24s-.05,0-.07,0l-.08-.15h-.54l-.07.15a.08.08,0,0,1-.07,0h-.22s0,0,0,0Zm.82-.41-.15-.32h0l-.15.32Z" transform="translate(-1.5 -4)"/><path class="cls-13" d="M221.78,230.63a10.47,10.47,0,0,1-8-3.69.12.12,0,0,1,0-.17.14.14,0,0,1,.18,0,10.31,10.31,0,0,0,14.14,1.43,10,10,0,0,0,.77-.67c.26-.25.5-.51.73-.78a.12.12,0,0,1,.17,0,.12.12,0,0,1,0,.17h0c-.23.27-.48.54-.74.79A10.5,10.5,0,0,1,221.78,230.63Z" transform="translate(-1.5 -4)"/><path class="cls-13" d="M213.58,215a.1.1,0,0,1-.07,0,.12.12,0,0,1,0-.17h0a10.56,10.56,0,0,1,14.31-2.18.12.12,0,0,1,0,.17.14.14,0,0,1-.18,0,10.31,10.31,0,0,0-14,2.13A.1.1,0,0,1,213.58,215Z" transform="translate(-1.5 -4)"/></g></g><path d="M101.64,301.05v-35h25v5h5v5h5v15h-5v5h-5v5Zm10-5h10v-5h5v-15h-5v-5h-10Z" transform="translate(-1.5 -4)"/><path d="M146.64,301.05v-5h-5v-5h5v-5h20v-5h-20v-5h25v5h5v20Zm5-5h15v-5h-15Z" transform="translate(-1.5 -4)"/><path d="M181.64,301.05v-25h30v5h5v20h-10v-20h-15v20Z" transform="translate(-1.5 -4)"/><path d="M226.64,301.05v-5h-5v-5h5v-5h20v-5h-20v-5h25v5h5v20Zm5-5h15v-5h-15Z" transform="translate(-1.5 -4)"/><circle class="cls-1" cx="652.57" cy="182.24" r="173"/><rect class="cls-15" x="579.09" y="164.32" width="143.23" height="44.94" rx="22.47"/><path class="cls-2" d="M566.34,259.85c-3.93-51,37.67-94.67,88-94.66,50,0,91.39,43.1,88,93.77Z" transform="translate(-1.5 -4)"/><ellipse class="cls-15" cx="651.19" cy="165.88" rx="56.11" ry="43.5"/><circle class="cls-5" cx="650.59" cy="125.27" r="74.28"/><path d="M652.09,57.49a71.78,71.78,0,1,1-71.78,71.78,71.86,71.86,0,0,1,71.78-71.78m0-5a76.78,76.78,0,1,0,76.78,76.78,76.77,76.77,0,0,0-76.78-76.78Z" transform="translate(-1.5 -4)"/><path class="cls-16" d="M586,103.07c-8.88,27.45-2.59,57,16.58,76.42,22.26,22.51,51.84,21.11,55,20.91,4.83-.31,28.07-2.29,45.9-20.91,18.94-19.77,24.17-50.37,13.94-78.58a24.27,24.27,0,0,0-5.52-6.73c-13.14-11-29.14.85-59.12,1.44-30.79.61-47.23-11.26-61,.48A26.82,26.82,0,0,0,586,103.07Z" transform="translate(-1.5 -4)"/><circle class="cls-17" cx="603.12" cy="110.01" r="8.05"/><circle class="cls-17" cx="609.13" cy="126.83" r="3.24"/><path class="cls-17" d="M610.75,181.66s26.13,21.72,59.6,13.69c17.43-4.18,42.06-23.15,46.62-44.21,0,0-16.87,30.58-67.29,34.6C636.72,186.77,610.75,181.66,610.75,181.66Z" transform="translate(-1.5 -4)"/><g id="Layer_2-3" data-name="Layer 2"><g id="Layer_1-2-3" data-name="Layer 1-2"><path class="cls-13" d="M688.28,222.77h-.84V228h.5V225.5h.35a1,1,0,0,0,.7-.22,1,1,0,0,0,.22-.71v-.86A1,1,0,0,0,689,223,1,1,0,0,0,688.28,222.77Zm.44.94v.87a.48.48,0,0,1-.11.34.42.42,0,0,1-.32.11h-.35v-1.78h.34a.47.47,0,0,1,.34.11.53.53,0,0,1,.09.35Z" transform="translate(-1.5 -4)"/><path class="cls-13" d="M705.48,225.94a.86.86,0,0,0-.18-.34,5.66,5.66,0,0,0-.42-.43,3.28,3.28,0,0,1-.4-.43.51.51,0,0,1-.09-.16,1,1,0,0,1,0-.24v-.77c0-.25.12-.37.35-.37a.26.26,0,0,1,.27.12.6.6,0,0,1,.07.32v.88h.46v-1a1,1,0,0,0-.18-.65.8.8,0,0,0-.63-.21.75.75,0,0,0-.84.86v.78a2.43,2.43,0,0,0,0,.38.57.57,0,0,0,.15.3l.22.25.21.21.21.2.19.21.08.11a.37.37,0,0,1,0,.11.61.61,0,0,1,0,.13v.2h0v.74a.44.44,0,0,1-.08.29.33.33,0,0,1-.27.09.28.28,0,0,1-.27-.12.64.64,0,0,1-.07-.33v-1.05h-.48v1.11a1,1,0,0,0,.2.64,1,1,0,0,0,1.28,0,.93.93,0,0,0,.19-.64v-.75A2,2,0,0,0,705.48,225.94Z" transform="translate(-1.5 -4)"/><path class="cls-13" d="M686.6,225.6a4.26,4.26,0,0,0-.42-.43,3.28,3.28,0,0,1-.4-.43.51.51,0,0,1-.09-.16.65.65,0,0,1,0-.24v-.77c0-.25.11-.37.34-.37a.28.28,0,0,1,.27.12.6.6,0,0,1,.07.32v.88h.46v-1a1,1,0,0,0-.18-.65.8.8,0,0,0-.63-.21c-.56,0-.83.29-.83.86v.78a1.62,1.62,0,0,0,0,.38.57.57,0,0,0,.15.3l.22.25.21.21.21.2.19.21.08.11a.37.37,0,0,1,0,.11.61.61,0,0,1,0,.13v.94a.44.44,0,0,1-.08.29.33.33,0,0,1-.27.09.26.26,0,0,1-.27-.12.64.64,0,0,1-.07-.33v-1.05h-.47v1.11a.92.92,0,0,0,.19.64.83.83,0,0,0,.64.22.8.8,0,0,0,.64-.22.93.93,0,0,0,.19-.64v-.75a2,2,0,0,0,0-.49A.88.88,0,0,0,686.6,225.6Z" transform="translate(-1.5 -4)"/><path class="cls-13" d="M702.53,222.77h-.85V228h.5V225.5h.36a.8.8,0,0,0,.92-.93v-.86a1,1,0,0,0-.23-.72A1,1,0,0,0,702.53,222.77Zm.43.94v.87a.48.48,0,0,1-.11.34.41.41,0,0,1-.32.11h-.35v-1.78h.34a.45.45,0,0,1,.34.11.53.53,0,0,1,.1.35Z" transform="translate(-1.5 -4)"/><path class="cls-13" d="M700.25,222.77h-.84V228h.49V225.5h.35a1,1,0,0,0,.7-.22,1,1,0,0,0,.23-.71v-.86A1,1,0,0,0,701,223,.93.93,0,0,0,700.25,222.77Zm.43,1.81a.47.47,0,0,1-.11.34.42.42,0,0,1-.32.11h-.35v-1.78h.34a.44.44,0,0,1,.33.11.48.48,0,0,1,.1.35h0Z" transform="translate(-1.5 -4)"/><path class="cls-13" d="M697.62,222.77l-.75,5.21h.49l.12-.87h.81l.11.87h.5l-.69-5.21Zm-.08,3.89.18-1.33.18-1.34c.05.45.1.89.16,1.34s.11.89.17,1.33Z" transform="translate(-1.5 -4)"/><path class="cls-13" d="M690.07,222.77l-.75,5.21h.49l.12-.87h.8l.12.87h.5l-.7-5.21Zm.61,3.89H690l.18-1.33c.06-.44.12-.89.17-1.34.06.45.11.89.17,1.34S690.62,226.22,690.68,226.66Z" transform="translate(-1.5 -4)"/><polygon class="cls-13" points="692.98 221.57 693.64 221.57 693.64 221.08 692.98 221.08 692.98 219.26 693.91 219.26 693.91 218.77 692.48 218.77 692.48 223.98 692.48 223.98 693.95 223.98 693.95 223.51 692.98 223.51 692.98 221.57"/><path class="cls-13" d="M692.61,222.71c-.57,0-.86.3-.86.9v3.55a.77.77,0,0,0,.86.88.74.74,0,0,0,.6-.22,1,1,0,0,0,.19-.67v-1.08h-.46v1.09a.49.49,0,0,1-.07.31.32.32,0,0,1-.26.1c-.24,0-.36-.14-.36-.41V223.6c0-.27.12-.4.36-.4a.28.28,0,0,1,.26.1.46.46,0,0,1,.07.3v.92h.46v-.92C693.4,223,693.13,222.71,692.61,222.71Z" transform="translate(-1.5 -4)"/><path class="cls-13" d="M702.33,220.07A1.57,1.57,0,1,1,704,218.5,1.61,1.61,0,0,1,702.33,220.07Zm0-2.9a1.33,1.33,0,1,0,1.38,1.33A1.35,1.35,0,0,0,702.33,217.17Z" transform="translate(-1.5 -4)"/><path class="cls-13" d="M703.4,217.59a.12.12,0,0,1-.13-.12.2.2,0,0,1,0-.08l1.4-1.35a.13.13,0,0,1,.18,0,.11.11,0,0,1,0,.17l-1.4,1.35A.16.16,0,0,1,703.4,217.59Z" transform="translate(-1.5 -4)"/><path class="cls-13" d="M702.19,217.17a.12.12,0,0,1-.13-.12.09.09,0,0,1,0-.07l1.26-1.51a.12.12,0,0,1,.17,0,.11.11,0,0,1,0,.17l-1.25,1.51A.13.13,0,0,1,702.19,217.17Z" transform="translate(-1.5 -4)"/><path class="cls-13" d="M701.38,217.49h0a.12.12,0,0,1-.06-.16h0l1.57-3.27A.12.12,0,0,1,703,214h0a.13.13,0,0,1,.07.16l-1.57,3.27A.14.14,0,0,1,701.38,217.49Z" transform="translate(-1.5 -4)"/><path class="cls-13" d="M703.83,218.76a.12.12,0,0,1-.12-.12.13.13,0,0,1,0-.09l1.57-1.21a.13.13,0,0,1,.18,0,.14.14,0,0,1,0,.16l-1.57,1.2A.11.11,0,0,1,703.83,218.76Z" transform="translate(-1.5 -4)"/><path class="cls-13" d="M703.5,219.53a.12.12,0,0,1-.12-.12.12.12,0,0,1,.07-.11l3.4-1.51a.14.14,0,0,1,.15.09.13.13,0,0,1,0,.13l-3.4,1.51Z" transform="translate(-1.5 -4)"/><path class="cls-13" d="M685.29,220.89a0,0,0,0,1,0,0h.22l0,0V222l0,0h-.23a0,0,0,0,1,0,0Z" transform="translate(-1.5 -4)"/><path class="cls-13" d="M686.41,220.87a0,0,0,0,1,0,0h0l.71.66h0v-.61a0,0,0,0,1,0,0h.22l0,0v1.16l0,0h-.06l-.7-.68h0V222a0,0,0,0,1,0,0h-.21s0,0,0,0Z" transform="translate(-1.5 -4)"/><path class="cls-13" d="M688.48,221.11h-.25s0,0,0,0h0v-.19l0,0h.8l0,0v.19a0,0,0,0,1,0,0h-.25V222s0,0,0,0h-.22a0,0,0,0,1,0,0Z" transform="translate(-1.5 -4)"/><path class="cls-13" d="M689.76,220.89a0,0,0,0,1,0,0h.74a0,0,0,0,1,0,0v.19a0,0,0,0,1,0,0H690v.22h.4s0,0,0,0v.19a0,0,0,0,1,0,0H690v.23h.49a0,0,0,0,1,0,0h0V222a0,0,0,0,1,0,0h-.74a0,0,0,0,1,0,0h0Z" transform="translate(-1.5 -4)"/><path class="cls-13" d="M691.33,220.89a0,0,0,0,1,0,0h.53a.37.37,0,0,1,.12.72l.25.43s0,0,0,0H692l0,0-.23-.45h-.13V222s0,0,0,0h-.21a0,0,0,0,1,0,0Zm.55.48a.13.13,0,0,0,.13-.13.13.13,0,0,0-.13-.13h-.27v.26Z" transform="translate(-1.5 -4)"/><path class="cls-13" d="M693.06,220.87a0,0,0,0,1,0,0h0l.71.66h0v-.61a0,0,0,0,1,0,0h.22a0,0,0,0,1,0,0v1.16a0,0,0,0,1,0,0h-.05l-.71-.68h0V222a0,0,0,0,1,0,0h-.21s0,0,0,0Z" transform="translate(-1.5 -4)"/><path class="cls-13" d="M694.8,222l.56-1.16s0,0,0,0h0l0,0L696,222s0,0,0,0h-.22s0,0-.06,0l-.06-.14h-.48l-.06.14a.08.08,0,0,1-.07,0h-.2a0,0,0,0,1,0,0Zm.73-.37-.13-.29h0l-.13.29Z" transform="translate(-1.5 -4)"/><path class="cls-13" d="M696.77,221.11h-.25s0,0,0,0h0v-.19l0,0h.79a0,0,0,0,1,0,0v.19s0,0,0,0h-.25V222a0,0,0,0,1,0,0h-.22a0,0,0,0,1,0,0Z" transform="translate(-1.5 -4)"/><path class="cls-13" d="M698.05,220.89a0,0,0,0,1,0,0h.22l0,0V222a0,0,0,0,1,0,0h-.22a0,0,0,0,1,0,0Z" transform="translate(-1.5 -4)"/><path class="cls-13" d="M699.72,220.84a.62.62,0,1,1-.64.62h0a.63.63,0,0,1,.63-.62Zm0,1a.35.35,0,1,0,0-.69.35.35,0,0,0-.36.34h0a.35.35,0,0,0,.36.33Z" transform="translate(-1.5 -4)"/><path class="cls-13" d="M701.1,220.87a0,0,0,0,1,0,0h0l.71.66h0v-.61a0,0,0,0,1,0,0h.22a0,0,0,0,1,0,0v1.16l0,0h-.06l-.7-.68h0V222a0,0,0,0,1,0,0h-.21s0,0,0,0Z" transform="translate(-1.5 -4)"/><path class="cls-13" d="M702.85,222l.56-1.16s0,0,0,0h0s0,0,0,0L704,222s0,0,0,0h-.22a.05.05,0,0,1-.06,0l-.07-.14h-.48l-.06.14a.08.08,0,0,1-.06,0h-.2a0,0,0,0,1,0,0S702.85,222,702.85,222Zm.73-.37-.13-.29h0l-.13.29Z" transform="translate(-1.5 -4)"/><path class="cls-13" d="M704.72,220.89a0,0,0,0,1,0,0H705a0,0,0,0,1,0,0v.92h.43a0,0,0,0,1,0,0h0V222a0,0,0,0,1,0,0h-.67s0,0,0,0Z" transform="translate(-1.5 -4)"/><path class="cls-13" d="M686,228.61a1,1,0,0,1,.7.26.06.06,0,0,1,0,.08h0l-.22.23a0,0,0,0,1-.07,0,.57.57,0,1,0,0,.85h.08l.22.24a0,0,0,0,1,0,.07,1,1,0,0,1-.7.27,1,1,0,1,1,0-2Z" transform="translate(-1.5 -4)"/><path class="cls-13" d="M687.6,228.69a.06.06,0,0,1,.06-.05H688a.05.05,0,0,1,0,.05h0v.69h.83v-.7a0,0,0,0,1,0-.05h.35a0,0,0,0,1,.05.05v1.84a.06.06,0,0,1-.05.06h-.34a.06.06,0,0,1-.06-.06v-.73h-.83v.73a.06.06,0,0,1,0,.06h-.34a.06.06,0,0,1-.06-.06Z" transform="translate(-1.5 -4)"/><path class="cls-13" d="M690.09,230.52l.9-1.88a.09.09,0,0,1,0,0h0a.09.09,0,0,1,0,0l.91,1.88a0,0,0,0,1,0,.06h-.35s-.07,0-.1-.07l-.1-.22h-.79l-.1.22a.12.12,0,0,1-.1.07h-.32a.06.06,0,0,1-.06-.05Zm1.19-.59-.23-.46h0l-.22.46Z" transform="translate(-1.5 -4)"/><path class="cls-13" d="M692.78,228.69a.06.06,0,0,1,.06-.05h.34a.05.05,0,0,1,.05.05v1.49h.69a.06.06,0,0,1,.06,0v.31a.06.06,0,0,1-.06.05h-1.08a.06.06,0,0,1-.06-.05Z" transform="translate(-1.5 -4)"/><path class="cls-13" d="M694.78,228.69a.05.05,0,0,1,.05-.05h.34a.06.06,0,0,1,.06.05v1.49h.69a0,0,0,0,1,.05,0v.31a0,0,0,0,1-.05.05h-1.09a0,0,0,0,1-.05-.05Z" transform="translate(-1.5 -4)"/><path class="cls-13" d="M696.77,228.69a.06.06,0,0,1,.06-.05H698a.06.06,0,0,1,.06.05h0V229a.06.06,0,0,1-.06.05h-.8v.34h.66s0,0,.06.06v.3a.06.06,0,0,1-.06.05h-.66v.38h.8a.06.06,0,0,1,.06,0v.3a.06.06,0,0,1-.06.06h-1.19a.06.06,0,0,1-.06-.06Z" transform="translate(-1.5 -4)"/><path class="cls-13" d="M699,228.66s0,0,.06,0h.07l1.15,1.07h0v-1a.06.06,0,0,1,.06-.06h.35a.06.06,0,0,1,.05.06v1.87a.05.05,0,0,1-.05.05h-.09l-1.14-1.11h0v1a.06.06,0,0,1-.06.05H699a0,0,0,0,1,0-.05Z" transform="translate(-1.5 -4)"/><path class="cls-13" d="M702.63,228.62a1,1,0,0,1,.7.26,0,0,0,0,1,0,.07h0l-.22.24H703a.56.56,0,0,0-.93.45.57.57,0,0,0,.55.53.75.75,0,0,0,.26,0V230h-.18a.06.06,0,0,1-.06-.05h0v-.27a.06.06,0,0,1,.05-.06h.6s0,0,0,.06v.75a.05.05,0,0,1,0,0,1.44,1.44,0,0,1-.71.18,1,1,0,1,1-.07-2h.07Z" transform="translate(-1.5 -4)"/><path class="cls-13" d="M704.28,228.69a.06.06,0,0,1,.06-.05h1.2a0,0,0,0,1,.05.05h0V229a0,0,0,0,1-.05.05h-.8v.34h.66a.06.06,0,0,1,.05.06v.3a0,0,0,0,1-.05.05h-.66v.38h.8a0,0,0,0,1,.05,0v.3a.06.06,0,0,1-.05.06h-1.2a.06.06,0,0,1-.06-.06Z" transform="translate(-1.5 -4)"/><path class="cls-14" d="M692.53,217.82s0,0,0,0h0l.8.74h0v-.69s0,0,0,0h.24s0,0,0,0v1.3s0,0,0,0h-.06l-.79-.76h0v.72s0,0,0,0h-.24a0,0,0,0,1,0,0Z" transform="translate(-1.5 -4)"/><path class="cls-14" d="M694.1,219.11l.62-1.3a.05.05,0,0,1,0,0h0l0,0,.63,1.3s0,0,0,0h-.25s0,0-.07,0L695,219h-.54l-.07.15a.08.08,0,0,1-.07,0h-.22a.05.05,0,0,1,0,0S694.09,219.11,694.1,219.11Zm.82-.42-.15-.32h0l-.15.32Z" transform="translate(-1.5 -4)"/><path class="cls-14" d="M695.72,219l.1-.16s0,0,.07,0a.57.57,0,0,0,.28.11.13.13,0,0,0,.14-.11h0c0-.09-.07-.15-.21-.2s-.39-.19-.39-.43.16-.38.47-.38a.71.71,0,0,1,.42.14.07.07,0,0,1,0,.07l-.11.14s0,0-.06,0a.81.81,0,0,0-.29-.12c-.06,0-.12,0-.12.09h0c0,.07.06.13.23.19s.39.17.39.44a.43.43,0,0,1-.47.39.66.66,0,0,1-.45-.14S695.71,219,695.72,219Z" transform="translate(-1.5 -4)"/><path class="cls-14" d="M696.92,219.11l.63-1.3,0,0h0l0,0,.63,1.3s0,0,0,0H698s0,0-.07,0l-.07-.15h-.54l-.07.15a.09.09,0,0,1-.08,0H697s0,0,0,0Zm.82-.42-.15-.32h0l-.15.32Z" transform="translate(-1.5 -4)"/><path class="cls-13" d="M695.35,235.36a10.49,10.49,0,0,1-8-3.68.12.12,0,0,1,0-.17.13.13,0,0,1,.18,0A10.31,10.31,0,0,0,701.68,233a8.21,8.21,0,0,0,.77-.67,7.46,7.46,0,0,0,.72-.77.14.14,0,0,1,.18,0,.12.12,0,0,1,0,.17h0a9.22,9.22,0,0,1-.74.79A10.5,10.5,0,0,1,695.35,235.36Z" transform="translate(-1.5 -4)"/><path class="cls-13" d="M687.15,219.74l-.07,0a.12.12,0,0,1,0-.17h0a10.56,10.56,0,0,1,14.31-2.18.12.12,0,0,1,0,.17.12.12,0,0,1-.17,0,10.31,10.31,0,0,0-14,2.13A.12.12,0,0,1,687.15,219.74Z" transform="translate(-1.5 -4)"/></g></g><path d="M582.2,308.79v-35h30v5h5v15h-5v5h-20v10Zm10-15h15v-15h-15Z" transform="translate(-1.5 -4)"/><path d="M627.2,308.79v-5h-5v-5h5v-5h20v-5h-20v-5h25v5h5v20Zm5-5h15v-5h-15Z" transform="translate(-1.5 -4)"/><path d="M677.2,308.79v-20h-10v-5h10v-10h10v10h10v5h-10v20Z" transform="translate(-1.5 -4)"/><path d="M707.2,308.79v-5h10v-15h-5v-5h15v20h10v5Zm10-30v-5h10v5Z" transform="translate(-1.5 -4)"/><circle class="cls-1" cx="177" cy="606.5" r="173"/><path class="cls-2" d="M121.85,701.08C119.2,666,147.36,636,181.44,636c33.84,0,61.88,29.64,59.59,64.48Z" transform="translate(-1.5 -4)"/><path class="cls-18" d="M97.41,572.43c-3.36,9.48-2.14,21.39,2.14,25.06s10.08,14.36,18.94,13.75,16.5,9.48,19,10.39,16.5,2.75,23.22-5.19,65.09-3.75,64.63,4.39,15.47,20.54,26.91,1.66,10.53-25,8.7-29.58-16.81-18-10.39-32.09,13.75-35.75-4.28-37,1.53-18.34-7.34-21.4-14.66-45.53-45.83-23.83S140.19,496,140.19,496s-17.42-1.53,3.36,20.17-29-9.48-29-9.48-20.78-15.89-4.89,25.37-21.7-9.17-24.75,11.3S97.41,572.43,97.41,572.43Z" transform="translate(-1.5 -4)"/><ellipse class="cls-3" cx="177.96" cy="582.49" rx="44.34" ry="59.46"/><path d="M179.46,528.53c23.62,0,42.83,26,42.83,58s-19.21,58-42.83,58-42.84-26-42.84-58,19.22-58,42.84-58m0-3c-25.32,0-45.84,27.29-45.84,61s20.52,61,45.84,61,45.83-27.29,45.83-61-20.52-61-45.83-61Z" transform="translate(-1.5 -4)"/><path class="cls-19" d="M188,571.7c-.23.4-3.93,7-.92,12.22,3.69,6.43,15.41,7.37,20.17,1.22a11.18,11.18,0,0,0,.31-12.83C203.93,567.23,194.9,566,188,571.7Z" transform="translate(-1.5 -4)"/><path class="cls-19" d="M151.67,571.7c-.23.4-3.92,7-.91,12.22,3.68,6.43,15.41,7.37,20.17,1.22a11.18,11.18,0,0,0,.3-12.83C167.56,567.23,158.53,566,151.67,571.7Z" transform="translate(-1.5 -4)"/><path class="cls-5" d="M159.44,586.8s8.73,2.88,12-6Z" transform="translate(-1.5 -4)"/><path class="cls-5" d="M207.82,581.18l-12,6.05s8.74,2.88,12-6.05" transform="translate(-1.5 -4)"/><line class="cls-12" x1="171.85" y1="575.31" x2="184.37" y2="575.31"/><path class="cls-20" d="M170.44,700.47v-54.7s8.56,2.45,16.81.61v54.09Z" transform="translate(-1.5 -4)"/><path class="cls-21" d="M163.72,647.3c-.31,4.52-1.79,17.42-11.61,24.45a23.49,23.49,0,0,1-3.67,2.14l12.53-.31" transform="translate(-1.5 -4)"/><line class="cls-21" x1="159.47" y1="669.58" x2="159.47" y2="696.47"/><path class="cls-21" d="M194.89,646.38c.31,4.53,1.78,17.42,11.61,24.45a23.49,23.49,0,0,0,3.67,2.14l-12.53-.3" transform="translate(-1.5 -4)"/><line class="cls-21" x1="196.14" y1="668.67" x2="196.14" y2="696.47"/><path class="cls-21" d="M137.48,562" transform="translate(-1.5 -4)"/><path class="cls-22" d="M133.62,586.49s-9-11.32.77-11.16" transform="translate(-1.5 -4)"/><path class="cls-22" d="M225.42,586.35s9-11.32-.77-11.16" transform="translate(-1.5 -4)"/><path class="cls-23" d="M173.11,567.94s-27.76-10.3-28.2,0" transform="translate(-1.5 -4)"/><path class="cls-23" d="M186,567.8s27.76-10.3,28.2,0" transform="translate(-1.5 -4)"/><path class="cls-21" d="M160.66,616.44s2.45,13.67,34.23,2.09" transform="translate(-1.5 -4)"/><path class="cls-21" d="M115.05,578.61s-6-34.6,8.64-29.4" transform="translate(-1.5 -4)"/><g id="Layer_2-4" data-name="Layer 2"><g id="Layer_1-2-4" data-name="Layer 1-2"><path class="cls-13" d="M209.77,688.78h-.49V692h.29v-1.51h.21a.56.56,0,0,0,.41-.13.63.63,0,0,0,.13-.43v-.53a.6.6,0,0,0-.14-.43A.55.55,0,0,0,209.77,688.78Zm.25.58v.52a.23.23,0,0,1-.25.28h-.2v-1.08h.2a.25.25,0,0,1,.2.06.31.31,0,0,1,.05.21Z" transform="translate(-1.5 -4)"/><path class="cls-13" d="M219.85,690.71a.53.53,0,0,0-.11-.21l-.24-.26a2,2,0,0,1-.24-.26.31.31,0,0,1,0-.1.36.36,0,0,1,0-.14v-.47c0-.15.07-.23.2-.23a.15.15,0,0,1,.16.08.31.31,0,0,1,0,.19v.54h.27v-.58a.59.59,0,0,0-.1-.39.45.45,0,0,0-.37-.13c-.33,0-.49.17-.49.52v.47a1.69,1.69,0,0,0,0,.23.42.42,0,0,0,.09.19l.13.15.13.13.11.12.12.13,0,.06,0,.07s0,0,0,.08V691h0v.45a.25.25,0,0,1,0,.17.23.23,0,0,1-.32,0,.38.38,0,0,1,0-.2v-.64h-.28v.67a.6.6,0,0,0,.11.39.49.49,0,0,0,.38.14.45.45,0,0,0,.37-.14.6.6,0,0,0,.11-.39V691A1,1,0,0,0,219.85,690.71Z" transform="translate(-1.5 -4)"/><path class="cls-13" d="M208.78,690.5a2,2,0,0,0-.24-.26,2.85,2.85,0,0,1-.23-.26.21.21,0,0,1-.06-.1.71.71,0,0,1,0-.14v-.47c0-.15.07-.23.2-.23a.18.18,0,0,1,.16.08.41.41,0,0,1,0,.19v.54h.27v-.58a.59.59,0,0,0-.11-.39.44.44,0,0,0-.37-.13c-.32,0-.49.17-.49.52v.47a1.64,1.64,0,0,0,0,.23.34.34,0,0,0,.09.19l.13.15.12.13.12.12a.69.69,0,0,1,.11.13l.05.06,0,.07s0,0,0,.08v.57a.26.26,0,0,1,0,.17.17.17,0,0,1-.16.06.17.17,0,0,1-.16-.07.48.48,0,0,1,0-.2v-.64h-.28v.67a.6.6,0,0,0,.12.39.47.47,0,0,0,.37.14.48.48,0,0,0,.38-.14.6.6,0,0,0,.11-.39V691a1.53,1.53,0,0,0,0-.3A.43.43,0,0,0,208.78,690.5Z" transform="translate(-1.5 -4)"/><path class="cls-13" d="M218.12,688.78h-.5V692h.29v-1.51h.21a.55.55,0,0,0,.41-.13.58.58,0,0,0,.13-.43v-.53a.6.6,0,0,0-.13-.43A.56.56,0,0,0,218.12,688.78Zm.25.58v.52a.31.31,0,0,1-.06.21.26.26,0,0,1-.19.07h-.21v-1.08h.2a.23.23,0,0,1,.2.06.39.39,0,0,1,.06.21Z" transform="translate(-1.5 -4)"/><path class="cls-13" d="M216.78,688.78h-.49V692h.29v-1.51h.2a.53.53,0,0,0,.41-.13.58.58,0,0,0,.13-.43v-.53a.6.6,0,0,0-.13-.43A.53.53,0,0,0,216.78,688.78Zm.25,1.1a.23.23,0,0,1-.25.28h-.2v-1.08h.2a.22.22,0,0,1,.19.06.39.39,0,0,1,.06.21h0Z" transform="translate(-1.5 -4)"/><path class="cls-13" d="M215.24,688.78,214.8,692h.29l.07-.53h.47l.07.53H216l-.41-3.17Zm-.05,2.37c0-.27.08-.54.11-.81s.07-.54.1-.82c0,.28.06.55.1.82s.06.54.1.81Z" transform="translate(-1.5 -4)"/><path class="cls-13" d="M210.82,688.78l-.44,3.17h.28l.07-.53h.48l.07.53h.29l-.41-3.17Zm.35,2.37h-.4c0-.27.07-.54.11-.81s.07-.54.1-.82l.09.82C211.11,690.61,211.14,690.88,211.17,691.15Z" transform="translate(-1.5 -4)"/><polygon class="cls-13" points="211.9 686.48 212.29 686.48 212.29 686.19 211.9 686.19 211.9 685.08 212.45 685.08 212.45 684.78 211.61 684.78 211.61 687.95 211.61 687.95 212.47 687.95 212.47 687.66 211.9 687.66 211.9 686.48"/><path class="cls-13" d="M212.31,688.75q-.51,0-.51.54v2.16c0,.36.17.54.51.53a.43.43,0,0,0,.35-.13.63.63,0,0,0,.11-.41v-.65h-.27v.66a.31.31,0,0,1,0,.19.19.19,0,0,1-.16.06c-.14,0-.21-.08-.21-.25v-2.16c0-.16.07-.25.21-.25a.23.23,0,0,1,.16.06.31.31,0,0,1,0,.19v.56h.27v-.56C212.77,688.93,212.61,688.75,212.31,688.75Z" transform="translate(-1.5 -4)"/><path class="cls-13" d="M218,687.14a1,1,0,1,1,1-.95A1,1,0,0,1,218,687.14Zm0-1.76a.81.81,0,1,0,0,1.61.81.81,0,1,0,0-1.61Z" transform="translate(-1.5 -4)"/><path class="cls-13" d="M218.63,685.64s-.08,0-.08-.08a.08.08,0,0,1,0,0l.83-.82a.07.07,0,0,1,.1.1l-.82.82S218.65,685.64,218.63,685.64Z" transform="translate(-1.5 -4)"/><path class="cls-13" d="M217.92,685.38a.08.08,0,0,1-.08-.07.08.08,0,0,1,0,0l.74-.92a.08.08,0,0,1,.1,0,.07.07,0,0,1,0,.1l-.74.92A.05.05,0,0,1,217.92,685.38Z" transform="translate(-1.5 -4)"/><path class="cls-13" d="M217.45,685.57h0a.07.07,0,0,1,0-.1h0l.92-2a.07.07,0,0,1,.09,0h0a.07.07,0,0,1,0,.09l-.92,2A.05.05,0,0,1,217.45,685.57Z" transform="translate(-1.5 -4)"/><path class="cls-13" d="M218.88,686.34a.07.07,0,0,1-.07-.07.14.14,0,0,1,0-.06l.92-.73a.09.09,0,0,1,.11,0,.07.07,0,0,1,0,.09l-.91.74Z" transform="translate(-1.5 -4)"/><path class="cls-13" d="M218.69,686.82s-.08,0-.08-.08,0,0,0-.06l2-.92a.06.06,0,0,1,.08,0,.08.08,0,0,1,0,.08l-2,.91Z" transform="translate(-1.5 -4)"/><path class="cls-13" d="M208,687.64l0,0h.13l0,0v.69l0,0H208l0,0Z" transform="translate(-1.5 -4)"/><path class="cls-13" d="M208.67,687.63l0,0h0l.42.4h0v-.37l0,0h.12l0,0v.7l0,0h0l-.41-.42h0v.39l0,0h-.12s0,0,0,0Z" transform="translate(-1.5 -4)"/><path class="cls-13" d="M209.89,687.78h-.15l0,0h0v-.12l0,0h.46l0,0v.12l0,0h-.15v.55s0,0,0,0h-.12l0,0Z" transform="translate(-1.5 -4)"/><path class="cls-13" d="M210.64,687.64s0,0,0,0h.43l0,0v.12l0,0h-.29v.13H211s0,0,0,0V688l0,0h-.24v.14h.29l0,0h0v.11l0,0h-.43s0,0,0,0h0Z" transform="translate(-1.5 -4)"/><path class="cls-13" d="M211.56,687.64l0,0h.31a.22.22,0,0,1,.07.44l.15.26a0,0,0,0,1,0,0h-.17l-.14-.28h-.07v.27l0,0h-.12l0,0Zm.32.29a.07.07,0,0,0,.07-.08.08.08,0,0,0-.07-.08h-.16v.16Z" transform="translate(-1.5 -4)"/><path class="cls-13" d="M212.57,687.63l0,0h0l.42.4h0v-.37l0,0h.13l0,0v.7l0,0h0l-.41-.42h0v.39l0,0h-.13l0,0Z" transform="translate(-1.5 -4)"/><path class="cls-13" d="M213.59,688.32l.33-.7h0l.33.7a0,0,0,0,1,0,0h-.13s0,0,0,0l0-.09h-.28l0,.09,0,0h-.12l0,0Zm.43-.22-.08-.17h0l-.08.17Z" transform="translate(-1.5 -4)"/><path class="cls-13" d="M214.74,687.78h-.15l0,0h0v-.12l0,0h.47l0,0v.12l0,0h-.15v.55l0,0h-.13l0,0Z" transform="translate(-1.5 -4)"/><path class="cls-13" d="M215.49,687.64l0,0h.13l0,0v.69l0,0h-.13l0,0Z" transform="translate(-1.5 -4)"/><path class="cls-13" d="M216.47,687.61a.39.39,0,0,1,.38.38.38.38,0,0,1-.76,0h0a.38.38,0,0,1,.38-.38Zm0,.59a.22.22,0,0,0,.21-.21.21.21,0,0,0-.21-.21.21.21,0,0,0-.21.21h0a.23.23,0,0,0,.21.21Z" transform="translate(-1.5 -4)"/><path class="cls-13" d="M217.28,687.63l0,0h0l.41.4h0v-.37l0,0h.13l0,0v.7l0,0h0l-.41-.42h0v.39l0,0h-.13l0,0Z" transform="translate(-1.5 -4)"/><path class="cls-13" d="M218.3,688.32l.33-.7h.05l.32.7s0,0,0,0h-.12l0,0,0-.09h-.28l0,.09,0,0h-.14Zm.43-.22-.08-.17h0l-.07.17Z" transform="translate(-1.5 -4)"/><path class="cls-13" d="M219.4,687.64l0,0h.12l0,0v.56h.25l0,0h0v.11l0,0h-.39l0,0Z" transform="translate(-1.5 -4)"/><path class="cls-13" d="M208.45,692.33a.6.6,0,0,1,.41.16s0,0,0,0h0l-.13.14a0,0,0,0,1,0,0,.32.32,0,0,0-.23-.09.35.35,0,0,0-.34.35.34.34,0,0,0,.34.34.4.4,0,0,0,.23-.08h0l.13.14a0,0,0,0,1,0,0,.58.58,0,0,1-.41.17.61.61,0,0,1,0-1.22Z" transform="translate(-1.5 -4)"/><path class="cls-13" d="M209.37,692.38l0,0h.21l0,0h0v.43h.48v-.43a0,0,0,0,1,0,0h.2s0,0,0,0v1.12s0,0,0,0h-.2a0,0,0,0,1,0,0v-.44h-.48v.44a0,0,0,0,1,0,0h-.21a0,0,0,0,1,0,0Z" transform="translate(-1.5 -4)"/><path class="cls-13" d="M210.83,693.49l.53-1.14,0,0h0l0,0,.53,1.14s0,0,0,0h-.2a.06.06,0,0,1-.06,0l-.06-.13h-.46l-.06.13a.08.08,0,0,1-.07,0h-.18a0,0,0,0,1,0,0Zm.69-.36-.13-.28h0l-.13.28Z" transform="translate(-1.5 -4)"/><path class="cls-13" d="M212.41,692.38a0,0,0,0,1,0,0h.2a0,0,0,0,1,0,0v.91h.4s0,0,0,0v.18a0,0,0,0,1,0,0h-.63s0,0,0,0Z" transform="translate(-1.5 -4)"/><path class="cls-13" d="M213.57,692.38a0,0,0,0,1,0,0h.2a0,0,0,0,1,0,0v.91h.4s0,0,0,0v.18a0,0,0,0,1,0,0h-.63a0,0,0,0,1,0,0Z" transform="translate(-1.5 -4)"/><path class="cls-13" d="M214.74,692.38a0,0,0,0,1,0,0h.7l0,0h0v.19a0,0,0,0,1,0,0H215v.21h.38s0,0,0,0V693a0,0,0,0,1,0,0H215v.22h.47s0,0,0,0v.18a0,0,0,0,1,0,0h-.7s0,0,0,0Z" transform="translate(-1.5 -4)"/><path class="cls-13" d="M216,692.36a0,0,0,0,1,0,0h0l.68.66h0v-.6s0,0,0,0H217a0,0,0,0,1,0,0v1.13a0,0,0,0,1,0,0H217l-.67-.68h0v.63a0,0,0,0,1,0,0h-.2a0,0,0,0,1,0,0Z" transform="translate(-1.5 -4)"/><path class="cls-13" d="M218.17,692.34a.65.65,0,0,1,.42.16s0,0,0,0h0l-.13.14a0,0,0,0,1-.05,0,.35.35,0,0,0-.22-.08.34.34,0,0,0-.32.36.33.33,0,0,0,.32.32l.15,0v-.1h-.11s0,0,0,0h0V693a0,0,0,0,1,0,0h.35a0,0,0,0,1,0,0v.45l0,0a.84.84,0,0,1-.41.11.61.61,0,0,1-.63-.59.62.62,0,0,1,.59-.63h0Z" transform="translate(-1.5 -4)"/><path class="cls-13" d="M219.14,692.38a0,0,0,0,1,0,0h.7a0,0,0,0,1,0,0h0v.19a0,0,0,0,1,0,0h-.47v.21h.39a0,0,0,0,1,0,0V693a0,0,0,0,1,0,0h-.39v.22h.47s0,0,0,0v.18a0,0,0,0,1,0,0h-.7s0,0,0,0Z" transform="translate(-1.5 -4)"/><path class="cls-14" d="M212.26,685.78s0,0,0,0h0l.47.45h0v-.41l0,0h.14s0,0,0,0v.79s0,0,0,0h0l-.46-.46h0v.43s0,0,0,0h-.14a0,0,0,0,1,0,0Z" transform="translate(-1.5 -4)"/><path class="cls-14" d="M213.18,686.56l.36-.79,0,0h0l0,0,.36.79s0,0,0,0h-.15s0,0,0,0l0-.1h-.32l0,.1s0,0,0,0h-.13l0,0S213.18,686.56,213.18,686.56Zm.48-.26-.09-.19h0l-.09.19Z" transform="translate(-1.5 -4)"/><path class="cls-14" d="M214.13,686.47l.06-.09s0,0,0,0a.29.29,0,0,0,.16.07.08.08,0,0,0,.08-.07h0s0-.09-.12-.12-.23-.12-.23-.26a.25.25,0,0,1,.28-.23.46.46,0,0,1,.25.08,0,0,0,0,1,0,0l-.06.09,0,0a.33.33,0,0,0-.16-.07.07.07,0,0,0-.08.05h0s0,.07.13.11a.3.3,0,0,1,.23.27.26.26,0,0,1-.27.24.44.44,0,0,1-.27-.09S214.12,686.49,214.13,686.47Z" transform="translate(-1.5 -4)"/><path class="cls-14" d="M214.83,686.56l.37-.79,0,0h0l0,0,.37.79s0,0,0,0h-.14s0,0-.05,0l0-.1h-.32l0,.1s0,0,0,0h-.13l0,0Zm.48-.26-.09-.19h0l-.08.19Z" transform="translate(-1.5 -4)"/><path class="cls-13" d="M213.91,696.44a6.09,6.09,0,0,1-4.69-2.24.08.08,0,0,1,0-.11.08.08,0,0,1,.1,0,5.89,5.89,0,0,0,8.29.87,4.38,4.38,0,0,0,.45-.41,3.8,3.8,0,0,0,.42-.47.08.08,0,0,1,.12.1h0c-.14.16-.28.33-.44.48A6,6,0,0,1,213.91,696.44Z" transform="translate(-1.5 -4)"/><path class="cls-13" d="M209.11,686.94h-.05a.08.08,0,0,1,0-.11h0a6,6,0,0,1,8.38-1.32.07.07,0,0,1-.09.11,5.89,5.89,0,0,0-8.17,1.3Z" transform="translate(-1.5 -4)"/></g></g><path d="M121.92,747V712h25v5h5v5h5v15h-5v5h-5v5Zm10-5h10v-5h5V722h-5v-5h-10Z" transform="translate(-1.5 -4)"/><path d="M166.92,747v-5h-5v-5h5v-5h20v-5h-20v-5h25v5h5v20Zm5-5h15v-5h-15Z" transform="translate(-1.5 -4)"/><path d="M201.92,747V722h30v5h5v20h-10V727h-15v20Z" transform="translate(-1.5 -4)"/></svg>