<svg id="Layer_1" data-name="Layer 1" xmlns="http://www.w3.org/2000/svg" viewBox="0 0 703.02 904.5"><defs><style>.cls-1,.cls-2,.cls-5{fill:#fff;}.cls-1,.cls-10,.cls-2,.cls-4,.cls-6,.cls-7,.cls-8,.cls-9{stroke:#000;}.cls-1,.cls-7,.cls-8,.cls-9{stroke-linecap:round;stroke-linejoin:round;}.cls-1,.cls-10,.cls-2,.cls-7,.cls-8,.cls-9{stroke-width:3px;}.cls-10,.cls-2,.cls-4,.cls-6{stroke-miterlimit:10;}.cls-3{fill:#ffedc9;}.cls-4{fill:#b3b3b3;}.cls-10,.cls-6,.cls-8{fill:none;}.cls-6{stroke-width:5px;}.cls-7{fill:#007406;}.cls-9{fill:#ffdc8a;}.cls-11{fill:#231f20;}.cls-12{fill:#ee2c3e;}</style></defs><path class="cls-1" d="M685.08,1003c-10.48-138.31,100.58-256.72,235-256.67,133.43,0,244,116.85,235,254.26Z" transform="translate(-536.2 -100)"/><path class="cls-2" d="M588.67,495.68c-13.25,37.36-8.43,84.35,8.44,98.81s39.76,56.64,74.71,54.23,65.07,37.36,74.71,41,65.07,10.85,91.58-20.48,256.68-14.78,254.87,17.31,61,81,106.11,6.55,41.5-98.58,34.27-116.65-66.27-71.1-41-126.53,54.23-141-16.87-145.81,6-72.3-28.92-84.35-57.84-179.55-180.75-94-208.47,68.68-208.47,68.68-68.69-6,13.25,79.54S656.15,236.6,656.15,236.6s-81.94-62.66-19.28,100-85.55-36.15-97.6,44.58S588.67,495.68,588.67,495.68Z" transform="translate(-536.2 -100)"/><ellipse class="cls-3" cx="376.02" cy="451.11" rx="179.25" ry="238.9"/><path d="M912.22,313.71c23.88,0,47.06,6.23,68.89,18.51,21.16,11.9,40.18,29,56.53,50.71s29.27,47.21,38.27,75.52a312.18,312.18,0,0,1,0,185.33c-9,28.3-21.87,53.71-38.27,75.52s-35.37,38.81-56.53,50.71c-21.83,12.28-45,18.51-68.89,18.51s-47.05-6.23-68.88-18.51c-21.16-11.9-40.18-29-56.53-50.71s-29.28-47.22-38.28-75.52a312.39,312.39,0,0,1,0-185.33c9-28.31,21.88-53.72,38.28-75.52s35.37-38.81,56.53-50.71c21.83-12.28,45-18.51,68.88-18.51m0-3c-99.82,0-180.75,107.63-180.75,240.4S812.4,791.52,912.22,791.52,1093,683.88,1093,551.11s-80.93-240.4-180.76-240.4Z" transform="translate(-536.2 -100)"/><path class="cls-4" d="M946.07,492.78c-.92,1.58-15.48,27.49-3.62,48.2,14.54,25.37,60.76,29,79.53,4.82,10.83-14,11.68-36.12,1.21-50.61C1008.72,475.16,973.11,470.39,946.07,492.78Z" transform="translate(-536.2 -100)"/><path class="cls-4" d="M802.67,492.78c-.92,1.58-15.48,27.49-3.62,48.2,14.54,25.37,60.76,29,79.53,4.82,10.83-14,11.68-36.12,1.21-50.61C865.32,475.16,829.71,470.39,802.67,492.78Z" transform="translate(-536.2 -100)"/><path class="cls-5" d="M833.29,552.32s34.44,11.36,47.35-23.84Z" transform="translate(-536.2 -100)"/><path class="cls-5" d="M1024.07,530.18,976.73,554s34.44,11.36,47.34-23.84" transform="translate(-536.2 -100)"/><line class="cls-6" x1="351.92" y1="422.8" x2="401.33" y2="422.8"/><path class="cls-7" d="M876.68,1000.59V784.89s33.74,9.64,66.27,2.41v213.29Z" transform="translate(-536.2 -100)"/><path class="cls-8" d="M850.16,790.91c-1.21,17.84-7,68.69-45.79,96.41a90.86,90.86,0,0,1-14.46,8.43l49.41-1.2" transform="translate(-536.2 -100)"/><line class="cls-8" x1="303.12" y1="794.55" x2="303.12" y2="900.59"/><path class="cls-8" d="M973.08,787.3c1.21,17.84,7,68.69,45.79,96.4a90.57,90.57,0,0,0,14.46,8.44l-49.41-1.21" transform="translate(-536.2 -100)"/><line class="cls-8" x1="447.72" y1="790.93" x2="447.72" y2="900.59"/><path class="cls-8" d="M746.67,454.49" transform="translate(-536.2 -100)"/><path class="cls-9" d="M731.47,551.11s-35.52-44.62,3-44" transform="translate(-536.2 -100)"/><path class="cls-9" d="M1093.48,550.56s35.52-44.62-3-44" transform="translate(-536.2 -100)"/><path class="cls-10" d="M887.19,478S777.73,437.35,776,478" transform="translate(-536.2 -100)"/><path class="cls-10" d="M938,477.41s109.46-40.62,111.2,0" transform="translate(-536.2 -100)"/><path class="cls-8" d="M838.11,669.21s9.64,53.89,135,8.27" transform="translate(-536.2 -100)"/><path class="cls-8" d="M658.24,520S634.46,383.61,692.31,404.1" transform="translate(-536.2 -100)"/><g id="Layer_2" data-name="Layer 2"><g id="Layer_1-2" data-name="Layer 1-2"><path class="cls-11" d="M1031.77,954.48h-2V967H1031V961h.81a2.17,2.17,0,0,0,1.62-.53,2.39,2.39,0,0,0,.51-1.71v-2a2.41,2.41,0,0,0-.53-1.72A2.12,2.12,0,0,0,1031.77,954.48Zm1,2.27v2.07a1.18,1.18,0,0,1-.24.83,1,1,0,0,1-.75.26h-.8v-4.26h.79a1,1,0,0,1,.77.26,1.28,1.28,0,0,1,.23.83Z" transform="translate(-536.2 -100)"/><path class="cls-11" d="M1071.5,962.09a2.16,2.16,0,0,0-.43-.82,13.3,13.3,0,0,0-1-1,7.37,7.37,0,0,1-.92-1,1,1,0,0,1-.22-.4,2.21,2.21,0,0,1-.06-.57v-1.84c0-.59.27-.89.8-.89a.64.64,0,0,1,.63.29,1.69,1.69,0,0,1,.16.77v2.11h1.06v-2.28a2.39,2.39,0,0,0-.42-1.55,1.81,1.81,0,0,0-1.46-.52q-1.92,0-1.92,2.07v1.87a5.43,5.43,0,0,0,0,.9,1.55,1.55,0,0,0,.35.73c.17.2.34.4.52.59s.32.34.49.52l.46.47a5.47,5.47,0,0,1,.45.51,1.74,1.74,0,0,1,.19.26,1.15,1.15,0,0,1,.12.25,1.26,1.26,0,0,1,0,.33c0,.13,0,.28,0,.46h0v1.78a1.07,1.07,0,0,1-.19.69.73.73,0,0,1-.62.23.66.66,0,0,1-.63-.3,1.66,1.66,0,0,1-.17-.79v-2.5h-1.1v2.64a2.3,2.3,0,0,0,.46,1.54,2.32,2.32,0,0,0,3,0,2.34,2.34,0,0,0,.44-1.54v-1.79A5.09,5.09,0,0,0,1071.5,962.09Z" transform="translate(-536.2 -100)"/><path class="cls-11" d="M1027.87,961.27a13.3,13.3,0,0,0-1-1,8.92,8.92,0,0,1-.92-1,1.2,1.2,0,0,1-.22-.4,2.2,2.2,0,0,1,0-.57v-1.84c0-.59.26-.89.8-.89a.65.65,0,0,1,.62.29,1.57,1.57,0,0,1,.16.77v2.11h1.07v-2.28a2.33,2.33,0,0,0-.43-1.55,1.81,1.81,0,0,0-1.46-.52q-1.92,0-1.92,2.07v1.87c0,.3,0,.6,0,.9a1.44,1.44,0,0,0,.36.73q.24.3.51.6c.17.19.32.33.49.51s.31.31.46.47.31.33.46.51a2.33,2.33,0,0,1,.17.26.85.85,0,0,1,.13.25,1.26,1.26,0,0,1,0,.33c0,.13,0,.28,0,.46v1.78a1.05,1.05,0,0,1-.19.69.77.77,0,0,1-.62.24.67.67,0,0,1-.63-.31,1.63,1.63,0,0,1-.17-.79v-2.5h-1.09v2.64a2.25,2.25,0,0,0,.46,1.54,1.8,1.8,0,0,0,1.46.53,1.83,1.83,0,0,0,1.49-.53,2.34,2.34,0,0,0,.44-1.54v-1.79a5,5,0,0,0-.1-1.17A2.33,2.33,0,0,0,1027.87,961.27Z" transform="translate(-536.2 -100)"/><path class="cls-11" d="M1064.67,954.48h-2V967h1.15V961h.82a2.17,2.17,0,0,0,1.62-.53,2.39,2.39,0,0,0,.51-1.71v-2a2.41,2.41,0,0,0-.52-1.72A2.16,2.16,0,0,0,1064.67,954.48Zm1,2.27v2.07a1.24,1.24,0,0,1-.25.83,1,1,0,0,1-.74.26h-.81v-4.26h.79a1,1,0,0,1,.77.26,1.28,1.28,0,0,1,.23.83Z" transform="translate(-536.2 -100)"/><path class="cls-11" d="M1059.41,954.48h-2V967h1.15V961h.81a2.13,2.13,0,0,0,1.61-.53,2.35,2.35,0,0,0,.52-1.71v-2A2.41,2.41,0,0,0,1061,955,2.1,2.1,0,0,0,1059.41,954.48Zm1,4.34a1.18,1.18,0,0,1-.26.83,1,1,0,0,1-.74.26h-.8v-4.26h.78a1,1,0,0,1,.77.26,1.17,1.17,0,0,1,.23.83h0Z" transform="translate(-536.2 -100)"/><path class="cls-11" d="M1053.33,954.48l-1.72,12.5h1.12l.27-2.09h1.87l.27,2.09h1.16l-1.61-12.5Zm-.18,9.34.42-3.19c.13-1.06.27-2.13.4-3.22.12,1.08.24,2.15.38,3.22l.39,3.19Z" transform="translate(-536.2 -100)"/><path class="cls-11" d="M1035.89,954.48l-1.73,12.5h1.12l.28-2.09h1.86l.28,2.09h1.15l-1.61-12.5Zm1.41,9.34h-1.6l.42-3.19c.14-1.06.27-2.13.4-3.22.12,1.08.25,2.15.38,3.22S1037.17,962.76,1037.3,963.82Z" transform="translate(-536.2 -100)"/><polygon class="cls-11" points="509.88 861.2 511.4 861.2 511.4 860.03 509.88 860.03 509.88 855.65 512.03 855.65 512.03 854.49 508.73 854.49 508.73 866.98 508.73 866.98 512.11 866.98 512.11 865.84 509.88 865.84 509.88 861.2"/><path class="cls-11" d="M1041.76,954.35c-1.33,0-2,.72-2,2.15V965c0,1.41.66,2.11,2,2.11a1.74,1.74,0,0,0,1.39-.52,2.5,2.5,0,0,0,.43-1.61v-2.58h-1V965a1.27,1.27,0,0,1-.17.74.68.68,0,0,1-.61.24c-.55,0-.83-.33-.83-1v-8.52c0-.65.28-1,.83-1a.7.7,0,0,1,.61.23,1.29,1.29,0,0,1,.17.74v2.2h1v-2.22C1043.58,955.06,1043,954.35,1041.76,954.35Z" transform="translate(-536.2 -100)"/><path class="cls-11" d="M1064.22,948a3.77,3.77,0,1,1,3.77-3.76A3.76,3.76,0,0,1,1064.22,948Zm0-7a3.19,3.19,0,1,0,3.19,3.19A3.19,3.19,0,0,0,1064.22,941.06Z" transform="translate(-536.2 -100)"/><path class="cls-11" d="M1066.68,942.08a.28.28,0,0,1-.28-.29.28.28,0,0,1,.08-.2l3.24-3.24a.28.28,0,0,1,.4,0,.28.28,0,0,1,0,.41l-3.23,3.23A.29.29,0,0,1,1066.68,942.08Z" transform="translate(-536.2 -100)"/><path class="cls-11" d="M1063.88,941.07a.29.29,0,0,1-.28-.28.26.26,0,0,1,.07-.19l2.9-3.61a.28.28,0,0,1,.4,0,.29.29,0,0,1,0,.4l-2.9,3.63A.28.28,0,0,1,1063.88,941.07Z" transform="translate(-536.2 -100)"/><path class="cls-11" d="M1062,941.84a.27.27,0,0,1-.12,0,.28.28,0,0,1-.14-.38h0l3.62-7.84a.29.29,0,0,1,.38-.15h0a.27.27,0,0,1,.14.38l-3.62,7.84A.29.29,0,0,1,1062,941.84Z" transform="translate(-536.2 -100)"/><path class="cls-11" d="M1067.69,944.88a.3.3,0,0,1-.29-.3.32.32,0,0,1,.1-.22l3.62-2.89a.3.3,0,0,1,.41.07.3.3,0,0,1,0,.38l-3.62,2.89A.31.31,0,0,1,1067.69,944.88Z" transform="translate(-536.2 -100)"/><path class="cls-11" d="M1066.92,946.73a.28.28,0,0,1-.28-.29.29.29,0,0,1,.16-.26l7.84-3.62a.28.28,0,0,1,.35.22.27.27,0,0,1-.1.29l-7.85,3.62A.21.21,0,0,1,1066.92,946.73Z" transform="translate(-536.2 -100)"/><path class="cls-11" d="M1024.86,950s0-.07.08-.08h.5s.08,0,.08.08v2.72a.09.09,0,0,1-.08.08h-.51a.08.08,0,0,1-.08-.08Z" transform="translate(-536.2 -100)"/><path class="cls-11" d="M1027.44,950a.08.08,0,0,1,.08-.08h.1l1.64,1.58h0V950a.08.08,0,0,1,.08-.08h.49s.08,0,.08.08v2.77a.08.08,0,0,1-.08.07h-.07l0,0-1.62-1.63h0v1.54a.08.08,0,0,1-.08.08h-.49a.09.09,0,0,1-.08-.08Z" transform="translate(-536.2 -100)"/><path class="cls-11" d="M1032.22,950.52h-.59a.09.09,0,0,1-.08-.08h0V950a.09.09,0,0,1,.08-.08h1.83a.08.08,0,0,1,.07.08v.45a.08.08,0,0,1-.07.08h-.58v2.19a.09.09,0,0,1-.08.08h-.5a.08.08,0,0,1-.08-.08Z" transform="translate(-536.2 -100)"/><path class="cls-11" d="M1035.17,950a.09.09,0,0,1,.08-.08h1.7a.09.09,0,0,1,.08.08v.45a.09.09,0,0,1-.08.08h-1.13V951h.93a.09.09,0,0,1,.08.08v.45a.09.09,0,0,1-.08.08h-.93v.55H1037a.09.09,0,0,1,.08.08h0v.44a.07.07,0,0,1-.08.08h-1.7a.08.08,0,0,1-.08-.07h0Z" transform="translate(-536.2 -100)"/><path class="cls-11" d="M1038.81,950a.09.09,0,0,1,.08-.08h1.23a.89.89,0,0,1,.91.85.87.87,0,0,1-.62.87l.56,1a.08.08,0,0,1,0,.11h-.59a.09.09,0,0,1-.07,0l-.54-1.09h-.28v1s0,.08-.08.08h-.49a.08.08,0,0,1-.08-.08Zm1.25,1.15a.32.32,0,0,0,.31-.33.31.31,0,0,0-.31-.31h-.6v.64Z" transform="translate(-536.2 -100)"/><path class="cls-11" d="M1042.79,950a.07.07,0,0,1,.08-.08h.1l1.64,1.58h0V950a.08.08,0,0,1,.07-.08h.52a.08.08,0,0,1,.07.08v2.77a.07.07,0,0,1-.07.07h-.07l-.05,0-1.63-1.63h0v1.54a.08.08,0,0,1-.08.08h-.48a.08.08,0,0,1-.08-.08Z" transform="translate(-536.2 -100)"/><path class="cls-11" d="M1046.83,952.68l1.28-2.76a.08.08,0,0,1,.07,0h0a.08.08,0,0,1,.07,0l1.28,2.76a.07.07,0,0,1,0,.1h-.5c-.07,0-.1,0-.14-.1l-.15-.33h-1.1l-.15.33a.15.15,0,0,1-.14.1h-.46a.07.07,0,0,1-.08-.07S1046.82,952.69,1046.83,952.68Zm1.68-.88-.31-.68h0l-.31.68Z" transform="translate(-536.2 -100)"/><path class="cls-11" d="M1051.37,950.52h-.59a.09.09,0,0,1-.08-.08h0V950a.09.09,0,0,1,.08-.08h1.82a.08.08,0,0,1,.08.08v.45a.08.08,0,0,1-.08.08H1052v2.19a.09.09,0,0,1-.08.08h-.5a.08.08,0,0,1-.07-.08Z" transform="translate(-536.2 -100)"/><path class="cls-11" d="M1054.32,950s0-.07.08-.08h.49s.08,0,.08.08v2.72a.08.08,0,0,1-.08.08h-.49a.09.09,0,0,1-.08-.08Z" transform="translate(-536.2 -100)"/><path class="cls-11" d="M1058.17,949.87a1.48,1.48,0,1,1-1.47,1.49h0a1.47,1.47,0,0,1,1.47-1.48Zm0,2.31a.82.82,0,1,0-.81-.82h0a.81.81,0,0,0,.81.81Z" transform="translate(-536.2 -100)"/><path class="cls-11" d="M1061.38,950a.07.07,0,0,1,.07-.08h.11l1.63,1.58h0V950a.09.09,0,0,1,.08-.08h.5a.08.08,0,0,1,.07.08v2.77a.07.07,0,0,1-.07.07h-.07l0,0-1.63-1.63h0v1.54a.07.07,0,0,1-.07.08h-.49a.09.09,0,0,1-.08-.08Z" transform="translate(-536.2 -100)"/><path class="cls-11" d="M1065.41,952.68l1.29-2.76a.08.08,0,0,1,.07,0h0s0,0,.07,0l1.28,2.76a.07.07,0,0,1,0,.1h-.5c-.07,0-.1,0-.14-.1l-.15-.33h-1.11l-.14.33a.18.18,0,0,1-.15.1h-.45a.09.09,0,0,1-.09-.06S1065.41,952.7,1065.41,952.68Zm1.69-.88-.31-.68h0l-.3.68Z" transform="translate(-536.2 -100)"/><path class="cls-11" d="M1069.73,950a.09.09,0,0,1,.08-.08h.49a.11.11,0,0,1,.08.08v2.2h1a.07.07,0,0,1,.08.07h0v.45a.08.08,0,0,1-.08.08h-1.54a.09.09,0,0,1-.08-.08Z" transform="translate(-536.2 -100)"/><path class="cls-11" d="M1026.57,968.5a2.19,2.19,0,0,1,1.61.62.12.12,0,0,1,0,.17h0l-.51.54a.12.12,0,0,1-.17,0,1.42,1.42,0,0,0-.9-.34,1.37,1.37,0,0,0,0,2.73,1.38,1.38,0,0,0,.89-.33.14.14,0,0,1,.17,0l.52.56a.13.13,0,0,1,0,.18,2.27,2.27,0,0,1-1.62.64,2.4,2.4,0,1,1,0-4.8Z" transform="translate(-536.2 -100)"/><path class="cls-11" d="M1030.19,968.69a.12.12,0,0,1,.13-.12h.79a.13.13,0,0,1,.13.12h0v1.67h1.9v-1.68a.12.12,0,0,1,.12-.12h.8a.12.12,0,0,1,.12.12v4.42a.13.13,0,0,1-.12.13h-.79a.13.13,0,0,1-.13-.13v-1.76h-1.9v1.76a.13.13,0,0,1-.13.13h-.79a.14.14,0,0,1-.13-.13Z" transform="translate(-536.2 -100)"/><path class="cls-11" d="M1035.94,973.06l2.08-4.49a.13.13,0,0,1,.12-.07h.07a.14.14,0,0,1,.11.07l2.09,4.49a.12.12,0,0,1-.06.16h-.8c-.12,0-.17,0-.23-.17l-.24-.52h-1.81l-.25.53a.24.24,0,0,1-.23.16h-.74a.11.11,0,0,1-.12-.11A.07.07,0,0,1,1035.94,973.06Zm2.74-1.41-.51-1.11h0l-.52,1.11Z" transform="translate(-536.2 -100)"/><path class="cls-11" d="M1042.15,968.69a.13.13,0,0,1,.13-.13h.8a.14.14,0,0,1,.12.13v3.56h1.59a.13.13,0,0,1,.13.13v.73a.12.12,0,0,1-.13.12h-2.51a.12.12,0,0,1-.13-.12Z" transform="translate(-536.2 -100)"/><path class="cls-11" d="M1046.76,968.69a.13.13,0,0,1,.13-.13h.79a.14.14,0,0,1,.13.13v3.56h1.59a.13.13,0,0,1,.13.13v.73a.12.12,0,0,1-.13.12h-2.51a.12.12,0,0,1-.13-.12Z" transform="translate(-536.2 -100)"/><path class="cls-11" d="M1051.37,968.69a.13.13,0,0,1,.13-.13h2.76a.13.13,0,0,1,.13.13h0v.73a.12.12,0,0,1-.13.12h-1.85v.82h1.52a.14.14,0,0,1,.13.13v.73a.12.12,0,0,1-.12.12h-1.53v.9h1.85a.13.13,0,0,1,.13.13v.73a.14.14,0,0,1-.13.13h-2.76a.14.14,0,0,1-.13-.13Z" transform="translate(-536.2 -100)"/><path class="cls-11" d="M1056.48,968.62a.13.13,0,0,1,.13-.12h.17l2.66,2.56h0V968.7a.12.12,0,0,1,.12-.13h.81a.12.12,0,0,1,.12.13v4.48a.13.13,0,0,1-.12.13h-.11l-.09,0-2.63-2.65h0v2.49a.13.13,0,0,1-.13.13h-.8a.13.13,0,0,1-.12-.13Z" transform="translate(-536.2 -100)"/><path class="cls-11" d="M1064.9,968.5a2.62,2.62,0,0,1,1.63.63.11.11,0,0,1,0,.16v0l-.52.56a.15.15,0,0,1-.18,0,1.21,1.21,0,0,0-.87-.32,1.34,1.34,0,0,0,0,2.68,1.71,1.71,0,0,0,.59-.11v-.39h-.42a.12.12,0,0,1-.12-.12h0V971a.12.12,0,0,1,.11-.13h1.37a.13.13,0,0,1,.12.13v1.8a.12.12,0,0,1,0,.1,3.35,3.35,0,0,1-1.66.44,2.4,2.4,0,1,1-.15-4.79Z" transform="translate(-536.2 -100)"/><path class="cls-11" d="M1068.72,968.69a.13.13,0,0,1,.13-.13h2.77a.13.13,0,0,1,.13.13h0v.73a.12.12,0,0,1-.13.12h-1.85v.82h1.52a.14.14,0,0,1,.13.13v.73a.12.12,0,0,1-.12.12h-1.53v.9h1.85a.13.13,0,0,1,.13.13v.73a.13.13,0,0,1-.13.13h-2.77a.13.13,0,0,1-.13-.13Z" transform="translate(-536.2 -100)"/><path class="cls-12" d="M1041.58,942.63a.09.09,0,0,1,.09-.08h.12l1.84,1.77h0v-1.64a.09.09,0,0,1,.09-.09h.55s.09,0,.09.09v3.11a.08.08,0,0,1-.09.08h-.07l-.06,0-1.83-1.83h0v1.71a.09.09,0,0,1-.08.09h-.55a.09.09,0,0,1-.09-.09Z" transform="translate(-536.2 -100)"/><path class="cls-12" d="M1045.2,945.71l1.44-3.11a.1.1,0,0,1,.08-.05h0a.08.08,0,0,1,.07.05l1.46,3.11a.08.08,0,0,1,0,.11h-.56c-.09,0-.12,0-.16-.12l-.17-.36h-1.26l-.16.37a.18.18,0,0,1-.16.11h-.52a.08.08,0,0,1-.09-.07A0,0,0,0,1,1045.2,945.71Zm1.9-1-.35-.77h0l-.35.77Z" transform="translate(-536.2 -100)"/><path class="cls-12" d="M1049,945.39l.22-.38a.11.11,0,0,1,.16,0,1.3,1.3,0,0,0,.65.25.29.29,0,0,0,.32-.26h0c0-.19-.16-.34-.47-.46s-.9-.47-.9-1a1,1,0,0,1,1.07-.92,1.7,1.7,0,0,1,1,.35.12.12,0,0,1,0,.15l-.23.35c0,.05-.12.09-.16.06a1.43,1.43,0,0,0-.66-.27.25.25,0,0,0-.29.21v0c0,.17.14.3.51.45a1.19,1.19,0,0,1,.92,1,1,1,0,0,1-1.09,1,1.45,1.45,0,0,1-1-.35A.09.09,0,0,1,1049,945.39Z" transform="translate(-536.2 -100)"/><path class="cls-12" d="M1051.71,945.71l1.45-3.11a.1.1,0,0,1,.08-.05h0a.08.08,0,0,1,.07.05l1.45,3.11a.08.08,0,0,1,0,.11h-.56c-.08,0-.12,0-.16-.12l-.17-.36h-1.26l-.16.37a.2.2,0,0,1-.17.11h-.51a.08.08,0,0,1-.08-.09Zm1.9-1-.35-.77h0l-.34.77Z" transform="translate(-536.2 -100)"/><path class="cls-11" d="M1048.09,984.67a23.86,23.86,0,0,1-18.5-8.84.29.29,0,0,1,0-.4.3.3,0,0,1,.41,0,23.22,23.22,0,0,0,32.67,3.42,22.55,22.55,0,0,0,1.78-1.6,24.24,24.24,0,0,0,1.67-1.85.29.29,0,0,1,.41-.05.3.3,0,0,1,0,.41h0c-.54.66-1.11,1.3-1.71,1.9A23.77,23.77,0,0,1,1048.09,984.67Z" transform="translate(-536.2 -100)"/><path class="cls-11" d="M1029.15,947.22a.31.31,0,0,1-.17-.05.3.3,0,0,1-.07-.41h0a23.8,23.8,0,0,1,33-5.23.29.29,0,0,1,.06.41.3.3,0,0,1-.41.06,23.2,23.2,0,0,0-32.23,5.11A.3.3,0,0,1,1029.15,947.22Z" transform="translate(-536.2 -100)"/></g></g></svg>